{"glyphs":{"0":{"ha":470,"x_min":32,"x_max":436,"o":"m 234 10 l 234 10 q 168 10 124 -29 q 79 -68 56 -149 q 32 -230 32 -358 l 32 -358 q 32 -481 52 -562 q 72 -643 117 -684 q 161 -725 233 -725 l 233 -725 q 301 -725 346 -683 q 390 -642 413 -559 q 436 -476 436 -355 l 436 -355 q 436 -277 427 -210 q 418 -144 396 -94 q 374 -45 335 -17 q 295 10 234 10 z m 233 -111 l 233 -111 q 249 -111 262 -122 q 275 -134 284 -162 q 292 -190 297 -237 q 301 -285 301 -356 l 301 -356 q 301 -429 297 -477 q 292 -525 284 -553 q 275 -581 263 -592 q 250 -604 233 -604 l 233 -604 q 218 -604 206 -591 q 194 -579 186 -551 q 177 -524 173 -476 q 168 -429 168 -357 l 168 -357 q 168 -287 172 -240 q 176 -193 184 -165 q 191 -137 204 -124 q 216 -111 233 -111 z"},"1":{"ha":470,"x_min":46,"x_max":354,"o":"m 354 -714 l 354 0 l 219 0 l 219 -418 q 219 -438 221 -475 q 223 -513 223 -546 l 223 -546 q 223 -543 209 -527 q 195 -512 182 -500 l 182 -500 l 121 -439 l 46 -509 l 246 -714 l 354 -714 z"},"2":{"ha":470,"x_min":29,"x_max":438,"o":"m 438 0 l 29 0 l 29 -94 l 174 -289 q 221 -349 246 -388 q 270 -428 280 -459 q 289 -491 289 -525 l 289 -525 q 289 -551 281 -568 q 272 -585 258 -592 q 243 -600 222 -600 l 222 -600 q 191 -600 160 -588 q 128 -577 95 -554 l 95 -554 l 34 -654 q 58 -671 87 -687 q 115 -703 150 -713 q 185 -724 228 -724 l 228 -724 q 287 -724 331 -699 q 375 -675 400 -632 q 424 -590 424 -536 l 424 -536 q 424 -486 409 -442 q 394 -398 362 -349 q 329 -301 277 -237 l 277 -237 l 192 -127 l 192 -121 l 438 -121 l 438 0 z"},"3":{"ha":470,"x_min":31,"x_max":432,"o":"m 203 9 l 203 9 q 157 9 113 3 q 68 -4 32 -19 l 32 -19 l 32 -144 q 72 -127 108 -118 q 144 -110 181 -110 l 181 -110 q 242 -110 267 -137 q 291 -165 291 -216 l 291 -216 q 291 -248 278 -268 q 264 -288 234 -298 q 203 -309 153 -309 l 153 -309 l 112 -309 l 112 -425 l 158 -425 q 207 -425 235 -437 q 262 -449 273 -471 q 283 -493 283 -522 l 283 -522 q 283 -560 266 -581 q 249 -603 202 -603 l 202 -603 q 169 -603 142 -589 q 115 -576 98 -566 l 98 -566 l 31 -667 q 73 -693 116 -708 q 158 -724 218 -724 l 218 -724 q 283 -724 327 -703 q 371 -683 394 -646 q 417 -609 417 -556 l 417 -556 q 417 -514 400 -478 q 383 -442 355 -416 q 326 -390 286 -376 l 286 -376 l 286 -373 q 359 -361 396 -316 q 432 -272 432 -203 l 432 -203 q 432 -143 409 -94 q 385 -46 335 -18 q 284 9 203 9 z"},"4":{"ha":470,"x_min":16,"x_max":454,"o":"m 384 0 l 251 0 l 251 -145 l 16 -145 l 16 -245 l 258 -715 l 384 -715 l 384 -257 l 454 -257 l 454 -145 l 384 -145 l 384 0 z m 219 -460 l 124 -257 l 251 -257 l 251 -428 q 251 -446 252 -474 q 253 -503 255 -524 q 256 -545 256 -540 l 256 -540 l 252 -540 q 244 -517 236 -495 q 227 -474 219 -460 l 219 -460 z"},"5":{"ha":470,"x_min":43,"x_max":427,"o":"m 190 10 l 190 10 q 154 10 112 2 q 70 -7 43 -19 l 43 -19 l 43 -146 q 68 -132 104 -122 q 140 -112 182 -112 l 182 -112 q 218 -112 242 -126 q 266 -140 279 -166 q 291 -193 291 -231 l 291 -231 q 291 -281 266 -309 q 240 -337 183 -337 l 183 -337 q 162 -337 136 -332 q 110 -327 96 -322 l 96 -322 l 49 -364 l 69 -714 l 385 -714 l 385 -591 l 187 -591 l 178 -452 q 189 -453 203 -455 q 216 -458 239 -458 l 239 -458 q 300 -458 342 -430 q 384 -402 406 -354 q 427 -306 427 -243 l 427 -243 q 427 -167 403 -110 q 378 -53 326 -21 q 273 10 190 10 z"},"6":{"ha":470,"x_min":33,"x_max":440,"o":"m 243 10 l 243 10 q 199 10 162 -8 q 124 -27 95 -65 q 66 -103 50 -163 q 33 -223 33 -304 l 33 -304 q 33 -366 40 -425 q 47 -485 65 -538 q 82 -592 114 -633 q 145 -675 194 -698 q 243 -722 314 -722 l 314 -722 q 332 -722 359 -720 q 386 -718 404 -715 l 404 -715 l 404 -594 q 389 -599 370 -601 q 351 -604 334 -604 l 334 -604 q 266 -604 229 -578 q 191 -552 175 -503 q 159 -454 157 -385 l 157 -385 l 161 -385 q 171 -410 187 -428 q 203 -446 227 -456 q 250 -466 279 -466 l 279 -466 q 329 -466 366 -438 q 402 -410 421 -358 q 440 -307 440 -237 l 440 -237 q 440 -163 417 -107 q 394 -51 350 -20 q 306 10 243 10 z m 240 -110 l 240 -110 q 267 -110 288 -138 q 308 -166 308 -236 l 308 -236 q 308 -290 292 -319 q 275 -349 241 -349 l 241 -349 q 218 -349 201 -335 q 184 -321 176 -298 q 167 -276 167 -253 l 167 -253 q 167 -227 171 -201 q 175 -176 184 -155 q 192 -135 206 -122 q 219 -110 240 -110 z"},"7":{"ha":470,"x_min":23,"x_max":441,"o":"m 231 0 l 91 0 l 304 -590 l 23 -590 l 23 -713 l 441 -713 l 441 -619 l 231 0 z"},"8":{"ha":470,"x_min":29,"x_max":441,"o":"m 234 9 l 234 9 q 170 9 124 -14 q 78 -37 54 -79 q 29 -122 29 -179 l 29 -179 q 29 -224 43 -259 q 57 -294 82 -322 q 107 -351 141 -373 l 141 -373 q 112 -397 92 -424 q 71 -452 60 -483 q 48 -515 48 -553 l 48 -553 q 48 -606 73 -644 q 97 -682 139 -702 q 181 -723 234 -723 l 234 -723 q 291 -723 333 -702 q 374 -682 398 -644 q 421 -607 421 -552 l 421 -552 q 421 -513 409 -480 q 397 -447 375 -421 q 352 -395 318 -376 l 318 -376 q 358 -350 386 -320 q 413 -290 427 -256 q 441 -222 441 -183 l 441 -183 q 441 -123 414 -80 q 386 -38 339 -14 q 292 9 234 9 z m 233 -99 l 233 -99 q 278 -99 297 -122 q 315 -146 315 -187 l 315 -187 q 315 -210 303 -230 q 291 -250 274 -267 q 257 -285 240 -301 l 240 -301 l 231 -309 q 207 -293 190 -274 q 172 -255 163 -234 q 153 -213 153 -186 l 153 -186 q 153 -148 174 -123 q 194 -99 233 -99 z m 231 -444 l 231 -444 q 249 -458 264 -471 q 278 -485 287 -503 q 295 -521 295 -546 l 295 -546 q 295 -579 280 -597 q 265 -616 235 -616 l 235 -616 q 211 -616 192 -598 q 173 -580 173 -546 l 173 -546 q 173 -525 181 -506 q 189 -487 203 -471 q 216 -456 231 -444 z"},"9":{"ha":470,"x_min":29,"x_max":436,"o":"m 154 10 l 154 10 q 134 10 108 8 q 82 6 65 2 l 65 2 l 65 -118 q 81 -114 99 -111 q 117 -108 135 -108 l 135 -108 q 187 -108 221 -124 q 255 -141 274 -171 q 293 -202 302 -242 q 310 -282 311 -328 l 311 -328 l 306 -328 q 295 -305 280 -286 q 265 -267 243 -256 q 221 -246 188 -246 l 188 -246 q 138 -246 103 -274 q 67 -303 48 -354 q 29 -406 29 -476 l 29 -476 q 29 -551 52 -606 q 74 -661 119 -691 q 164 -722 227 -722 l 227 -722 q 270 -722 308 -704 q 346 -686 375 -648 q 403 -611 420 -554 q 436 -498 436 -420 l 436 -420 q 436 -354 429 -291 q 421 -228 403 -174 q 384 -120 352 -78 q 319 -36 271 -13 q 222 10 154 10 z m 227 -362 l 227 -362 q 254 -362 270 -379 q 286 -396 295 -418 q 303 -441 303 -461 l 303 -461 q 303 -477 300 -500 q 297 -524 290 -547 q 282 -571 268 -586 q 253 -602 230 -602 l 230 -602 q 202 -602 182 -573 q 162 -545 162 -473 l 162 -473 q 162 -417 180 -389 q 197 -362 227 -362 z"},"\r":{"ha":221,"x_min":0,"x_max":0,"o":""}," ":{"ha":221,"x_min":0,"x_max":0,"o":""},"ഀ":{"ha":0,"x_min":-418,"x_max":-138,"o":"m -418 -713 l -418 -713 q -418 -782 -381 -823 q -345 -864 -279 -864 l -279 -864 q -212 -864 -175 -822 q -138 -781 -138 -713 l -138 -713 q -138 -645 -174 -603 q -211 -562 -279 -562 l -279 -562 q -346 -562 -382 -603 q -418 -644 -418 -713 z m -326 -713 l -326 -713 q -326 -683 -315 -663 q -304 -644 -279 -644 l -279 -644 q -254 -644 -242 -663 q -230 -683 -230 -713 l -230 -713 q -230 -744 -242 -763 q -254 -782 -279 -782 l -279 -782 q -304 -782 -315 -762 q -326 -743 -326 -713 z"},"ഁ":{"ha":0,"x_min":-440,"x_max":-116,"o":"m -278 -637 l -278 -637 q -354 -637 -397 -681 q -440 -725 -440 -806 l -440 -806 q -440 -823 -438 -837 q -436 -852 -433 -864 l -433 -864 l -348 -853 q -350 -843 -351 -831 q -353 -820 -353 -810 l -353 -810 q -353 -778 -343 -759 q -334 -740 -317 -732 q -300 -724 -278 -724 l -278 -724 q -260 -724 -242 -730 q -225 -737 -214 -756 q -203 -776 -203 -812 l -203 -812 q -203 -818 -204 -830 q -205 -843 -207 -854 l -207 -854 l -123 -863 q -120 -851 -118 -837 q -116 -824 -116 -808 l -116 -808 q -116 -725 -158 -681 q -201 -637 -278 -637 z m -279 -752 l -279 -752 q -305 -752 -316 -767 q -327 -782 -327 -806 l -327 -806 q -327 -830 -316 -845 q -305 -861 -279 -861 l -279 -861 q -253 -861 -241 -845 q -230 -830 -230 -808 l -230 -808 q -230 -782 -242 -767 q -254 -752 -279 -752 z"},"ം":{"ha":409,"x_min":30,"x_max":380,"o":"m 204 12 l 204 12 q 150 12 111 -11 q 71 -35 51 -78 q 30 -122 30 -180 l 30 -180 q 30 -240 52 -283 q 74 -326 113 -349 q 152 -372 204 -372 l 204 -372 q 258 -372 297 -349 q 336 -326 358 -283 q 380 -241 380 -180 l 380 -180 q 380 -122 358 -78 q 336 -34 297 -11 q 258 12 204 12 z m 204 -275 l 204 -275 q 179 -275 164 -254 q 148 -233 148 -179 l 148 -179 q 148 -128 164 -106 q 179 -85 205 -85 l 205 -85 q 229 -85 245 -105 q 261 -126 261 -180 l 261 -180 q 261 -233 246 -254 q 230 -275 204 -275 z"},"ഃ":{"ha":305,"x_min":27,"x_max":278,"o":"m 27 -438 l 27 -438 q 27 -499 61 -536 q 94 -574 152 -574 l 152 -574 q 210 -574 244 -536 q 278 -499 278 -438 l 278 -438 q 278 -377 245 -339 q 211 -302 152 -302 l 152 -302 q 94 -302 61 -339 q 27 -376 27 -438 z m 115 -439 l 115 -439 q 115 -412 125 -397 q 134 -382 152 -382 l 152 -382 q 172 -382 181 -396 q 190 -411 190 -438 l 190 -438 q 190 -465 181 -479 q 171 -494 152 -494 l 152 -494 q 134 -494 125 -480 q 115 -466 115 -439 z m 27 -124 l 27 -124 q 27 -185 61 -222 q 94 -260 152 -260 l 152 -260 q 209 -260 244 -223 q 278 -186 278 -124 l 278 -124 q 278 -62 245 -25 q 211 12 152 12 l 152 12 q 94 12 61 -25 q 27 -63 27 -124 z m 115 -124 l 115 -124 q 115 -98 125 -83 q 134 -68 152 -68 l 152 -68 q 172 -68 181 -82 q 190 -97 190 -124 l 190 -124 q 190 -151 181 -165 q 171 -180 152 -180 l 152 -180 q 134 -180 125 -165 q 115 -151 115 -124 z"},"ഄ":{"ha":539,"x_min":34,"x_max":505,"o":"m 50 -339 l 50 -339 l 169 -317 q 163 -295 160 -271 q 157 -247 157 -225 l 157 -225 q 157 -160 184 -126 q 210 -92 269 -92 l 269 -92 q 330 -92 356 -125 q 382 -159 382 -225 l 382 -225 q 382 -246 379 -270 q 376 -295 370 -317 l 370 -317 l 488 -339 q 495 -317 500 -286 q 505 -255 505 -222 l 505 -222 q 505 -153 484 -101 q 462 -50 410 -20 q 357 9 269 9 l 269 9 q 181 9 129 -20 q 77 -50 56 -101 q 34 -153 34 -222 l 34 -222 q 34 -255 39 -286 q 44 -317 50 -339 z m 217 -186 l 217 -418 l 323 -418 l 323 -186 l 217 -186 z"},"അ":{"ha":1282,"x_min":34,"x_max":1248,"o":"m 319 -574 l 319 -574 q 361 -574 417 -563 q 473 -553 515 -529 l 515 -529 q 524 -525 530 -520 q 535 -515 543 -509 l 543 -509 q 557 -497 576 -480 q 594 -463 609 -437 q 623 -411 623 -371 l 623 -371 q 623 -343 615 -321 q 607 -299 589 -282 q 571 -265 543 -253 l 543 -253 l 537 -266 q 580 -252 608 -218 q 635 -184 635 -136 l 635 -136 q 635 -95 618 -61 q 601 -28 563 -8 q 524 12 459 12 l 459 12 q 383 12 339 -19 q 294 -50 275 -105 q 255 -161 255 -237 l 255 -237 q 255 -293 269 -345 q 283 -398 315 -442 q 346 -486 396 -517 l 396 -517 q 402 -520 404 -524 q 405 -528 410 -531 l 410 -531 q 443 -550 486 -562 q 528 -574 575 -574 l 575 -574 q 628 -574 667 -562 q 706 -551 735 -528 q 764 -506 786 -475 l 786 -475 l 829 -246 l 829 0 l 702 0 l 702 -296 q 702 -364 694 -396 q 685 -429 659 -452 l 659 -452 q 642 -466 620 -472 q 598 -478 571 -478 l 571 -478 q 547 -478 525 -473 q 502 -469 487 -463 l 487 -463 q 457 -452 436 -429 q 414 -406 402 -375 q 389 -344 383 -308 q 376 -272 376 -234 l 376 -234 q 376 -148 394 -117 q 412 -86 450 -86 l 450 -86 q 480 -86 495 -100 q 509 -115 509 -143 l 509 -143 q 509 -173 491 -190 q 472 -207 434 -207 l 434 -207 l 428 -207 l 428 -305 l 435 -305 q 467 -305 484 -323 q 501 -341 501 -370 l 501 -370 q 501 -399 481 -426 q 461 -453 411 -467 l 411 -467 q 400 -474 379 -477 q 357 -480 336 -480 l 336 -480 q 278 -480 240 -456 q 202 -432 183 -389 q 164 -346 164 -290 l 164 -290 q 164 -240 174 -199 q 183 -158 200 -122 q 217 -87 241 -52 l 241 -52 l 146 12 q 113 -27 88 -71 q 63 -115 49 -169 q 34 -224 34 -294 l 34 -294 q 34 -342 48 -391 q 61 -441 93 -482 q 124 -524 180 -549 q 236 -574 319 -574 z m 1062 12 l 1062 12 q 1000 12 964 -16 q 927 -45 911 -94 q 894 -144 894 -206 l 894 -206 q 894 -302 932 -354 q 969 -407 1044 -407 l 1044 -407 q 1085 -407 1115 -384 q 1144 -362 1166 -323 q 1187 -285 1199 -238 l 1199 -238 l 1151 -231 q 1146 -251 1136 -269 q 1125 -288 1111 -300 q 1096 -313 1075 -313 l 1075 -313 q 1044 -313 1031 -285 q 1018 -258 1018 -200 l 1018 -200 q 1018 -163 1023 -137 q 1028 -112 1040 -99 q 1052 -86 1070 -86 l 1070 -86 q 1087 -86 1099 -99 q 1111 -113 1118 -145 q 1124 -177 1124 -232 l 1124 -232 q 1124 -248 1123 -270 q 1121 -292 1118 -312 l 1118 -312 q 1118 -316 1119 -321 q 1120 -327 1119 -329 l 1119 -329 q 1114 -367 1095 -399 q 1075 -431 1041 -451 q 1007 -472 958 -472 l 958 -472 q 931 -472 913 -469 q 894 -466 874 -451 l 874 -451 q 862 -442 852 -426 q 841 -411 835 -379 q 829 -347 829 -286 l 829 -286 l 829 -216 l 744 -467 q 770 -503 800 -527 q 829 -551 868 -562 q 907 -574 962 -574 l 962 -574 q 1033 -574 1087 -548 q 1140 -523 1176 -477 q 1212 -431 1230 -370 q 1248 -309 1248 -237 l 1248 -237 q 1248 -145 1226 -90 q 1204 -35 1163 -11 q 1121 12 1062 12 z"},"ആ":{"ha":1408,"x_min":34,"x_max":1387,"o":"m 319 -574 l 319 -574 q 361 -574 417 -563 q 473 -553 515 -529 l 515 -529 q 524 -525 530 -520 q 535 -515 543 -509 l 543 -509 q 557 -497 576 -480 q 594 -463 609 -437 q 623 -411 623 -371 l 623 -371 q 623 -343 615 -321 q 607 -299 589 -282 q 571 -265 543 -253 l 543 -253 l 537 -266 q 580 -252 608 -218 q 635 -184 635 -136 l 635 -136 q 635 -95 618 -61 q 601 -28 563 -8 q 524 12 459 12 l 459 12 q 383 12 339 -19 q 294 -50 275 -105 q 255 -161 255 -237 l 255 -237 q 255 -293 269 -345 q 283 -398 315 -442 q 346 -486 396 -517 l 396 -517 q 402 -520 404 -524 q 405 -528 410 -531 l 410 -531 q 443 -550 486 -562 q 528 -574 575 -574 l 575 -574 q 628 -574 667 -562 q 706 -551 735 -528 q 764 -506 786 -475 l 786 -475 l 829 -226 l 829 0 l 702 0 l 702 -296 q 702 -364 694 -396 q 685 -429 659 -452 l 659 -452 q 642 -466 620 -472 q 598 -478 571 -478 l 571 -478 q 547 -478 525 -473 q 502 -469 487 -463 l 487 -463 q 457 -452 436 -429 q 414 -406 402 -375 q 389 -344 383 -308 q 376 -272 376 -234 l 376 -234 q 376 -148 394 -117 q 412 -86 450 -86 l 450 -86 q 480 -86 495 -100 q 509 -115 509 -143 l 509 -143 q 509 -173 491 -190 q 472 -207 434 -207 l 434 -207 l 428 -207 l 428 -305 l 435 -305 q 467 -305 484 -323 q 501 -341 501 -370 l 501 -370 q 501 -399 481 -426 q 461 -453 411 -467 l 411 -467 q 400 -474 379 -477 q 357 -480 336 -480 l 336 -480 q 278 -480 240 -456 q 202 -432 183 -389 q 164 -346 164 -290 l 164 -290 q 164 -240 174 -199 q 183 -158 200 -122 q 217 -87 241 -52 l 241 -52 l 146 12 q 113 -27 88 -71 q 63 -115 49 -169 q 34 -224 34 -294 l 34 -294 q 34 -342 48 -391 q 61 -441 93 -482 q 124 -524 180 -549 q 236 -574 319 -574 z m 950 -574 l 950 -574 q 1038 -574 1094 -540 q 1150 -506 1179 -454 q 1208 -402 1216 -347 l 1216 -347 q 1221 -320 1223 -291 q 1224 -262 1224 -233 l 1224 -233 q 1224 -148 1204 -93 q 1184 -39 1145 -13 q 1105 12 1045 12 l 1045 12 q 987 12 950 -13 q 913 -38 896 -80 q 878 -123 878 -181 l 878 -181 q 878 -288 941 -343 q 1004 -399 1109 -399 l 1109 -399 q 1130 -399 1143 -399 q 1155 -399 1162 -397 l 1162 -397 l 1184 -395 q 1245 -383 1291 -343 q 1336 -304 1362 -242 q 1387 -180 1387 -97 l 1387 -97 q 1387 -38 1374 16 q 1360 70 1329 112 q 1298 153 1246 177 q 1193 201 1117 201 l 1117 201 q 1082 201 1055 197 q 1027 192 998 183 l 998 183 l 1032 86 q 1054 93 1073 96 q 1091 98 1115 98 l 1115 98 q 1163 98 1193 80 q 1223 62 1239 33 q 1255 4 1262 -31 q 1268 -67 1268 -101 l 1268 -101 q 1268 -149 1260 -184 q 1252 -219 1237 -245 q 1221 -271 1197 -288 l 1197 -288 l 1157 -295 q 1147 -300 1135 -301 q 1122 -303 1110 -303 l 1110 -303 q 1073 -303 1049 -287 q 1025 -272 1014 -245 q 1002 -219 1002 -181 l 1002 -181 q 1002 -151 1008 -130 q 1013 -110 1024 -99 q 1034 -89 1050 -89 l 1050 -89 q 1078 -89 1091 -118 q 1103 -148 1103 -233 l 1103 -233 q 1103 -272 1098 -306 q 1092 -341 1082 -369 l 1082 -369 l 1078 -382 q 1066 -413 1045 -433 q 1024 -454 1000 -463 q 975 -472 949 -472 l 949 -472 q 930 -472 912 -469 q 893 -466 874 -451 l 874 -451 q 861 -442 851 -426 q 841 -410 835 -378 q 829 -346 829 -285 l 829 -285 l 829 -212 l 745 -467 q 769 -503 798 -527 q 826 -551 863 -562 q 900 -574 950 -574 z"},"ഇ":{"ha":814,"x_min":33,"x_max":780,"o":"m 282 -574 l 282 -574 q 331 -574 366 -561 q 400 -549 425 -529 q 450 -509 471 -485 l 471 -485 l 433 -495 q 465 -540 505 -557 q 544 -574 584 -574 l 584 -574 q 635 -574 672 -553 q 709 -533 733 -497 q 757 -461 769 -415 q 780 -369 780 -317 l 780 -317 q 780 -221 762 -160 q 743 -100 689 -58 l 689 -58 q 665 -40 634 -27 q 602 -14 559 -7 q 516 0 454 0 l 454 0 l 276 0 q 235 0 217 3 q 199 5 189 10 l 189 10 q 176 17 170 27 q 164 36 164 48 l 164 48 q 164 60 170 70 q 175 80 185 87 l 185 87 q 195 93 215 96 q 234 99 274 99 l 274 99 l 769 99 l 769 201 l 269 201 q 206 201 164 192 q 122 183 99 168 l 99 168 q 69 148 53 120 q 36 91 36 53 l 36 53 q 36 16 52 -15 q 68 -47 101 -68 l 101 -68 q 119 -78 140 -85 q 161 -92 194 -96 q 226 -100 274 -100 l 274 -100 l 406 -100 q 466 -100 504 -105 q 541 -110 564 -120 q 586 -130 602 -143 l 602 -143 q 634 -169 643 -212 q 652 -255 652 -313 l 652 -313 q 652 -351 645 -387 q 637 -424 618 -449 q 598 -474 564 -474 l 564 -474 q 557 -474 548 -470 q 539 -467 534 -460 l 534 -460 q 520 -447 515 -421 q 510 -396 510 -344 l 510 -344 l 510 -146 l 385 -146 l 385 -331 q 385 -377 378 -404 q 370 -432 355 -447 l 355 -447 q 341 -461 323 -467 q 304 -474 274 -474 l 274 -474 q 251 -474 233 -468 q 214 -463 198 -452 q 182 -442 170 -426 q 157 -411 148 -391 l 148 -391 q 146 -383 144 -372 q 142 -361 141 -352 l 141 -352 q 141 -343 139 -330 q 137 -317 137 -300 l 137 -300 q 137 -258 149 -236 q 161 -214 183 -214 l 183 -214 q 201 -214 210 -231 q 218 -249 218 -278 l 218 -278 q 218 -298 214 -312 q 210 -326 201 -333 q 192 -341 179 -341 l 179 -341 q 159 -341 146 -336 q 133 -331 116 -321 l 116 -321 l 40 -327 q 60 -354 88 -376 q 115 -399 148 -412 q 180 -426 213 -426 l 213 -426 q 256 -426 283 -406 q 309 -387 323 -354 q 336 -321 336 -278 l 336 -278 q 336 -236 321 -200 q 306 -165 273 -143 q 240 -122 189 -122 l 189 -122 q 142 -122 107 -144 q 71 -167 52 -211 q 33 -255 33 -320 l 33 -320 q 33 -400 66 -456 q 99 -513 156 -543 q 212 -574 282 -574 z"},"ഈ":{"ha":1455,"x_min":33,"x_max":1421,"o":"m 282 -574 l 282 -574 q 331 -574 366 -561 q 400 -549 425 -529 q 450 -509 471 -485 l 471 -485 l 433 -495 q 465 -540 505 -557 q 544 -574 584 -574 l 584 -574 q 635 -574 672 -553 q 709 -533 733 -497 q 757 -461 769 -415 q 780 -369 780 -317 l 780 -317 q 780 -221 762 -160 q 743 -100 689 -58 l 689 -58 q 665 -40 634 -27 q 602 -14 559 -7 q 516 0 454 0 l 454 0 l 276 0 q 235 0 217 3 q 199 5 189 10 l 189 10 q 176 17 170 27 q 164 36 164 48 l 164 48 q 164 60 170 70 q 175 80 185 87 l 185 87 q 195 93 215 96 q 234 99 274 99 l 274 99 l 769 99 l 769 201 l 269 201 q 206 201 164 192 q 122 183 99 168 l 99 168 q 69 148 53 120 q 36 91 36 53 l 36 53 q 36 16 52 -15 q 68 -47 101 -68 l 101 -68 q 119 -78 140 -85 q 161 -92 194 -96 q 226 -100 274 -100 l 274 -100 l 406 -100 q 466 -100 504 -105 q 541 -110 564 -120 q 586 -130 602 -143 l 602 -143 q 634 -169 643 -212 q 652 -255 652 -313 l 652 -313 q 652 -351 645 -387 q 637 -424 618 -449 q 598 -474 564 -474 l 564 -474 q 557 -474 548 -470 q 539 -467 534 -460 l 534 -460 q 520 -447 515 -421 q 510 -396 510 -344 l 510 -344 l 510 -146 l 385 -146 l 385 -331 q 385 -377 378 -404 q 370 -432 355 -447 l 355 -447 q 341 -461 323 -467 q 304 -474 274 -474 l 274 -474 q 251 -474 233 -468 q 214 -463 198 -452 q 182 -442 170 -426 q 157 -411 148 -391 l 148 -391 q 146 -383 144 -372 q 142 -361 141 -352 l 141 -352 q 141 -343 139 -330 q 137 -317 137 -300 l 137 -300 q 137 -258 149 -236 q 161 -214 183 -214 l 183 -214 q 201 -214 210 -231 q 218 -249 218 -278 l 218 -278 q 218 -298 214 -312 q 210 -326 201 -333 q 192 -341 179 -341 l 179 -341 q 159 -341 146 -336 q 133 -331 116 -321 l 116 -321 l 40 -327 q 60 -354 88 -376 q 115 -399 148 -412 q 180 -426 213 -426 l 213 -426 q 256 -426 283 -406 q 309 -387 323 -354 q 336 -321 336 -278 l 336 -278 q 336 -236 321 -200 q 306 -165 273 -143 q 240 -122 189 -122 l 189 -122 q 142 -122 107 -144 q 71 -167 52 -211 q 33 -255 33 -320 l 33 -320 q 33 -400 66 -456 q 99 -513 156 -543 q 212 -574 282 -574 z m 1242 -574 l 1242 -574 q 1300 -574 1340 -542 q 1379 -510 1400 -452 q 1421 -394 1421 -313 l 1421 -313 q 1421 -204 1392 -131 q 1363 -59 1306 -23 q 1248 12 1160 12 l 1160 12 q 1110 12 1066 3 q 1021 -7 978 -29 l 978 -29 l 1027 -123 q 1053 -111 1085 -101 q 1116 -91 1150 -91 l 1150 -91 q 1203 -91 1235 -115 q 1266 -140 1280 -188 q 1293 -236 1293 -308 l 1293 -308 q 1293 -396 1276 -435 q 1258 -474 1230 -474 l 1230 -474 q 1219 -474 1213 -469 q 1206 -465 1201 -456 l 1201 -456 q 1195 -446 1193 -431 q 1190 -417 1190 -381 l 1190 -381 l 1190 -265 l 1065 -265 l 1065 -356 q 1065 -401 1063 -420 q 1061 -439 1057 -451 l 1057 -451 q 1052 -463 1042 -468 q 1031 -474 1021 -474 l 1021 -474 q 994 -474 981 -449 q 968 -424 968 -392 l 968 -392 q 968 -360 972 -333 q 976 -307 981 -287 l 981 -287 l 860 -261 q 852 -289 847 -324 q 841 -359 841 -393 l 841 -393 q 841 -440 858 -480 q 874 -521 910 -547 q 946 -574 1004 -574 l 1004 -574 q 1049 -574 1080 -559 q 1110 -545 1133 -514 l 1133 -514 l 1116 -516 q 1139 -546 1168 -560 q 1197 -574 1242 -574 z"},"ഉ":{"ha":596,"x_min":33,"x_max":563,"o":"m 299 -574 l 299 -574 q 373 -574 423 -550 q 473 -527 505 -487 q 536 -448 550 -399 q 563 -350 563 -299 l 563 -299 q 563 -220 546 -162 q 529 -104 483 -65 l 483 -65 q 453 -39 418 -25 q 382 -11 344 -5 q 305 0 265 0 l 265 0 l 252 0 q 229 0 214 2 q 199 4 189 9 l 189 9 q 176 16 170 26 q 164 36 164 48 l 164 48 q 164 60 170 70 q 175 80 185 87 l 185 87 q 195 93 215 96 q 234 99 274 99 l 274 99 l 547 99 l 547 201 l 269 201 q 206 201 164 192 q 122 183 99 168 l 99 168 q 69 148 53 120 q 36 91 36 53 l 36 53 q 36 15 52 -16 q 68 -48 101 -70 l 101 -70 q 127 -85 162 -92 q 197 -100 248 -100 l 248 -100 l 238 -100 q 281 -100 312 -106 q 342 -112 363 -122 q 383 -132 397 -147 l 397 -147 q 420 -174 427 -212 q 434 -250 434 -293 l 434 -293 q 434 -323 428 -354 q 422 -386 406 -413 q 390 -440 361 -455 q 332 -471 287 -471 l 287 -471 q 262 -471 238 -464 q 214 -458 195 -445 q 175 -432 162 -414 q 148 -396 143 -371 l 143 -371 q 144 -366 143 -362 q 142 -358 142 -354 l 142 -354 q 141 -345 139 -332 q 137 -320 137 -300 l 137 -300 q 137 -258 149 -236 q 161 -214 183 -214 l 183 -214 q 201 -214 210 -231 q 218 -249 218 -278 l 218 -278 q 218 -298 214 -312 q 210 -326 201 -333 q 192 -341 179 -341 l 179 -341 q 160 -341 145 -336 q 130 -331 114 -321 l 114 -321 l 40 -327 q 60 -354 88 -376 q 115 -399 148 -412 q 180 -426 213 -426 l 213 -426 q 256 -426 283 -406 q 309 -387 323 -354 q 336 -321 336 -278 l 336 -278 q 336 -236 321 -200 q 306 -165 273 -143 q 240 -122 189 -122 l 189 -122 q 142 -122 107 -144 q 71 -166 52 -210 q 33 -254 33 -317 l 33 -317 q 33 -374 53 -422 q 72 -470 108 -504 q 143 -538 192 -556 q 241 -574 299 -574 z"},"ഊ":{"ha":1238,"x_min":33,"x_max":1204,"o":"m 299 -574 l 299 -574 q 373 -574 423 -550 q 473 -527 505 -487 q 536 -448 550 -399 q 563 -350 563 -299 l 563 -299 q 563 -220 546 -162 q 529 -104 483 -65 l 483 -65 q 453 -39 418 -25 q 382 -11 344 -5 q 305 0 265 0 l 265 0 l 252 0 q 229 0 214 2 q 199 4 189 9 l 189 9 q 176 16 170 26 q 164 36 164 48 l 164 48 q 164 60 170 70 q 175 80 185 87 l 185 87 q 195 93 215 96 q 234 99 274 99 l 274 99 l 547 99 l 547 201 l 269 201 q 206 201 164 192 q 122 183 99 168 l 99 168 q 69 148 53 120 q 36 91 36 53 l 36 53 q 36 15 52 -16 q 68 -48 101 -70 l 101 -70 q 127 -85 162 -92 q 197 -100 248 -100 l 248 -100 l 238 -100 q 281 -100 312 -106 q 342 -112 363 -122 q 383 -132 397 -147 l 397 -147 q 420 -174 427 -212 q 434 -250 434 -293 l 434 -293 q 434 -323 428 -354 q 422 -386 406 -413 q 390 -440 361 -455 q 332 -471 287 -471 l 287 -471 q 262 -471 238 -464 q 214 -458 195 -445 q 175 -432 162 -414 q 148 -396 143 -371 l 143 -371 q 144 -366 143 -362 q 142 -358 142 -354 l 142 -354 q 141 -345 139 -332 q 137 -320 137 -300 l 137 -300 q 137 -258 149 -236 q 161 -214 183 -214 l 183 -214 q 201 -214 210 -231 q 218 -249 218 -278 l 218 -278 q 218 -298 214 -312 q 210 -326 201 -333 q 192 -341 179 -341 l 179 -341 q 160 -341 145 -336 q 130 -331 114 -321 l 114 -321 l 40 -327 q 60 -354 88 -376 q 115 -399 148 -412 q 180 -426 213 -426 l 213 -426 q 256 -426 283 -406 q 309 -387 323 -354 q 336 -321 336 -278 l 336 -278 q 336 -236 321 -200 q 306 -165 273 -143 q 240 -122 189 -122 l 189 -122 q 142 -122 107 -144 q 71 -166 52 -210 q 33 -254 33 -317 l 33 -317 q 33 -374 53 -422 q 72 -470 108 -504 q 143 -538 192 -556 q 241 -574 299 -574 z m 1025 -574 l 1025 -574 q 1083 -574 1123 -542 q 1162 -510 1183 -452 q 1204 -394 1204 -313 l 1204 -313 q 1204 -204 1175 -131 q 1146 -59 1089 -23 q 1031 12 943 12 l 943 12 q 893 12 849 3 q 804 -7 761 -29 l 761 -29 l 810 -123 q 836 -111 868 -101 q 899 -91 933 -91 l 933 -91 q 986 -91 1018 -115 q 1049 -140 1063 -188 q 1076 -236 1076 -308 l 1076 -308 q 1076 -396 1059 -435 q 1041 -474 1013 -474 l 1013 -474 q 1002 -474 996 -469 q 989 -465 984 -456 l 984 -456 q 978 -446 976 -431 q 973 -417 973 -381 l 973 -381 l 973 -265 l 848 -265 l 848 -356 q 848 -401 846 -420 q 844 -439 840 -451 l 840 -451 q 835 -463 825 -468 q 814 -474 804 -474 l 804 -474 q 777 -474 764 -449 q 751 -424 751 -392 l 751 -392 q 751 -360 755 -333 q 759 -307 764 -287 l 764 -287 l 643 -261 q 635 -289 630 -324 q 624 -359 624 -393 l 624 -393 q 624 -440 641 -480 q 657 -521 693 -547 q 729 -574 787 -574 l 787 -574 q 832 -574 863 -559 q 893 -545 916 -514 l 916 -514 l 899 -516 q 922 -546 951 -560 q 980 -574 1025 -574 z"},"ഋ":{"ha":797,"x_min":31,"x_max":766,"o":"m 587 -574 l 587 -574 q 669 -574 718 -518 q 766 -463 766 -352 l 766 -352 q 766 -283 745 -234 q 723 -185 686 -152 l 686 -152 q 646 -111 595 -88 q 544 -66 480 -66 l 480 -66 l 327 -66 q 283 -66 245 -75 q 207 -85 175 -104 q 143 -124 117 -151 l 117 -151 q 77 -186 54 -235 q 31 -284 31 -354 l 31 -354 q 31 -421 54 -470 q 77 -519 120 -546 q 162 -574 217 -574 l 217 -574 q 270 -574 306 -552 q 342 -531 361 -492 q 379 -454 379 -404 l 379 -404 q 379 -343 360 -304 q 341 -265 308 -247 q 274 -229 230 -229 l 230 -229 q 200 -229 169 -242 q 137 -256 111 -275 q 85 -294 70 -311 l 70 -311 l 103 -409 q 119 -382 133 -362 q 146 -342 162 -331 q 177 -321 197 -321 l 197 -321 q 225 -321 241 -340 q 257 -360 257 -408 l 257 -408 q 257 -443 244 -461 q 230 -479 213 -479 l 213 -479 q 193 -479 179 -467 q 165 -455 158 -431 q 150 -407 150 -369 l 150 -369 q 150 -346 154 -324 q 157 -303 162 -286 l 162 -286 l 158 -259 q 169 -233 194 -215 q 219 -197 250 -186 q 281 -175 311 -169 q 340 -164 360 -164 l 360 -164 l 442 -164 q 456 -164 484 -168 q 512 -172 544 -183 q 576 -194 603 -212 q 629 -231 641 -260 l 641 -260 l 637 -287 q 641 -302 645 -323 q 648 -345 648 -371 l 648 -371 q 648 -408 641 -431 q 634 -455 622 -467 q 609 -479 589 -479 l 589 -479 q 571 -479 557 -460 q 542 -441 542 -401 l 542 -401 q 542 -358 557 -339 q 572 -321 599 -321 l 599 -321 q 621 -321 637 -331 q 652 -342 666 -361 q 679 -381 694 -410 l 694 -410 l 728 -311 q 714 -295 689 -275 q 663 -256 632 -242 q 600 -229 567 -229 l 567 -229 q 524 -229 491 -246 q 458 -264 439 -301 q 420 -339 420 -398 l 420 -398 q 420 -452 441 -492 q 462 -532 500 -553 q 537 -574 587 -574 z m 396 249 l 396 249 q 305 249 237 228 q 169 207 132 163 q 95 118 95 46 l 95 46 q 95 0 114 -33 q 133 -67 169 -88 q 204 -109 252 -119 q 299 -129 356 -129 l 356 -129 l 439 -129 q 499 -129 547 -119 q 595 -109 631 -88 q 666 -67 685 -33 q 703 0 703 48 l 703 48 q 703 112 670 157 q 636 202 568 226 q 499 249 396 249 z m 400 146 l 400 146 q 460 146 498 134 q 536 121 555 99 q 573 76 573 43 l 573 43 q 573 11 559 -9 q 544 -29 519 -41 q 494 -53 465 -58 q 436 -63 409 -63 l 409 -63 l 394 -63 q 350 -63 311 -53 q 272 -43 249 -20 q 225 3 225 42 l 225 42 q 225 76 244 100 q 262 123 301 135 q 340 146 400 146 z"},"ഌ":{"ha":1003,"x_min":35,"x_max":969,"o":"m 314 -574 l 314 -574 q 381 -574 426 -550 q 470 -527 506 -479 l 506 -479 l 525 -389 l 550 -178 l 550 0 l 423 0 l 423 -293 q 423 -365 415 -396 q 406 -428 391 -444 l 391 -444 q 379 -457 362 -465 q 344 -473 314 -473 l 314 -473 q 268 -473 232 -449 q 195 -425 173 -373 q 150 -322 150 -242 l 150 -242 l 150 -231 q 150 -171 158 -139 q 165 -108 178 -97 q 191 -86 206 -86 l 206 -86 q 219 -86 229 -94 q 238 -102 243 -119 q 247 -137 247 -167 l 247 -167 q 247 -212 237 -231 q 227 -250 200 -250 l 200 -250 q 176 -250 153 -233 q 130 -217 105 -180 l 105 -180 l 87 -272 q 107 -297 147 -320 q 186 -344 234 -344 l 234 -344 q 278 -344 309 -323 q 339 -303 354 -265 q 369 -227 369 -174 l 369 -174 q 369 -112 350 -71 q 331 -30 296 -9 q 261 12 211 12 l 211 12 q 165 12 125 -12 q 85 -37 60 -93 q 35 -149 35 -243 l 35 -243 q 35 -355 71 -428 q 107 -502 171 -538 q 234 -574 314 -574 z m 783 12 l 783 12 q 721 12 685 -16 q 648 -45 632 -94 q 615 -144 615 -206 l 615 -206 q 615 -302 653 -354 q 690 -407 765 -407 l 765 -407 q 805 -407 835 -384 q 865 -362 887 -323 q 908 -285 920 -238 l 920 -238 l 872 -231 q 867 -251 857 -269 q 846 -288 832 -300 q 817 -313 796 -313 l 796 -313 q 765 -313 752 -285 q 739 -258 739 -200 l 739 -200 q 739 -163 744 -137 q 749 -112 761 -99 q 772 -86 791 -86 l 791 -86 q 808 -86 820 -99 q 832 -113 839 -145 q 845 -177 845 -232 l 845 -232 q 845 -248 844 -270 q 842 -292 839 -312 l 839 -312 q 839 -316 840 -321 q 841 -327 840 -329 l 840 -329 q 835 -367 816 -399 q 796 -431 762 -451 q 728 -472 679 -472 l 679 -472 q 652 -472 634 -469 q 615 -466 595 -451 l 595 -451 q 583 -442 573 -426 q 562 -411 556 -379 q 550 -347 550 -286 l 550 -286 l 550 -216 l 465 -467 q 491 -503 521 -527 q 550 -551 589 -562 q 628 -574 684 -574 l 684 -574 q 755 -574 809 -548 q 862 -523 898 -477 q 933 -431 951 -370 q 969 -309 969 -237 l 969 -237 q 969 -145 947 -90 q 925 -35 884 -11 q 842 12 783 12 z"},"എ":{"ha":1076,"x_min":28,"x_max":1040,"o":"m 212 -362 l 212 -362 q 276 -362 316 -335 q 355 -309 374 -268 q 392 -227 392 -181 l 392 -181 q 392 -145 380 -117 q 368 -89 360 -70 l 360 -70 l 347 -100 l 729 -100 l 717 0 l 285 0 l 242 -60 q 251 -78 260 -106 q 268 -134 268 -172 l 268 -172 q 268 -212 255 -237 q 242 -263 213 -263 l 213 -263 q 192 -263 180 -252 q 167 -241 161 -221 q 155 -201 155 -176 l 155 -176 q 155 -124 169 -94 q 183 -65 195 -37 l 195 -37 l 88 12 q 60 -33 44 -77 q 28 -121 28 -180 l 28 -180 q 28 -235 51 -275 q 73 -316 115 -339 q 156 -362 212 -362 z m 760 -574 l 760 -574 q 831 -574 884 -548 q 936 -523 971 -473 q 1005 -423 1023 -349 q 1040 -276 1040 -182 l 1040 -182 q 1040 -96 1025 -23 q 1009 49 984 111 q 959 172 926 228 l 926 228 l 826 174 q 852 125 870 72 q 888 19 898 -42 q 907 -104 907 -179 l 907 -179 q 907 -244 899 -297 q 891 -351 874 -390 q 856 -430 828 -452 q 800 -474 759 -474 l 759 -474 q 703 -474 667 -435 q 630 -397 612 -326 q 594 -255 594 -154 l 594 -154 q 594 -119 595 -93 q 596 -68 597 -49 l 597 -49 q 597 -40 596 -33 q 595 -27 594 -19 l 594 -19 q 598 45 607 78 q 616 110 630 121 q 643 132 659 132 l 659 132 q 672 132 680 123 l 680 123 q 684 118 685 109 q 686 100 686 86 l 686 86 l 686 -387 l 812 -387 l 812 48 q 812 98 805 131 q 797 164 775 188 l 775 188 q 759 206 731 217 q 703 228 669 228 l 669 228 q 604 228 559 193 q 514 158 491 76 q 467 -6 467 -145 l 467 -145 q 467 -242 485 -320 q 503 -398 539 -455 q 575 -512 631 -543 q 686 -574 760 -574 z"},"ഏ":{"ha":1089,"x_min":27,"x_max":1064,"o":"m 210 -362 l 210 -362 q 275 -362 315 -335 q 354 -309 373 -268 q 391 -227 391 -181 l 391 -181 q 391 -145 379 -117 q 367 -89 359 -70 l 359 -70 l 335 -100 l 721 -100 l 716 0 l 284 0 l 241 -60 q 249 -78 258 -106 q 267 -134 267 -172 l 267 -172 q 267 -212 254 -237 q 241 -263 212 -263 l 212 -263 q 191 -263 179 -252 q 166 -241 160 -221 q 154 -201 154 -176 l 154 -176 q 154 -124 168 -94 q 182 -65 193 -37 l 193 -37 l 87 12 q 59 -33 43 -77 q 27 -121 27 -180 l 27 -180 q 27 -235 50 -275 q 72 -316 113 -339 q 154 -362 210 -362 z m 798 -574 l 798 -574 q 868 -574 917 -554 q 966 -535 997 -502 q 1028 -469 1043 -427 q 1057 -385 1057 -340 l 1057 -340 q 1057 -285 1042 -246 q 1026 -207 1003 -182 q 980 -157 959 -143 l 959 -143 l 956 -160 q 1005 -132 1035 -88 q 1064 -45 1064 28 l 1064 28 q 1064 98 1043 143 q 1021 187 984 208 q 947 228 899 228 l 899 228 q 873 228 853 226 q 832 223 817 220 l 817 220 l 836 122 q 842 124 852 126 q 861 127 867 127 l 867 127 q 895 127 910 116 q 924 104 930 81 q 936 57 936 22 l 936 22 q 936 -26 916 -57 q 895 -89 853 -92 l 853 -92 l 853 -191 q 876 -200 893 -217 q 910 -235 920 -263 q 929 -291 929 -330 l 929 -330 q 929 -372 914 -404 q 899 -436 869 -453 q 838 -471 791 -471 l 791 -471 q 724 -471 680 -432 q 636 -394 615 -322 q 593 -251 593 -154 l 593 -154 q 593 -119 594 -94 q 595 -69 596 -49 l 596 -49 q 596 -41 595 -33 q 593 -26 593 -19 l 593 -19 q 597 45 606 78 q 614 110 628 121 q 641 132 658 132 l 658 132 q 671 132 678 123 l 678 123 q 683 118 684 109 q 685 100 685 86 l 685 86 l 685 -387 l 810 -387 l 810 48 q 810 98 803 131 q 796 164 773 188 l 773 188 q 758 206 730 217 q 702 228 668 228 l 668 228 q 603 228 558 193 q 513 158 490 76 q 466 -7 466 -148 l 466 -148 q 466 -244 487 -322 q 507 -401 549 -457 q 591 -514 653 -544 q 715 -574 798 -574 z"},"ഐ":{"ha":1690,"x_min":35,"x_max":1654,"o":"m 213 12 l 213 12 q 166 12 126 -13 q 85 -38 60 -92 q 35 -146 35 -238 l 35 -238 q 35 -314 55 -375 q 75 -437 113 -481 q 150 -526 204 -550 q 257 -574 325 -574 l 325 -574 q 390 -574 439 -552 q 487 -530 519 -491 q 550 -452 566 -400 q 582 -349 582 -289 l 582 -289 q 582 -222 566 -167 q 550 -113 524 -69 q 498 -26 465 13 l 465 13 l 372 -50 q 395 -82 413 -116 q 431 -150 442 -191 q 452 -232 452 -287 l 452 -287 q 452 -343 437 -385 q 422 -427 392 -449 q 361 -472 314 -472 l 314 -472 q 265 -472 228 -441 q 190 -411 170 -357 q 150 -303 150 -234 l 150 -234 q 150 -172 158 -140 q 165 -108 178 -97 q 191 -86 206 -86 l 206 -86 q 219 -86 229 -94 q 238 -102 243 -119 q 247 -137 247 -166 l 247 -166 q 247 -212 237 -231 q 227 -250 200 -250 l 200 -250 q 176 -250 153 -233 q 130 -216 105 -180 l 105 -180 l 88 -272 q 107 -297 146 -320 q 185 -344 232 -344 l 232 -344 q 277 -344 308 -323 q 338 -303 354 -265 q 369 -228 369 -175 l 369 -175 q 369 -114 350 -73 q 331 -32 297 -10 q 263 12 213 12 z m 826 -362 l 826 -362 q 890 -362 930 -335 q 969 -309 988 -268 q 1006 -227 1006 -181 l 1006 -181 q 1006 -145 994 -117 q 982 -89 974 -70 l 974 -70 l 961 -100 l 1343 -100 l 1331 0 l 899 0 l 856 -60 q 865 -78 874 -106 q 882 -134 882 -172 l 882 -172 q 882 -212 869 -237 q 856 -263 827 -263 l 827 -263 q 806 -263 794 -252 q 781 -241 775 -221 q 769 -201 769 -176 l 769 -176 q 769 -124 783 -94 q 797 -65 809 -37 l 809 -37 l 702 12 q 674 -33 658 -77 q 642 -121 642 -180 l 642 -180 q 642 -235 665 -275 q 687 -316 729 -339 q 770 -362 826 -362 z m 1374 -574 l 1374 -574 q 1445 -574 1498 -548 q 1550 -523 1585 -473 q 1619 -423 1637 -349 q 1654 -276 1654 -182 l 1654 -182 q 1654 -96 1639 -23 q 1623 49 1598 111 q 1573 172 1540 228 l 1540 228 l 1440 174 q 1466 125 1484 72 q 1502 19 1512 -42 q 1521 -104 1521 -179 l 1521 -179 q 1521 -244 1513 -297 q 1505 -351 1488 -390 q 1470 -430 1442 -452 q 1414 -474 1373 -474 l 1373 -474 q 1317 -474 1281 -435 q 1244 -397 1226 -326 q 1208 -255 1208 -154 l 1208 -154 q 1208 -119 1209 -93 q 1210 -68 1211 -49 l 1211 -49 q 1211 -40 1210 -33 q 1209 -27 1208 -19 l 1208 -19 q 1212 45 1221 78 q 1230 110 1244 121 q 1257 132 1273 132 l 1273 132 q 1286 132 1294 123 l 1294 123 q 1298 118 1299 109 q 1300 100 1300 86 l 1300 86 l 1300 -387 l 1426 -387 l 1426 48 q 1426 98 1419 131 q 1411 164 1389 188 l 1389 188 q 1373 206 1345 217 q 1317 228 1283 228 l 1283 228 q 1218 228 1173 193 q 1128 158 1105 76 q 1081 -6 1081 -145 l 1081 -145 q 1081 -242 1099 -320 q 1117 -398 1153 -455 q 1189 -512 1245 -543 q 1300 -574 1374 -574 z"},"ഒ":{"ha":659,"x_min":34,"x_max":630,"o":"m 392 -574 l 392 -574 q 475 -574 526 -551 q 577 -529 600 -491 q 623 -453 623 -406 l 623 -406 q 623 -376 614 -351 q 604 -326 585 -308 q 566 -290 535 -276 l 535 -276 l 536 -283 q 579 -267 605 -230 q 630 -194 630 -144 l 630 -144 q 630 -71 591 -29 q 551 12 467 12 l 467 12 q 439 12 415 8 q 391 4 374 0 l 374 0 l 390 -96 q 402 -92 415 -90 q 427 -88 444 -88 l 444 -88 q 478 -88 491 -105 q 503 -122 503 -153 l 503 -153 q 503 -170 498 -184 q 492 -199 480 -209 l 480 -209 q 470 -219 452 -225 q 434 -231 404 -231 l 404 -231 l 397 -231 l 397 -329 l 401 -329 q 436 -329 450 -334 q 464 -339 475 -348 l 475 -348 q 485 -357 490 -369 q 495 -381 495 -395 l 495 -395 q 495 -433 468 -452 q 440 -472 384 -472 l 384 -472 q 330 -472 287 -457 q 244 -443 213 -414 q 182 -385 166 -343 q 149 -301 149 -245 l 149 -245 l 149 -227 q 149 -168 156 -137 q 163 -107 177 -96 q 190 -86 205 -86 l 205 -86 q 218 -86 228 -93 q 237 -101 242 -118 q 246 -136 246 -167 l 246 -167 q 246 -213 236 -231 q 226 -250 198 -250 l 198 -250 q 173 -250 148 -231 q 123 -213 97 -174 l 97 -174 l 72 -258 q 93 -289 135 -316 q 177 -344 231 -344 l 231 -344 q 276 -344 307 -323 q 337 -303 353 -265 q 368 -227 368 -174 l 368 -174 q 368 -112 349 -71 q 330 -30 296 -9 q 261 12 211 12 l 211 12 q 162 12 122 -13 q 82 -38 58 -91 q 34 -144 34 -228 l 34 -228 q 34 -312 59 -376 q 84 -441 131 -485 q 177 -529 244 -551 q 310 -574 392 -574 z"},"ഓ":{"ha":1107,"x_min":34,"x_max":1070,"o":"m 392 -574 l 392 -574 q 475 -574 526 -551 q 577 -529 600 -491 q 623 -453 623 -406 l 623 -406 q 623 -376 614 -351 q 604 -326 585 -308 q 566 -290 535 -276 l 535 -276 l 536 -283 q 579 -267 605 -230 q 630 -194 630 -144 l 630 -144 q 630 -71 591 -29 q 551 12 467 12 l 467 12 q 439 12 415 8 q 391 4 374 0 l 374 0 l 390 -96 q 402 -92 415 -90 q 427 -88 444 -88 l 444 -88 q 478 -88 491 -105 q 503 -122 503 -153 l 503 -153 q 503 -170 498 -184 q 492 -199 480 -209 l 480 -209 q 470 -219 452 -225 q 434 -231 404 -231 l 404 -231 l 397 -231 l 397 -329 l 401 -329 q 436 -329 450 -334 q 464 -339 475 -348 l 475 -348 q 485 -357 490 -369 q 495 -381 495 -395 l 495 -395 q 495 -433 468 -452 q 440 -472 384 -472 l 384 -472 q 330 -472 287 -457 q 244 -443 213 -414 q 182 -385 166 -343 q 149 -301 149 -245 l 149 -245 l 149 -227 q 149 -168 156 -137 q 163 -107 177 -96 q 190 -86 205 -86 l 205 -86 q 218 -86 228 -93 q 237 -101 242 -118 q 246 -136 246 -167 l 246 -167 q 246 -213 236 -231 q 226 -250 198 -250 l 198 -250 q 173 -250 148 -231 q 123 -213 97 -174 l 97 -174 l 72 -258 q 93 -289 135 -316 q 177 -344 231 -344 l 231 -344 q 276 -344 307 -323 q 337 -303 353 -265 q 368 -227 368 -174 l 368 -174 q 368 -112 349 -71 q 330 -30 296 -9 q 261 12 211 12 l 211 12 q 162 12 122 -13 q 82 -38 58 -91 q 34 -144 34 -228 l 34 -228 q 34 -312 59 -376 q 84 -441 131 -485 q 177 -529 244 -551 q 310 -574 392 -574 z m 1070 -283 l 1070 -283 q 1070 -213 1060 -158 q 1050 -103 1027 -65 q 1003 -28 965 -8 q 927 12 870 12 l 870 12 q 817 12 781 -5 q 745 -22 723 -49 q 701 -77 689 -112 q 677 -147 671 -183 l 671 -183 l 798 -206 q 803 -178 811 -150 q 819 -123 833 -105 q 847 -87 871 -87 l 871 -87 q 896 -87 911 -108 q 926 -130 933 -174 q 939 -218 939 -285 l 939 -285 q 939 -348 933 -390 q 926 -432 911 -453 q 896 -475 872 -475 l 872 -475 q 851 -475 837 -459 q 823 -444 814 -417 q 805 -391 800 -357 l 800 -357 l 674 -381 q 683 -417 697 -451 q 710 -486 733 -514 q 756 -542 791 -558 q 826 -574 878 -574 l 878 -574 q 933 -574 970 -553 q 1007 -533 1029 -495 q 1051 -457 1061 -403 q 1070 -349 1070 -283 z"},"ഔ":{"ha":1298,"x_min":34,"x_max":1264,"o":"m 392 -574 l 392 -574 q 475 -574 526 -551 q 577 -529 600 -491 q 623 -453 623 -406 l 623 -406 q 623 -376 614 -351 q 604 -326 585 -308 q 566 -290 535 -276 l 535 -276 l 536 -283 q 579 -267 605 -230 q 630 -194 630 -144 l 630 -144 q 630 -71 591 -29 q 551 12 467 12 l 467 12 q 439 12 415 8 q 391 4 374 0 l 374 0 l 390 -96 q 402 -92 415 -90 q 427 -88 444 -88 l 444 -88 q 478 -88 491 -105 q 503 -122 503 -153 l 503 -153 q 503 -170 498 -184 q 492 -199 480 -209 l 480 -209 q 470 -219 452 -225 q 434 -231 404 -231 l 404 -231 l 397 -231 l 397 -329 l 401 -329 q 436 -329 450 -334 q 464 -339 475 -348 l 475 -348 q 485 -357 490 -369 q 495 -381 495 -395 l 495 -395 q 495 -433 468 -452 q 440 -472 384 -472 l 384 -472 q 330 -472 287 -457 q 244 -443 213 -414 q 182 -385 166 -343 q 149 -301 149 -245 l 149 -245 l 149 -227 q 149 -168 156 -137 q 163 -107 177 -96 q 190 -86 205 -86 l 205 -86 q 218 -86 228 -93 q 237 -101 242 -118 q 246 -136 246 -167 l 246 -167 q 246 -213 236 -231 q 226 -250 198 -250 l 198 -250 q 173 -250 148 -231 q 123 -213 97 -174 l 97 -174 l 72 -258 q 93 -289 135 -316 q 177 -344 231 -344 l 231 -344 q 276 -344 307 -323 q 337 -303 353 -265 q 368 -227 368 -174 l 368 -174 q 368 -112 349 -71 q 330 -30 296 -9 q 261 12 211 12 l 211 12 q 162 12 122 -13 q 82 -38 58 -91 q 34 -144 34 -228 l 34 -228 q 34 -312 59 -376 q 84 -441 131 -485 q 177 -529 244 -551 q 310 -574 392 -574 z m 1085 -574 l 1085 -574 q 1143 -574 1183 -542 q 1222 -510 1243 -452 q 1264 -394 1264 -313 l 1264 -313 q 1264 -204 1235 -131 q 1206 -59 1149 -23 q 1091 12 1003 12 l 1003 12 q 953 12 909 3 q 864 -7 821 -29 l 821 -29 l 870 -123 q 896 -111 928 -101 q 959 -91 993 -91 l 993 -91 q 1046 -91 1078 -115 q 1109 -140 1123 -188 q 1136 -236 1136 -308 l 1136 -308 q 1136 -396 1119 -435 q 1101 -474 1073 -474 l 1073 -474 q 1062 -474 1056 -469 q 1049 -465 1044 -456 l 1044 -456 q 1038 -446 1036 -431 q 1033 -417 1033 -381 l 1033 -381 l 1033 -265 l 908 -265 l 908 -356 q 908 -401 906 -420 q 904 -439 900 -451 l 900 -451 q 895 -463 885 -468 q 874 -474 864 -474 l 864 -474 q 837 -474 824 -449 q 811 -424 811 -392 l 811 -392 q 811 -360 815 -333 q 819 -307 824 -287 l 824 -287 l 703 -261 q 695 -289 690 -324 q 684 -359 684 -393 l 684 -393 q 684 -440 701 -480 q 717 -521 753 -547 q 789 -574 847 -574 l 847 -574 q 892 -574 923 -559 q 953 -545 976 -514 l 976 -514 l 959 -516 q 982 -546 1011 -560 q 1040 -574 1085 -574 z"},"ക":{"ha":895,"x_min":28,"x_max":867,"o":"m 190 12 l 190 12 q 111 12 70 -33 q 28 -79 28 -159 l 28 -159 q 28 -215 52 -251 q 76 -288 117 -310 l 117 -310 q 139 -321 163 -329 q 187 -337 222 -340 q 257 -344 311 -344 l 311 -344 l 594 -344 q 673 -344 719 -333 q 764 -323 795 -301 l 795 -301 q 828 -279 848 -243 q 867 -207 867 -156 l 867 -156 q 867 -74 821 -31 q 774 12 708 12 l 708 12 q 688 12 673 9 q 657 6 637 1 l 637 1 l 658 -94 q 665 -93 672 -91 q 679 -89 690 -89 l 690 -89 q 715 -89 730 -106 q 745 -124 745 -157 l 745 -157 q 745 -179 738 -195 q 730 -212 716 -222 l 716 -222 q 700 -235 681 -240 q 661 -245 612 -245 l 612 -245 l 274 -245 q 242 -245 220 -241 q 198 -237 181 -227 l 181 -227 q 167 -216 157 -200 q 147 -185 147 -162 l 147 -162 q 147 -140 154 -123 q 160 -106 175 -97 q 190 -88 214 -88 l 214 -88 q 236 -88 255 -97 q 274 -106 296 -126 l 296 -126 l 351 -36 q 324 -15 298 -5 q 272 5 246 9 q 220 12 190 12 z m 448 -574 l 448 -574 q 522 -574 568 -539 q 614 -504 636 -438 q 658 -373 658 -283 l 658 -283 q 658 -182 633 -116 q 608 -51 561 -19 q 514 12 448 12 l 448 12 q 394 12 356 -9 q 317 -30 294 -60 l 294 -60 q 262 -103 249 -162 q 236 -221 236 -287 l 236 -287 q 236 -428 292 -501 q 348 -574 448 -574 z m 448 -474 l 448 -474 q 403 -474 382 -430 q 361 -387 361 -282 l 361 -282 q 361 -212 371 -169 q 380 -126 399 -107 q 418 -88 448 -88 l 448 -88 q 476 -88 495 -106 q 513 -125 523 -168 q 533 -211 533 -282 l 533 -282 q 533 -353 524 -395 q 514 -437 495 -455 q 476 -474 448 -474 z"},"ഖ":{"ha":859,"x_min":36,"x_max":806,"o":"m 325 -574 l 325 -574 q 391 -574 439 -553 q 486 -533 517 -495 q 548 -458 563 -409 q 578 -360 578 -302 l 578 -302 q 578 -241 565 -191 q 551 -142 529 -99 q 506 -57 478 -17 l 478 -17 l 491 0 l 450 0 l 376 -58 q 395 -87 412 -120 q 428 -153 439 -195 q 450 -238 450 -291 l 450 -291 q 450 -350 435 -390 q 419 -430 390 -451 q 360 -472 317 -472 l 317 -472 q 263 -472 226 -442 q 188 -413 170 -361 q 151 -310 151 -245 l 151 -245 l 151 -234 q 151 -171 158 -139 q 165 -107 179 -96 q 192 -86 207 -86 l 207 -86 q 220 -86 229 -94 q 238 -102 243 -119 q 248 -137 248 -166 l 248 -166 q 248 -212 238 -231 q 227 -250 199 -250 l 199 -250 q 174 -250 150 -231 q 125 -213 99 -174 l 99 -174 l 74 -258 q 94 -289 136 -316 q 178 -344 233 -344 l 233 -344 q 278 -344 308 -323 q 338 -303 354 -265 q 369 -227 369 -174 l 369 -174 q 369 -112 351 -71 q 332 -30 298 -9 q 264 12 214 12 l 214 12 q 166 12 126 -13 q 85 -38 61 -94 q 36 -151 36 -248 l 36 -248 q 36 -352 73 -424 q 109 -497 175 -535 q 241 -574 325 -574 z m 679 -562 l 806 -562 l 806 0 l 469 0 l 514 -100 l 679 -100 l 679 -562 z"},"ഗ":{"ha":753,"x_min":34,"x_max":719,"o":"m 502 -574 l 502 -574 q 572 -574 621 -542 q 669 -511 694 -452 q 719 -393 719 -309 l 719 -309 q 719 -241 706 -183 q 693 -125 671 -76 q 649 -28 621 13 l 621 13 l 518 -49 q 541 -88 558 -128 q 574 -168 582 -211 q 590 -254 590 -303 l 590 -303 q 590 -362 579 -399 q 567 -437 548 -454 q 528 -472 504 -472 l 504 -472 q 487 -472 475 -466 q 462 -460 454 -446 l 454 -446 q 447 -433 444 -412 q 440 -392 440 -350 l 440 -350 l 440 -215 q 440 -178 436 -146 q 431 -114 422 -88 q 412 -63 394 -42 l 394 -42 q 369 -16 334 -2 q 298 12 251 12 l 251 12 q 181 12 133 -20 q 85 -53 60 -112 q 34 -172 34 -254 l 34 -254 q 34 -324 47 -382 q 60 -440 83 -487 q 105 -535 133 -576 l 133 -576 l 234 -514 q 212 -476 196 -436 q 180 -396 171 -352 q 162 -309 162 -260 l 162 -260 q 162 -198 174 -161 q 185 -124 204 -107 q 223 -90 246 -90 l 246 -90 q 264 -90 277 -96 q 290 -103 298 -116 l 298 -116 q 305 -129 309 -148 q 312 -167 312 -211 l 312 -211 l 312 -339 q 312 -405 325 -449 q 338 -493 368 -524 l 368 -524 q 390 -546 422 -560 q 453 -574 502 -574 z"},"ഘ":{"ha":1128,"x_min":28,"x_max":1074,"o":"m 212 -574 l 212 -574 q 276 -574 316 -548 q 356 -523 374 -481 q 392 -440 392 -396 l 392 -396 q 392 -359 381 -331 q 369 -303 361 -284 l 361 -284 l 350 -315 l 538 -315 l 552 -214 l 286 -214 l 243 -274 q 251 -290 260 -318 q 268 -347 268 -386 l 268 -386 q 268 -425 255 -450 q 242 -475 213 -475 l 213 -475 q 193 -475 180 -463 q 167 -452 161 -433 q 155 -414 155 -390 l 155 -390 q 155 -338 169 -308 q 182 -279 194 -250 l 194 -250 l 87 -202 q 59 -247 44 -291 q 28 -335 28 -393 l 28 -393 q 28 -448 51 -488 q 73 -529 115 -551 q 156 -574 212 -574 z m 947 -562 l 1074 -562 l 1074 0 l 452 0 l 452 -315 q 452 -393 465 -436 q 477 -479 499 -508 l 499 -508 q 522 -539 562 -556 q 602 -574 658 -574 l 658 -574 q 712 -574 752 -556 q 792 -539 816 -508 l 816 -508 q 844 -471 854 -427 q 864 -384 864 -315 l 864 -315 l 864 -214 l 578 -214 l 578 -100 l 947 -100 l 947 -562 z m 658 -474 l 658 -474 q 612 -474 595 -436 q 578 -399 578 -333 l 578 -333 l 578 -315 l 738 -315 l 738 -332 q 738 -400 720 -437 q 701 -474 658 -474 z"},"ങ":{"ha":897,"x_min":35,"x_max":867,"o":"m 314 -574 l 314 -574 q 381 -574 426 -550 q 471 -527 506 -477 l 506 -477 l 531 -396 l 550 -239 l 550 0 l 423 0 l 423 -293 q 423 -365 415 -396 q 406 -428 391 -444 l 391 -444 q 379 -457 362 -465 q 344 -473 314 -473 l 314 -473 q 268 -473 232 -449 q 195 -425 173 -373 q 150 -322 150 -242 l 150 -242 l 150 -231 q 150 -171 158 -139 q 165 -108 178 -97 q 191 -86 206 -86 l 206 -86 q 219 -86 229 -94 q 238 -102 243 -119 q 247 -137 247 -167 l 247 -167 q 247 -212 237 -231 q 227 -250 200 -250 l 200 -250 q 176 -250 153 -233 q 130 -217 105 -180 l 105 -180 l 87 -272 q 107 -297 147 -320 q 186 -344 234 -344 l 234 -344 q 278 -344 309 -323 q 339 -303 354 -265 q 369 -227 369 -174 l 369 -174 q 369 -112 350 -71 q 331 -30 296 -9 q 261 12 211 12 l 211 12 q 165 12 125 -12 q 85 -37 60 -93 q 35 -149 35 -243 l 35 -243 q 35 -355 71 -428 q 107 -502 171 -538 q 234 -574 314 -574 z m 674 -574 l 674 -574 q 734 -574 776 -553 q 817 -532 839 -495 q 860 -459 860 -414 l 860 -414 q 860 -380 852 -355 q 843 -330 824 -310 q 804 -291 774 -276 l 774 -276 l 776 -283 q 817 -267 842 -231 q 867 -195 867 -144 l 867 -144 q 867 -69 827 -28 q 787 12 704 12 l 704 12 q 678 12 656 9 q 633 6 617 2 l 617 2 l 634 -94 q 646 -91 657 -89 q 667 -88 680 -88 l 680 -88 q 712 -88 726 -103 q 739 -118 739 -153 l 739 -153 q 739 -170 734 -184 q 728 -199 717 -209 l 717 -209 q 707 -219 690 -225 q 672 -231 646 -231 l 646 -231 l 633 -231 l 633 -329 l 645 -329 q 668 -329 685 -334 q 702 -339 711 -350 l 711 -350 q 722 -359 727 -372 q 732 -386 732 -404 l 732 -404 q 732 -439 715 -456 q 698 -474 669 -474 l 669 -474 q 643 -474 625 -468 q 607 -463 593 -449 l 593 -449 q 578 -434 568 -414 q 558 -394 554 -364 q 550 -334 550 -291 l 550 -291 l 550 -211 l 450 -224 l 440 -310 l 448 -416 q 464 -461 493 -496 q 522 -532 567 -553 q 611 -574 674 -574 z"},"ച":{"ha":776,"x_min":19,"x_max":722,"o":"m 596 -562 l 722 -562 l 722 0 l 19 0 l 19 -100 l 350 -100 l 288 -85 q 307 -101 323 -134 q 339 -168 339 -210 l 339 -210 q 339 -248 328 -267 q 316 -287 292 -287 l 292 -287 q 264 -287 251 -266 q 238 -246 238 -213 l 238 -213 q 238 -199 239 -188 q 240 -177 241 -169 l 241 -169 l 120 -159 q 118 -170 116 -185 q 113 -200 113 -220 l 113 -220 q 113 -296 159 -341 q 204 -386 290 -386 l 290 -386 q 342 -386 376 -370 q 410 -354 430 -329 q 449 -304 456 -273 q 463 -242 463 -214 l 463 -214 q 463 -186 458 -163 q 452 -141 442 -121 q 432 -101 419 -82 l 419 -82 l 400 -100 l 596 -100 l 596 -562 z"},"ഛ":{"ha":1131,"x_min":19,"x_max":1096,"o":"m 290 -386 l 290 -386 q 342 -386 376 -370 q 410 -354 430 -329 q 449 -304 456 -273 q 463 -242 463 -214 l 463 -214 q 463 -186 458 -163 q 452 -141 442 -121 q 432 -101 419 -82 l 419 -82 l 400 -100 l 607 -100 l 646 0 l 19 0 l 19 -100 l 350 -100 l 288 -85 q 307 -101 323 -134 q 339 -168 339 -210 l 339 -210 q 339 -248 328 -267 q 316 -287 292 -287 l 292 -287 q 264 -287 251 -266 q 238 -246 238 -213 l 238 -213 q 238 -199 239 -188 q 240 -177 241 -169 l 241 -169 l 120 -159 q 118 -170 116 -185 q 113 -200 113 -220 l 113 -220 q 113 -296 159 -341 q 204 -386 290 -386 z m 801 -574 l 801 -574 q 875 -574 931 -548 q 986 -523 1023 -477 q 1059 -432 1078 -370 q 1096 -308 1096 -236 l 1096 -236 q 1096 -145 1075 -90 q 1053 -35 1012 -11 q 970 12 910 12 l 910 12 q 849 12 812 -16 q 775 -45 758 -94 q 741 -144 741 -206 l 741 -206 q 741 -302 780 -354 q 818 -407 893 -407 l 893 -407 q 934 -407 964 -384 q 993 -362 1014 -323 q 1035 -285 1047 -238 l 1047 -238 l 998 -231 q 993 -251 983 -269 q 973 -288 959 -300 q 944 -313 924 -313 l 924 -313 q 893 -313 879 -285 q 865 -258 865 -200 l 865 -200 q 865 -163 871 -137 q 876 -112 888 -99 q 900 -86 918 -86 l 918 -86 q 934 -86 947 -99 q 959 -113 965 -145 q 971 -177 971 -232 l 971 -232 q 971 -251 970 -270 q 969 -290 967 -307 l 967 -307 q 966 -312 965 -319 q 964 -327 962 -331 l 962 -331 q 957 -367 938 -399 q 918 -432 886 -452 q 854 -472 812 -472 l 812 -472 q 756 -472 721 -449 q 686 -426 670 -384 q 653 -343 653 -289 l 653 -289 q 653 -245 662 -204 q 671 -163 688 -126 q 704 -90 725 -58 l 725 -58 l 670 0 l 635 0 l 627 -26 q 602 -61 578 -101 q 554 -141 539 -191 q 524 -241 524 -305 l 524 -305 q 524 -361 541 -410 q 558 -459 594 -495 q 629 -532 681 -553 q 732 -574 801 -574 z"},"ജ":{"ha":781,"x_min":28,"x_max":746,"o":"m 257 -574 l 257 -574 q 304 -574 337 -564 q 370 -554 395 -537 q 420 -520 440 -499 l 440 -499 l 402 -500 q 435 -543 474 -558 q 513 -574 555 -574 l 555 -574 q 625 -574 667 -544 q 708 -515 727 -467 q 746 -420 746 -366 l 746 -366 q 746 -324 735 -290 q 723 -257 702 -232 q 680 -208 648 -190 l 648 -190 l 513 -163 l 432 -156 q 411 -151 375 -150 q 339 -149 304 -149 l 304 -149 l 234 -149 q 196 -149 181 -145 q 165 -142 156 -134 l 156 -134 q 154 -129 151 -123 q 148 -118 148 -111 l 148 -111 q 148 -103 151 -95 q 154 -87 164 -82 q 173 -77 191 -77 l 191 -77 q 212 -77 227 -79 q 241 -82 263 -91 q 284 -100 323 -118 l 323 -118 q 352 -130 380 -139 q 408 -149 432 -157 q 456 -165 476 -171 q 496 -177 506 -180 l 506 -180 q 524 -186 537 -194 q 549 -203 558 -211 q 567 -220 578 -226 q 588 -232 601 -232 l 601 -232 q 631 -232 659 -220 q 687 -209 706 -182 q 725 -156 725 -111 l 725 -111 q 725 -53 690 -20 q 655 12 587 12 l 587 12 q 537 12 507 -7 q 477 -26 464 -55 q 450 -84 450 -116 l 450 -116 q 450 -157 467 -185 q 483 -213 496 -227 l 496 -227 l 604 -214 q 596 -206 584 -192 q 571 -178 561 -161 q 551 -144 551 -118 l 551 -118 q 551 -92 559 -80 q 566 -68 583 -68 l 583 -68 q 603 -68 612 -80 q 620 -92 620 -113 l 620 -113 q 620 -128 617 -138 q 613 -148 606 -154 q 598 -160 585 -160 l 585 -160 q 570 -160 558 -151 q 546 -143 528 -125 l 528 -125 l 517 -142 q 507 -129 486 -112 q 465 -95 438 -77 q 410 -59 375 -43 l 375 -43 q 333 -23 305 -10 q 276 2 248 7 q 220 12 181 12 l 181 12 q 136 12 101 0 q 66 -12 47 -38 q 28 -64 28 -107 l 28 -107 q 28 -144 44 -170 q 59 -196 88 -212 l 88 -212 q 109 -222 138 -228 q 166 -234 226 -234 l 226 -234 l 428 -234 q 464 -234 491 -236 q 518 -238 539 -243 q 560 -249 574 -257 l 574 -257 q 599 -272 613 -298 q 626 -325 626 -365 l 626 -365 q 626 -398 617 -423 q 608 -448 590 -462 q 572 -477 544 -477 l 544 -477 q 531 -477 523 -472 q 514 -468 507 -464 l 507 -464 q 488 -448 484 -420 q 480 -392 480 -352 l 480 -352 l 480 -263 l 365 -263 l 365 -320 q 365 -369 361 -399 q 356 -430 337 -454 l 337 -454 q 326 -469 304 -478 q 282 -488 251 -488 l 251 -488 q 235 -488 203 -481 q 171 -475 155 -456 l 155 -456 q 153 -453 151 -445 q 149 -438 148 -435 l 148 -435 q 142 -427 139 -413 q 136 -400 136 -383 l 136 -383 q 136 -348 146 -335 q 156 -322 171 -322 l 171 -322 q 182 -322 190 -328 q 197 -335 201 -347 q 204 -359 204 -375 l 204 -375 q 204 -401 194 -413 q 184 -426 166 -426 l 166 -426 q 156 -426 145 -422 q 134 -418 125 -415 l 125 -415 l 69 -431 q 88 -458 128 -468 q 167 -479 204 -479 l 204 -479 q 232 -479 255 -467 q 278 -455 292 -431 q 306 -407 306 -368 l 306 -368 q 306 -334 293 -305 q 279 -277 250 -260 q 221 -244 173 -244 l 173 -244 q 111 -244 74 -281 q 36 -319 36 -386 l 36 -386 q 36 -441 61 -483 q 85 -526 135 -550 q 184 -574 257 -574 z"},"ഝ":{"ha":1399,"x_min":34,"x_max":1365,"o":"m 579 -574 l 579 -574 q 632 -574 676 -560 q 719 -546 750 -518 l 750 -518 q 788 -484 805 -431 q 821 -379 821 -288 l 821 -288 l 821 -193 q 821 -180 824 -158 q 826 -136 835 -121 l 835 -121 q 843 -106 858 -98 q 872 -90 889 -90 l 889 -90 q 904 -90 916 -95 q 928 -101 935 -110 l 935 -110 q 947 -125 953 -149 q 958 -174 958 -216 l 958 -216 l 958 -563 l 1085 -563 l 1085 -231 q 1085 -173 1089 -145 q 1093 -118 1109 -102 l 1109 -102 q 1117 -95 1129 -92 q 1141 -89 1147 -89 l 1147 -89 q 1172 -89 1193 -108 q 1213 -127 1225 -165 q 1236 -204 1236 -263 l 1236 -263 q 1236 -306 1228 -348 q 1220 -391 1204 -432 q 1188 -473 1164 -512 l 1164 -512 l 1266 -574 q 1297 -532 1319 -483 q 1341 -435 1353 -378 q 1365 -321 1365 -254 l 1365 -254 q 1365 -176 1341 -116 q 1316 -56 1271 -22 q 1226 11 1162 11 l 1162 11 q 1117 11 1080 -4 q 1042 -20 1009 -62 l 1009 -62 l 1029 -64 q 1015 -47 998 -29 q 980 -12 954 0 q 928 11 889 11 l 889 11 q 834 11 799 -4 q 764 -20 742 -45 l 742 -45 q 725 -66 715 -90 q 704 -115 699 -146 q 694 -178 694 -215 l 694 -215 l 694 -291 q 694 -331 690 -360 q 686 -389 677 -409 q 668 -430 655 -443 l 655 -443 q 641 -458 621 -467 q 601 -477 568 -477 l 568 -477 q 546 -477 532 -473 q 517 -470 504 -465 l 504 -465 l 498 -464 q 459 -446 433 -408 q 407 -370 395 -321 q 382 -273 382 -222 l 382 -222 q 382 -167 390 -138 q 397 -109 410 -98 q 423 -88 439 -88 l 439 -88 q 455 -88 469 -98 q 482 -109 490 -137 q 497 -165 497 -217 l 497 -217 q 497 -273 485 -321 q 472 -369 449 -404 q 426 -439 393 -459 l 393 -459 l 377 -466 q 365 -472 349 -474 q 333 -477 321 -477 l 321 -477 q 267 -477 232 -453 q 197 -429 181 -387 q 164 -345 164 -290 l 164 -290 q 164 -240 174 -199 q 183 -158 200 -122 q 217 -87 241 -52 l 241 -52 l 146 12 q 113 -27 88 -71 q 63 -115 49 -169 q 34 -224 34 -294 l 34 -294 q 34 -343 47 -392 q 60 -442 91 -483 q 121 -524 174 -549 q 227 -574 308 -574 l 308 -574 q 354 -574 389 -563 q 423 -552 453 -531 l 453 -531 l 468 -520 q 542 -473 583 -399 q 624 -325 624 -222 l 624 -222 q 624 -143 603 -91 q 581 -39 540 -13 q 498 12 438 12 l 438 12 q 379 12 339 -15 q 298 -43 277 -95 q 255 -147 255 -222 l 255 -222 q 255 -285 273 -339 q 290 -394 325 -438 q 359 -482 412 -516 l 412 -516 l 436 -533 q 468 -554 505 -564 q 541 -574 579 -574 z"},"ഞ":{"ha":1246,"x_min":35,"x_max":1212,"o":"m 314 -574 l 314 -574 q 381 -574 427 -550 q 472 -526 507 -477 l 507 -477 l 488 -445 l 550 -201 l 550 0 l 423 0 l 423 -293 q 423 -364 415 -396 q 406 -428 391 -444 l 391 -444 q 379 -457 361 -465 q 343 -473 314 -473 l 314 -473 q 268 -473 232 -449 q 195 -425 173 -373 q 150 -322 150 -242 l 150 -242 l 150 -231 q 150 -171 158 -139 q 165 -107 178 -96 q 191 -86 206 -86 l 206 -86 q 219 -86 229 -94 q 238 -102 243 -119 q 247 -137 247 -167 l 247 -167 q 247 -212 237 -231 q 227 -250 200 -250 l 200 -250 q 176 -250 153 -233 q 130 -217 105 -180 l 105 -180 l 87 -272 q 107 -297 147 -320 q 186 -344 234 -344 l 234 -344 q 278 -344 309 -323 q 339 -303 354 -265 q 369 -227 369 -174 l 369 -174 q 369 -112 350 -71 q 331 -30 296 -9 q 261 12 211 12 l 211 12 q 165 12 125 -12 q 85 -37 60 -93 q 35 -149 35 -243 l 35 -243 q 35 -355 71 -428 q 107 -502 171 -538 q 234 -574 314 -574 z m 683 -574 l 683 -574 q 713 -574 749 -563 q 785 -553 816 -532 l 816 -532 l 831 -520 q 907 -473 949 -398 q 990 -324 990 -222 l 990 -222 q 990 -143 968 -91 q 946 -39 905 -13 q 863 12 804 12 l 804 12 q 744 12 704 -15 q 663 -43 642 -95 q 621 -147 621 -222 l 621 -222 q 621 -286 639 -339 q 656 -393 691 -436 q 726 -480 779 -515 l 779 -515 l 804 -531 q 830 -550 867 -562 q 903 -574 952 -574 l 952 -574 q 1025 -574 1076 -550 q 1126 -526 1156 -484 q 1186 -443 1199 -392 q 1212 -341 1212 -287 l 1212 -287 q 1212 -221 1198 -167 q 1183 -113 1157 -70 q 1131 -27 1098 12 l 1098 12 l 1005 -52 q 1025 -83 1043 -116 q 1060 -150 1071 -191 q 1082 -233 1082 -283 l 1082 -283 q 1082 -342 1066 -384 q 1050 -427 1019 -452 q 988 -477 943 -477 l 943 -477 q 919 -477 903 -474 q 886 -471 872 -466 l 872 -466 l 866 -464 q 823 -444 797 -405 q 771 -366 760 -318 q 748 -270 748 -222 l 748 -222 q 748 -167 755 -138 q 762 -109 775 -98 q 788 -88 805 -88 l 805 -88 q 821 -88 835 -98 q 848 -109 856 -137 q 863 -165 863 -217 l 863 -217 q 863 -273 850 -321 q 837 -369 813 -404 q 788 -440 756 -460 l 756 -460 l 741 -466 q 733 -470 726 -472 q 719 -475 709 -476 q 699 -477 680 -477 l 680 -477 q 651 -477 631 -468 q 611 -459 598 -449 l 598 -449 q 569 -425 560 -388 q 550 -351 550 -285 l 550 -285 l 550 -32 l 435 -32 l 435 -296 l 471 -472 q 493 -501 523 -524 q 552 -548 591 -561 q 630 -574 683 -574 z"},"ട":{"ha":468,"x_min":9,"x_max":453,"o":"m 243 -574 l 243 -574 q 301 -574 352 -563 q 403 -552 453 -530 l 453 -530 l 399 -439 q 360 -457 326 -464 q 291 -471 247 -471 l 247 -471 q 211 -471 190 -461 q 168 -451 159 -435 q 149 -420 149 -403 l 149 -403 q 149 -386 153 -375 q 156 -364 165 -355 l 165 -355 q 178 -344 194 -340 q 210 -336 234 -336 l 234 -336 l 252 -336 q 302 -336 342 -322 q 381 -308 406 -280 l 406 -280 q 426 -260 437 -232 q 447 -205 447 -169 l 447 -169 q 447 -118 422 -76 q 397 -35 347 -11 q 296 12 219 12 l 219 12 q 164 12 109 1 q 54 -11 9 -33 l 9 -33 l 62 -125 q 86 -114 109 -106 q 132 -99 159 -95 q 185 -91 216 -91 l 216 -91 q 253 -91 276 -101 q 299 -111 309 -127 q 319 -144 319 -164 l 319 -164 q 319 -181 314 -195 q 308 -210 293 -219 l 293 -219 q 282 -226 270 -230 q 258 -234 230 -234 l 230 -234 l 225 -234 q 169 -234 125 -249 q 80 -264 56 -292 l 56 -292 q 40 -311 31 -338 q 21 -365 21 -397 l 21 -397 q 21 -447 47 -487 q 72 -527 122 -550 q 171 -574 243 -574 z"},"ഠ":{"ha":562,"x_min":33,"x_max":528,"o":"m 281 -574 l 281 -574 q 358 -574 414 -540 q 469 -506 499 -440 q 528 -375 528 -280 l 528 -280 q 528 -187 499 -121 q 469 -56 414 -22 q 358 12 280 12 l 280 12 q 199 12 144 -23 q 89 -59 61 -125 q 33 -192 33 -281 l 33 -281 q 33 -376 63 -441 q 93 -506 149 -540 q 204 -574 281 -574 z m 280 -90 l 280 -90 q 318 -90 344 -112 q 370 -134 384 -176 q 397 -219 397 -281 l 397 -281 q 397 -343 384 -385 q 370 -428 345 -450 q 319 -472 281 -472 l 281 -472 q 226 -472 196 -425 q 165 -379 165 -281 l 165 -281 q 165 -187 195 -138 q 224 -90 280 -90 z"},"ഡ":{"ha":1019,"x_min":34,"x_max":985,"o":"m 507 12 l 507 12 q 456 12 422 -3 q 387 -18 363 -44 l 363 -44 q 345 -64 334 -88 q 323 -112 318 -143 q 312 -175 312 -215 l 312 -215 l 312 -339 q 312 -392 309 -412 q 305 -432 298 -446 l 298 -446 q 290 -460 277 -466 q 264 -472 246 -472 l 246 -472 q 223 -472 204 -455 q 185 -439 174 -401 q 162 -364 162 -302 l 162 -302 q 162 -253 171 -209 q 180 -166 196 -126 q 212 -87 235 -48 l 235 -48 l 133 14 q 105 -27 83 -75 q 60 -123 47 -180 q 34 -238 34 -307 l 34 -307 q 34 -389 60 -448 q 85 -508 134 -541 q 183 -574 254 -574 l 254 -574 q 298 -574 334 -560 q 369 -547 392 -521 l 392 -521 q 411 -500 421 -473 q 430 -447 435 -416 q 439 -385 439 -350 l 439 -350 l 439 -216 q 439 -174 442 -154 q 444 -134 452 -119 l 452 -119 q 460 -104 475 -97 q 489 -90 508 -90 l 508 -90 q 522 -90 536 -96 q 550 -102 556 -110 l 556 -110 q 569 -126 574 -149 q 579 -173 579 -215 l 579 -215 l 579 -562 l 705 -562 l 705 -231 q 705 -171 709 -144 q 713 -117 729 -101 l 729 -101 q 738 -94 750 -91 q 762 -89 767 -89 l 767 -89 q 793 -89 814 -108 q 834 -127 846 -165 q 857 -204 857 -262 l 857 -262 q 857 -305 849 -347 q 841 -390 825 -431 q 809 -473 784 -512 l 784 -512 l 886 -574 q 917 -531 939 -482 q 961 -433 973 -376 q 985 -320 985 -253 l 985 -253 q 985 -175 961 -114 q 937 -54 892 -21 q 847 12 783 12 l 783 12 q 738 12 701 -3 q 664 -19 630 -61 l 630 -61 l 651 -64 q 624 -32 594 -10 q 564 12 507 12 z"},"ഢ":{"ha":1128,"x_min":34,"x_max":1093,"o":"m 507 11 l 507 11 q 456 11 422 -3 q 387 -18 363 -44 l 363 -44 q 345 -65 334 -89 q 323 -113 318 -144 q 312 -176 312 -216 l 312 -216 l 312 -339 q 312 -392 309 -412 q 305 -433 298 -446 l 298 -446 q 290 -461 277 -467 q 264 -473 246 -473 l 246 -473 q 223 -473 204 -456 q 185 -439 174 -402 q 162 -365 162 -304 l 162 -304 q 162 -255 171 -211 q 179 -167 195 -127 q 211 -88 235 -48 l 235 -48 l 133 13 q 106 -28 83 -76 q 60 -124 47 -181 q 34 -239 34 -309 l 34 -309 q 34 -390 60 -449 q 85 -509 134 -542 q 183 -575 254 -575 l 254 -575 q 298 -575 334 -561 q 369 -547 392 -521 l 392 -521 q 411 -501 421 -474 q 430 -448 435 -417 q 439 -386 439 -350 l 439 -350 l 439 -218 q 439 -175 442 -155 q 444 -135 452 -120 l 452 -120 q 460 -104 475 -97 q 489 -90 508 -90 l 508 -90 q 522 -90 536 -96 q 549 -102 556 -111 l 556 -111 q 569 -126 574 -149 q 579 -173 579 -216 l 579 -216 l 579 -563 l 705 -563 l 705 -328 l 651 -64 q 626 -33 595 -11 q 564 11 507 11 z m 915 -574 l 915 -574 q 963 -574 1003 -550 q 1043 -526 1068 -470 q 1093 -414 1093 -320 l 1093 -320 q 1093 -209 1057 -135 q 1021 -61 958 -24 q 895 12 815 12 l 815 12 q 748 12 702 -12 q 656 -37 619 -87 l 619 -87 l 603 -228 l 603 -496 l 705 -496 l 705 -269 q 705 -200 714 -167 q 722 -134 738 -118 l 738 -118 q 750 -106 768 -97 q 786 -89 814 -89 l 814 -89 q 861 -89 898 -113 q 935 -138 957 -189 q 978 -240 978 -320 l 978 -320 l 978 -333 q 978 -391 971 -421 q 964 -452 951 -464 q 938 -476 921 -476 l 921 -476 q 909 -476 900 -467 q 890 -459 886 -441 q 881 -424 881 -395 l 881 -395 q 881 -352 891 -332 q 901 -312 927 -312 l 927 -312 q 951 -312 975 -329 q 998 -346 1023 -382 l 1023 -382 l 1041 -290 q 1021 -266 981 -242 q 940 -218 894 -218 l 894 -218 q 850 -218 820 -238 q 789 -259 774 -297 q 759 -335 759 -386 l 759 -386 q 759 -449 778 -490 q 797 -532 832 -553 q 867 -574 915 -574 z"},"ണ":{"ha":1132,"x_min":35,"x_max":1098,"o":"m 314 -574 l 314 -574 q 381 -574 426 -550 q 471 -526 508 -475 l 508 -475 l 470 -490 q 499 -534 539 -554 q 578 -574 620 -574 l 620 -574 q 669 -574 703 -555 q 736 -536 763 -502 l 763 -502 l 745 -503 q 775 -541 811 -557 q 846 -574 893 -574 l 893 -574 q 958 -574 1004 -540 q 1050 -507 1074 -448 q 1098 -389 1098 -309 l 1098 -309 q 1098 -240 1085 -181 q 1071 -123 1050 -75 q 1028 -27 1001 13 l 1001 13 l 897 -50 q 920 -89 937 -129 q 953 -170 962 -212 q 970 -255 970 -300 l 970 -300 q 970 -361 958 -399 q 946 -437 925 -455 q 904 -473 879 -473 l 879 -473 q 874 -473 863 -469 q 852 -466 842 -459 l 842 -459 q 826 -444 822 -416 q 818 -389 818 -332 l 818 -332 l 818 0 l 691 0 l 691 -339 q 691 -389 688 -412 q 684 -436 671 -451 l 671 -451 q 664 -462 652 -467 q 640 -473 620 -473 l 620 -473 q 604 -473 592 -467 q 580 -461 570 -451 l 570 -451 q 557 -434 554 -411 q 550 -389 550 -335 l 550 -335 l 550 0 l 423 0 l 423 -295 q 423 -364 415 -396 q 406 -428 391 -444 l 391 -444 q 379 -457 363 -465 q 346 -473 314 -473 l 314 -473 q 268 -473 232 -449 q 195 -425 173 -373 q 150 -322 150 -242 l 150 -242 l 150 -231 q 150 -171 158 -139 q 165 -108 178 -97 q 191 -86 206 -86 l 206 -86 q 219 -86 229 -94 q 238 -102 243 -119 q 247 -137 247 -167 l 247 -167 q 247 -212 237 -231 q 227 -250 200 -250 l 200 -250 q 176 -250 153 -233 q 130 -217 105 -180 l 105 -180 l 87 -272 q 107 -297 147 -320 q 186 -344 234 -344 l 234 -344 q 278 -344 309 -323 q 339 -303 354 -265 q 369 -228 369 -175 l 369 -175 q 369 -113 350 -71 q 331 -30 296 -9 q 261 12 211 12 l 211 12 q 165 12 125 -12 q 85 -37 60 -93 q 35 -149 35 -243 l 35 -243 q 35 -354 71 -428 q 107 -502 171 -538 q 234 -574 314 -574 z"},"ത":{"ha":880,"x_min":34,"x_max":846,"o":"m 438 12 l 438 12 q 379 12 339 -15 q 298 -43 277 -95 q 255 -147 255 -222 l 255 -222 q 255 -286 273 -339 q 290 -393 325 -436 q 360 -480 412 -515 l 412 -515 l 438 -531 q 464 -550 500 -562 q 535 -574 586 -574 l 586 -574 q 659 -574 710 -550 q 760 -526 790 -484 q 820 -443 833 -392 q 846 -341 846 -287 l 846 -287 q 846 -221 831 -167 q 816 -113 791 -70 q 765 -27 732 12 l 732 12 l 638 -52 q 659 -83 677 -116 q 694 -150 705 -191 q 716 -233 716 -283 l 716 -283 q 716 -340 701 -383 q 685 -427 654 -452 q 623 -477 577 -477 l 577 -477 q 553 -477 536 -474 q 519 -471 506 -466 l 506 -466 l 500 -464 q 458 -444 432 -405 q 406 -367 394 -318 q 382 -270 382 -222 l 382 -222 q 382 -167 390 -138 q 397 -109 410 -98 q 423 -88 439 -88 l 439 -88 q 455 -88 469 -99 q 482 -110 490 -138 q 497 -166 497 -217 l 497 -217 q 497 -273 485 -321 q 473 -369 450 -404 q 427 -439 395 -459 l 395 -459 l 378 -466 q 366 -471 350 -474 q 334 -477 321 -477 l 321 -477 q 267 -477 232 -453 q 197 -429 181 -387 q 164 -345 164 -290 l 164 -290 q 164 -240 174 -199 q 183 -158 200 -122 q 217 -87 241 -52 l 241 -52 l 146 12 q 113 -27 88 -71 q 63 -115 49 -169 q 34 -224 34 -294 l 34 -294 q 34 -343 47 -392 q 60 -442 90 -483 q 120 -524 174 -549 q 227 -574 307 -574 l 307 -574 q 353 -574 388 -563 q 423 -552 453 -532 l 453 -532 l 467 -521 q 542 -473 583 -399 q 624 -325 624 -222 l 624 -222 q 624 -143 603 -91 q 581 -39 539 -13 q 497 12 438 12 z"},"ഥ":{"ha":770,"x_min":54,"x_max":720,"o":"m 54 -562 l 181 -562 l 181 -100 l 335 -100 l 335 0 l 54 0 l 54 -562 z m 505 -574 l 505 -574 q 560 -574 597 -560 q 633 -546 657 -523 l 657 -523 q 695 -488 708 -438 q 720 -389 720 -311 l 720 -311 l 720 0 l 285 0 l 285 -302 q 285 -359 291 -399 q 296 -439 309 -468 q 322 -497 346 -521 l 346 -521 q 370 -544 408 -559 q 446 -574 505 -574 z m 503 -474 l 503 -474 q 480 -474 465 -467 q 450 -460 440 -450 l 440 -450 q 426 -431 420 -401 q 413 -372 413 -310 l 413 -310 l 413 -100 l 593 -100 l 593 -304 q 593 -371 587 -401 q 580 -431 566 -449 l 566 -449 q 556 -460 539 -467 q 521 -474 503 -474 z"},"ദ":{"ha":551,"x_min":38,"x_max":521,"o":"m 329 -574 l 329 -574 q 388 -574 430 -553 q 471 -532 493 -496 q 514 -460 514 -413 l 514 -413 q 514 -363 494 -331 q 474 -299 426 -276 l 426 -276 l 429 -283 q 470 -267 496 -231 q 521 -196 521 -143 l 521 -143 q 521 -71 480 -29 q 439 12 356 12 l 356 12 q 328 12 303 9 q 277 6 257 0 l 257 0 l 274 -96 q 288 -92 302 -90 q 316 -88 329 -88 l 329 -88 q 366 -88 380 -104 q 394 -121 394 -153 l 394 -153 q 394 -170 389 -184 q 383 -199 372 -209 l 372 -209 q 361 -219 344 -225 q 326 -231 296 -231 l 296 -231 l 277 -231 l 277 -329 l 292 -329 q 321 -329 338 -334 q 355 -339 366 -350 l 366 -350 q 376 -359 382 -373 q 387 -387 387 -404 l 387 -404 q 387 -438 371 -456 q 354 -474 322 -474 l 322 -474 q 272 -474 238 -443 q 203 -413 185 -357 q 166 -301 166 -227 l 166 -227 q 166 -172 172 -119 q 178 -66 188 -22 l 188 -22 l 67 4 q 55 -46 47 -108 q 38 -170 38 -226 l 38 -226 q 38 -337 72 -414 q 106 -491 171 -532 q 235 -574 329 -574 z"},"ധ":{"ha":762,"x_min":34,"x_max":728,"o":"m 515 12 l 515 12 q 483 12 459 4 q 435 -4 416 -19 q 396 -35 375 -57 l 375 -57 l 389 -57 q 358 -20 323 -4 q 287 12 240 12 l 240 12 q 175 12 129 -21 q 83 -55 59 -115 q 34 -175 34 -253 l 34 -253 q 34 -321 47 -379 q 59 -437 81 -486 q 103 -535 132 -575 l 132 -575 l 235 -512 q 212 -475 196 -435 q 180 -395 171 -352 q 162 -309 162 -262 l 162 -262 q 162 -202 175 -163 q 188 -125 210 -107 q 231 -89 256 -89 l 256 -89 q 269 -89 278 -92 q 286 -96 292 -100 l 292 -100 q 306 -113 312 -139 q 318 -165 318 -212 l 318 -212 l 318 -562 l 444 -562 l 444 -208 q 444 -155 450 -133 q 456 -112 468 -98 l 468 -98 q 474 -94 483 -91 q 492 -89 506 -89 l 506 -89 q 527 -89 549 -105 q 571 -122 586 -160 q 600 -198 600 -262 l 600 -262 q 600 -307 592 -350 q 584 -394 569 -435 q 553 -477 528 -513 l 528 -513 l 629 -575 q 660 -530 682 -481 q 703 -432 716 -376 q 728 -321 728 -257 l 728 -257 q 728 -179 704 -118 q 680 -58 633 -23 q 585 12 515 12 z"},"ന":{"ha":762,"x_min":34,"x_max":728,"o":"m 247 -574 l 247 -574 q 281 -574 304 -566 q 327 -558 347 -543 q 366 -529 387 -505 l 387 -505 l 373 -505 q 404 -542 440 -558 q 475 -574 522 -574 l 522 -574 q 588 -574 634 -540 q 679 -507 704 -448 q 728 -389 728 -309 l 728 -309 q 728 -241 716 -183 q 703 -125 681 -77 q 659 -29 630 13 l 630 13 l 527 -50 q 551 -89 567 -128 q 583 -168 592 -210 q 600 -252 600 -300 l 600 -300 q 600 -360 587 -398 q 574 -437 553 -455 q 532 -473 507 -473 l 507 -473 q 495 -473 486 -469 q 477 -466 470 -462 l 470 -462 q 456 -449 451 -423 q 445 -397 445 -350 l 445 -350 l 445 0 l 318 0 l 318 -354 q 318 -407 312 -428 q 306 -450 294 -464 l 294 -464 q 289 -468 280 -470 q 270 -473 257 -473 l 257 -473 q 234 -473 213 -456 q 191 -440 177 -402 q 162 -364 162 -300 l 162 -300 q 162 -255 170 -211 q 178 -168 194 -127 q 210 -86 234 -49 l 234 -49 l 133 13 q 104 -31 82 -80 q 59 -130 47 -186 q 34 -242 34 -305 l 34 -305 q 34 -382 58 -443 q 82 -504 130 -539 q 177 -574 247 -574 z"},"ഩ":{"ha":868,"x_min":35,"x_max":834,"o":"m 314 -574 l 314 -574 q 381 -574 426 -550 q 471 -526 508 -475 l 508 -475 l 469 -491 q 498 -536 539 -555 q 579 -574 626 -574 l 626 -574 q 692 -574 738 -540 q 784 -507 809 -448 q 834 -389 834 -309 l 834 -309 q 834 -239 821 -181 q 807 -123 785 -75 q 763 -28 735 13 l 735 13 l 632 -50 q 656 -89 673 -128 q 689 -168 697 -210 q 705 -252 705 -300 l 705 -300 q 705 -360 693 -398 q 680 -437 659 -455 q 637 -473 611 -473 l 611 -473 q 600 -473 591 -469 q 582 -466 575 -462 l 575 -462 q 560 -449 555 -423 q 550 -397 550 -353 l 550 -353 l 550 0 l 423 0 l 423 -293 q 423 -364 415 -396 q 406 -428 391 -444 l 391 -444 q 379 -457 362 -465 q 344 -473 314 -473 l 314 -473 q 268 -473 232 -449 q 195 -425 173 -373 q 150 -322 150 -242 l 150 -242 l 150 -231 q 150 -171 158 -139 q 165 -108 178 -97 q 191 -86 206 -86 l 206 -86 q 219 -86 229 -94 q 238 -102 243 -119 q 247 -137 247 -167 l 247 -167 q 247 -212 237 -231 q 227 -250 200 -250 l 200 -250 q 176 -250 153 -233 q 130 -217 105 -180 l 105 -180 l 87 -272 q 107 -297 147 -320 q 186 -344 234 -344 l 234 -344 q 278 -344 309 -323 q 339 -303 354 -265 q 369 -227 369 -174 l 369 -174 q 369 -112 350 -71 q 331 -30 296 -9 q 261 12 211 12 l 211 12 q 165 12 125 -12 q 85 -37 60 -93 q 35 -149 35 -243 l 35 -243 q 35 -355 71 -428 q 107 -502 171 -538 q 234 -574 314 -574 z"},"പ":{"ha":750,"x_min":28,"x_max":696,"o":"m 212 -362 l 212 -362 q 276 -362 316 -335 q 356 -309 374 -268 q 392 -227 392 -181 l 392 -181 q 392 -145 380 -117 q 368 -89 360 -70 l 360 -70 l 349 -100 l 570 -100 l 570 -562 l 696 -562 l 696 0 l 285 0 l 242 -60 q 250 -78 259 -106 q 268 -134 268 -173 l 268 -173 q 268 -212 255 -237 q 242 -263 213 -263 l 213 -263 q 192 -263 180 -252 q 167 -241 161 -221 q 155 -201 155 -176 l 155 -176 q 155 -124 169 -94 q 183 -65 195 -37 l 195 -37 l 88 12 q 60 -32 44 -76 q 28 -121 28 -179 l 28 -179 q 28 -235 51 -275 q 73 -316 115 -339 q 156 -362 212 -362 z"},"ഫ":{"ha":965,"x_min":28,"x_max":914,"o":"m 212 -362 l 212 -362 q 276 -362 316 -335 q 356 -309 374 -268 q 392 -227 392 -181 l 392 -181 q 392 -145 380 -117 q 368 -89 360 -70 l 360 -70 l 344 -100 l 541 -100 l 541 0 l 285 0 l 242 -60 q 250 -78 259 -106 q 268 -134 268 -173 l 268 -173 q 268 -212 255 -237 q 242 -263 213 -263 l 213 -263 q 192 -263 180 -252 q 167 -241 161 -221 q 155 -201 155 -176 l 155 -176 q 155 -124 169 -94 q 183 -65 195 -37 l 195 -37 l 88 12 q 60 -33 44 -77 q 28 -121 28 -179 l 28 -179 q 28 -235 51 -275 q 73 -316 115 -339 q 156 -362 212 -362 z m 699 -574 l 699 -574 q 754 -574 791 -560 q 827 -546 851 -523 l 851 -523 q 889 -488 902 -438 q 914 -389 914 -311 l 914 -311 l 914 0 l 480 0 l 480 -302 q 480 -359 486 -399 q 491 -439 504 -468 q 516 -497 540 -521 l 540 -521 q 564 -544 603 -559 q 641 -574 699 -574 z m 698 -474 l 698 -474 q 674 -474 659 -467 q 644 -460 635 -450 l 635 -450 q 620 -431 614 -401 q 607 -372 607 -310 l 607 -310 l 607 -100 l 787 -100 l 787 -304 q 787 -371 781 -401 q 774 -431 760 -449 l 760 -449 q 750 -460 733 -467 q 716 -474 698 -474 z"},"ബ":{"ha":1104,"x_min":35,"x_max":1050,"o":"m 314 -574 l 314 -574 q 381 -574 426 -550 q 471 -526 509 -475 l 509 -475 l 528 -397 l 550 -247 l 550 0 l 423 0 l 423 -293 q 423 -364 415 -396 q 406 -428 391 -444 l 391 -444 q 379 -457 362 -465 q 344 -473 314 -473 l 314 -473 q 268 -473 232 -449 q 195 -425 173 -373 q 150 -322 150 -242 l 150 -242 l 150 -231 q 150 -171 158 -139 q 165 -108 178 -97 q 191 -86 206 -86 l 206 -86 q 219 -86 229 -94 q 238 -102 243 -120 q 247 -138 247 -167 l 247 -167 q 247 -212 237 -231 q 227 -250 200 -250 l 200 -250 q 176 -250 153 -233 q 130 -217 105 -180 l 105 -180 l 87 -272 q 107 -297 147 -320 q 186 -344 234 -344 l 234 -344 q 278 -344 309 -323 q 339 -303 354 -265 q 369 -227 369 -174 l 369 -174 q 369 -112 350 -71 q 331 -30 296 -9 q 261 12 211 12 l 211 12 q 165 12 125 -12 q 85 -37 60 -93 q 35 -149 35 -243 l 35 -243 q 35 -355 71 -428 q 107 -502 171 -538 q 234 -574 314 -574 z m 923 -562 l 1050 -562 l 1050 0 l 698 0 l 638 -63 q 665 -108 679 -146 q 693 -184 698 -221 q 703 -259 703 -300 l 703 -300 q 703 -360 691 -398 q 679 -437 658 -455 q 637 -473 611 -473 l 611 -473 q 600 -473 591 -469 q 582 -466 575 -462 l 575 -462 q 560 -449 555 -423 q 550 -397 550 -353 l 550 -353 l 550 -4 l 427 -4 l 427 -239 l 463 -423 l 469 -491 q 498 -536 538 -555 q 577 -574 626 -574 l 626 -574 q 691 -574 737 -540 q 782 -507 807 -448 q 832 -389 832 -309 l 832 -309 q 832 -263 825 -222 q 818 -182 807 -147 q 795 -113 778 -83 l 778 -83 l 756 -100 l 923 -100 l 923 -562 z"},"ഭ":{"ha":585,"x_min":38,"x_max":560,"o":"m 361 -574 l 361 -574 q 421 -574 466 -556 q 510 -539 535 -506 q 560 -473 560 -425 l 560 -425 q 560 -399 552 -376 q 544 -354 525 -338 l 525 -338 q 509 -323 482 -314 q 454 -306 409 -306 l 409 -306 l 411 -306 q 397 -306 387 -304 q 377 -302 370 -298 l 370 -298 q 365 -294 362 -288 q 359 -282 359 -275 l 359 -275 q 359 -257 375 -251 q 391 -246 416 -246 l 416 -246 l 410 -246 q 457 -246 484 -236 q 510 -227 525 -212 l 525 -212 q 543 -195 551 -173 q 559 -152 559 -124 l 559 -124 q 559 -86 542 -54 q 525 -23 486 -5 q 447 12 381 12 l 381 12 q 356 12 331 10 q 305 7 280 1 q 255 -5 232 -13 l 232 -13 l 270 -104 q 298 -97 324 -92 q 350 -88 374 -88 l 374 -88 q 412 -88 426 -96 q 440 -105 440 -121 l 440 -121 q 440 -134 430 -141 q 420 -149 396 -149 l 396 -149 l 400 -149 q 351 -149 320 -159 q 289 -170 273 -188 l 273 -188 q 259 -203 249 -225 q 239 -248 239 -273 l 239 -273 q 239 -303 250 -327 q 260 -351 280 -367 l 280 -367 q 296 -380 319 -389 q 341 -399 390 -400 l 390 -400 l 392 -400 q 413 -400 426 -405 q 439 -410 439 -428 l 439 -428 q 439 -451 417 -462 q 394 -474 356 -474 l 356 -474 q 287 -474 245 -443 q 202 -413 184 -358 q 166 -303 166 -227 l 166 -227 q 166 -172 172 -119 q 178 -66 188 -22 l 188 -22 l 67 4 q 55 -46 47 -108 q 38 -170 38 -226 l 38 -226 q 38 -335 73 -412 q 108 -489 180 -531 q 252 -574 361 -574 z"},"മ":{"ha":646,"x_min":48,"x_max":598,"o":"m 317 -574 l 317 -574 q 397 -574 448 -553 q 499 -533 532 -500 l 532 -500 q 556 -475 571 -443 q 585 -411 592 -367 q 598 -324 598 -265 l 598 -265 l 598 0 l 48 0 l 48 -268 q 48 -328 55 -371 q 61 -414 76 -446 q 90 -478 114 -501 l 114 -501 q 147 -535 194 -554 q 241 -574 317 -574 z m 246 -471 l 246 -471 q 229 -471 214 -457 q 199 -444 189 -420 l 189 -420 q 181 -401 177 -373 q 173 -345 173 -302 l 173 -302 l 173 -65 l 152 -68 q 190 -117 221 -172 q 252 -228 270 -285 q 288 -342 288 -395 l 288 -395 q 288 -420 285 -436 q 281 -453 272 -462 q 262 -471 246 -471 z m 413 -365 l 413 -365 q 413 -317 401 -272 q 388 -227 365 -182 q 342 -138 311 -89 l 311 -89 l 288 -96 q 305 -98 331 -99 q 356 -100 362 -100 l 362 -100 l 473 -100 l 473 -290 q 473 -348 462 -384 q 451 -421 430 -445 q 408 -469 373 -484 l 373 -484 l 375 -484 q 389 -467 401 -435 q 413 -403 413 -365 z"},"യ":{"ha":894,"x_min":37,"x_max":858,"o":"m 579 12 l 579 12 q 521 12 485 1 q 448 -11 407 -38 l 407 -38 q 403 -42 399 -49 q 394 -56 390 -61 l 390 -61 q 340 -98 313 -147 q 286 -197 277 -248 q 267 -299 267 -345 l 267 -345 q 267 -379 271 -407 q 274 -435 281 -458 l 281 -458 l 301 -483 q 317 -518 343 -538 q 369 -559 400 -566 q 430 -574 458 -574 l 458 -574 q 549 -574 597 -517 q 645 -460 645 -348 l 645 -348 q 645 -251 608 -175 q 571 -100 509 -52 l 509 -52 q 502 -46 496 -40 q 489 -35 481 -30 l 481 -30 q 447 -9 410 2 q 373 12 319 12 l 319 12 q 246 12 193 -13 q 140 -39 106 -85 q 71 -131 54 -192 q 37 -253 37 -324 l 37 -324 q 37 -402 59 -458 q 80 -515 126 -544 q 171 -574 241 -574 l 241 -574 q 288 -574 329 -552 q 369 -531 401 -487 l 401 -487 l 306 -431 q 292 -455 275 -465 q 258 -475 244 -475 l 244 -475 q 216 -475 199 -457 q 182 -440 174 -407 q 165 -375 165 -328 l 165 -328 q 165 -246 187 -191 q 208 -137 245 -111 q 281 -85 325 -85 l 325 -85 q 351 -85 369 -89 q 386 -93 402 -100 l 402 -100 q 409 -103 414 -104 q 419 -105 425 -109 l 425 -109 q 454 -132 475 -170 q 496 -208 506 -254 q 516 -301 516 -346 l 516 -346 q 516 -397 507 -424 q 498 -452 485 -463 q 471 -474 456 -474 l 456 -474 q 438 -474 424 -462 q 409 -451 402 -423 q 394 -395 394 -347 l 394 -347 q 394 -305 403 -261 q 411 -217 428 -179 q 444 -141 470 -116 l 470 -116 q 476 -111 481 -109 q 485 -108 491 -104 l 491 -104 q 505 -95 527 -90 q 548 -86 574 -86 l 574 -86 q 625 -86 660 -109 q 694 -133 712 -181 q 729 -229 729 -300 l 729 -300 q 729 -358 714 -415 q 699 -473 670 -526 l 670 -526 l 780 -575 q 818 -515 838 -446 q 858 -378 858 -310 l 858 -310 q 858 -246 846 -188 q 833 -130 802 -85 q 771 -40 717 -14 q 662 12 579 12 z"},"ര":{"ha":642,"x_min":34,"x_max":607,"o":"m 313 -574 l 313 -574 q 387 -574 442 -548 q 497 -523 534 -477 q 570 -432 589 -370 q 607 -308 607 -236 l 607 -236 q 607 -145 586 -90 q 564 -35 523 -11 q 481 12 422 12 l 422 12 q 360 12 323 -16 q 286 -45 269 -94 q 252 -144 252 -206 l 252 -206 q 252 -302 291 -354 q 329 -407 403 -407 l 403 -407 q 444 -407 474 -384 q 504 -362 525 -323 q 546 -285 558 -238 l 558 -238 l 509 -231 q 504 -251 495 -269 q 485 -288 470 -300 q 455 -313 435 -313 l 435 -313 q 404 -313 391 -285 q 377 -258 377 -200 l 377 -200 q 377 -164 383 -138 q 388 -112 400 -99 q 411 -86 430 -86 l 430 -86 q 447 -86 459 -99 q 470 -113 476 -145 q 482 -177 482 -232 l 482 -232 q 482 -251 481 -270 q 480 -290 478 -307 l 478 -307 q 477 -312 476 -319 q 475 -327 473 -331 l 473 -331 q 468 -367 449 -399 q 429 -432 397 -452 q 365 -472 323 -472 l 323 -472 q 266 -472 231 -449 q 196 -426 180 -384 q 163 -343 163 -289 l 163 -289 q 163 -238 172 -197 q 181 -156 199 -120 q 217 -85 241 -49 l 241 -49 l 148 13 q 115 -26 89 -71 q 63 -116 49 -171 q 34 -226 34 -294 l 34 -294 q 34 -352 51 -402 q 68 -453 102 -491 q 136 -530 189 -552 q 242 -574 313 -574 z"},"റ":{"ha":576,"x_min":33,"x_max":542,"o":"m 290 -574 l 290 -574 q 360 -574 408 -551 q 456 -528 486 -488 q 515 -448 529 -397 q 542 -347 542 -290 l 542 -290 q 542 -224 528 -169 q 513 -115 487 -70 q 460 -26 426 13 l 426 13 l 331 -50 q 353 -82 372 -117 q 390 -152 401 -194 q 411 -236 411 -291 l 411 -291 q 411 -346 396 -387 q 380 -428 354 -450 q 327 -472 293 -472 l 293 -472 q 254 -472 225 -451 q 196 -430 181 -389 q 165 -348 165 -293 l 165 -293 q 165 -241 174 -199 q 183 -158 201 -122 q 218 -86 243 -50 l 243 -50 l 147 13 q 114 -25 88 -70 q 62 -115 48 -170 q 33 -226 33 -294 l 33 -294 q 33 -346 47 -396 q 61 -446 92 -486 q 122 -527 171 -550 q 220 -574 290 -574 z"},"ല":{"ha":727,"x_min":51,"x_max":673,"o":"m 547 -562 l 673 -562 l 673 0 l 51 0 l 51 -315 q 51 -393 64 -436 q 76 -479 98 -508 l 98 -508 q 121 -539 162 -556 q 202 -574 257 -574 l 257 -574 q 311 -574 352 -556 q 392 -539 415 -508 l 415 -508 q 444 -471 454 -427 q 463 -384 463 -315 l 463 -315 l 463 -214 l 178 -214 l 178 -100 l 547 -100 l 547 -562 z m 257 -474 l 257 -474 q 212 -474 195 -436 q 178 -399 178 -333 l 178 -333 l 178 -315 l 337 -315 l 337 -332 q 337 -400 319 -437 q 300 -474 257 -474 z"},"ള":{"ha":624,"x_min":33,"x_max":595,"o":"m 330 -473 l 330 -473 q 296 -473 264 -466 q 232 -460 205 -445 q 177 -431 160 -411 q 143 -391 138 -365 l 138 -365 q 139 -361 141 -359 q 143 -357 143 -352 l 143 -352 q 141 -346 139 -332 q 137 -319 137 -298 l 137 -298 q 137 -257 149 -235 q 161 -214 183 -214 l 183 -214 q 201 -214 210 -231 q 218 -249 218 -278 l 218 -278 q 218 -298 214 -312 q 210 -326 201 -333 q 192 -341 179 -341 l 179 -341 q 162 -341 148 -336 q 134 -332 116 -321 l 116 -321 l 43 -327 q 64 -354 92 -376 q 119 -398 150 -411 q 180 -425 208 -425 l 208 -425 q 255 -425 283 -406 q 310 -388 323 -354 q 336 -321 336 -278 l 336 -278 q 336 -236 321 -201 q 306 -166 274 -144 q 241 -122 190 -122 l 190 -122 q 143 -122 108 -144 q 72 -166 53 -208 q 33 -251 33 -312 l 33 -312 q 33 -364 50 -411 q 67 -459 104 -495 q 140 -532 200 -553 q 259 -574 345 -574 l 345 -574 q 419 -574 474 -553 q 529 -533 560 -495 q 590 -458 590 -403 l 590 -403 q 590 -360 569 -331 q 548 -302 509 -285 q 470 -269 415 -264 l 415 -264 l 380 -310 l 380 -331 l 384 -331 q 401 -331 416 -335 q 430 -339 443 -348 l 443 -348 q 451 -354 456 -366 q 461 -379 461 -394 l 461 -394 q 461 -421 447 -438 q 432 -455 403 -464 q 373 -473 330 -473 z m 595 -155 l 595 -155 q 595 -114 580 -83 q 564 -53 538 -34 l 538 -34 q 520 -22 500 -15 q 480 -8 450 -4 q 419 0 373 0 l 373 0 l 276 0 q 235 0 217 3 q 199 5 189 10 l 189 10 q 176 17 170 27 q 164 36 164 48 l 164 48 q 164 60 170 70 q 175 80 185 87 l 185 87 q 195 93 215 96 q 234 99 274 99 l 274 99 l 572 99 l 572 201 l 269 201 q 206 201 164 192 q 122 183 99 168 l 99 168 q 69 148 53 120 q 36 91 36 53 l 36 53 q 36 16 52 -15 q 68 -47 101 -68 l 101 -68 q 119 -78 140 -85 q 160 -92 193 -96 q 225 -100 273 -100 l 273 -100 l 359 -100 q 395 -100 414 -103 q 433 -106 445 -116 l 445 -116 q 456 -124 462 -136 q 468 -149 468 -165 l 468 -165 q 468 -182 461 -196 q 454 -211 441 -218 l 441 -218 q 432 -225 418 -228 q 404 -231 377 -231 l 377 -231 l 380 -231 l 380 -321 l 495 -293 q 538 -271 567 -239 q 595 -207 595 -155 z"},"ഴ":{"ha":588,"x_min":31,"x_max":558,"o":"m 223 -419 l 223 -419 q 223 -491 268 -532 q 312 -574 391 -574 l 391 -574 q 450 -574 487 -548 q 524 -523 541 -483 q 558 -443 558 -401 l 558 -401 q 558 -330 530 -275 q 502 -220 448 -188 q 393 -157 316 -157 l 316 -157 l 296 -157 q 211 -157 152 -186 q 92 -216 62 -270 q 31 -325 31 -400 l 31 -400 q 31 -444 44 -488 q 56 -532 79 -575 l 79 -575 l 189 -531 q 176 -500 167 -468 q 158 -437 158 -400 l 158 -400 q 158 -348 176 -314 q 193 -280 224 -263 q 255 -247 292 -247 l 292 -247 l 321 -247 q 358 -247 383 -267 q 408 -287 421 -321 q 433 -356 433 -401 l 433 -401 q 433 -437 422 -458 q 411 -480 387 -480 l 387 -480 q 376 -480 366 -472 q 356 -464 351 -448 q 345 -433 345 -411 l 345 -411 q 345 -379 356 -346 q 367 -313 381 -279 q 394 -246 405 -209 q 416 -172 416 -133 l 416 -133 q 416 -97 402 -63 q 388 -30 355 -9 q 321 12 261 12 l 261 12 q 228 12 191 6 q 153 0 119 -14 l 119 -14 l 158 -106 q 183 -97 202 -93 q 220 -89 236 -89 l 236 -89 q 272 -89 284 -110 q 296 -132 296 -149 l 296 -149 q 296 -179 285 -211 q 274 -244 260 -278 q 245 -312 234 -348 q 223 -384 223 -419 z"},"വ":{"ha":821,"x_min":33,"x_max":767,"o":"m 290 -574 l 290 -574 q 359 -574 407 -551 q 454 -529 484 -490 q 514 -452 527 -404 q 539 -356 539 -305 l 539 -305 q 539 -244 527 -194 q 514 -145 492 -103 q 470 -62 441 -22 l 441 -22 l 477 -100 l 641 -100 l 641 -562 l 767 -562 l 767 0 l 398 0 l 338 -62 q 357 -89 374 -122 q 391 -155 401 -196 q 411 -238 411 -291 l 411 -291 q 411 -346 396 -387 q 380 -428 354 -450 q 327 -472 293 -472 l 293 -472 q 254 -472 225 -451 q 196 -430 181 -389 q 165 -349 165 -293 l 165 -293 q 165 -241 174 -199 q 183 -158 201 -121 q 218 -85 243 -50 l 243 -50 l 147 13 q 114 -25 88 -70 q 62 -115 48 -170 q 33 -226 33 -294 l 33 -294 q 33 -346 47 -396 q 61 -446 92 -486 q 122 -527 171 -550 q 220 -574 290 -574 z"},"ശ":{"ha":885,"x_min":34,"x_max":850,"o":"m 559 -574 l 559 -574 q 626 -574 680 -551 q 734 -528 773 -483 q 811 -439 831 -377 q 850 -315 850 -236 l 850 -236 q 850 -145 829 -90 q 807 -35 766 -11 q 725 12 665 12 l 665 12 q 603 12 566 -16 q 529 -45 513 -94 q 496 -144 496 -206 l 496 -206 q 496 -302 534 -354 q 572 -407 647 -407 l 647 -407 q 688 -407 718 -384 q 747 -362 768 -323 q 789 -285 801 -238 l 801 -238 l 752 -231 q 748 -251 738 -269 q 728 -288 713 -300 q 698 -313 677 -313 l 677 -313 q 647 -313 634 -285 q 620 -258 620 -200 l 620 -200 q 620 -164 625 -138 q 630 -112 643 -99 q 655 -86 673 -86 l 673 -86 q 689 -86 701 -99 q 713 -113 720 -145 q 726 -177 726 -232 l 726 -232 q 726 -251 726 -270 q 725 -290 722 -307 l 722 -307 q 722 -312 722 -319 q 722 -327 720 -330 l 720 -330 q 716 -366 698 -398 q 679 -431 646 -451 q 612 -472 562 -472 l 562 -472 q 533 -472 514 -466 q 495 -461 477 -446 l 477 -446 q 453 -422 445 -382 q 437 -342 437 -268 l 437 -268 l 437 -218 q 437 -165 428 -120 q 419 -75 391 -44 l 391 -44 q 367 -17 333 -2 q 299 12 249 12 l 249 12 q 180 12 132 -20 q 84 -53 59 -112 q 34 -172 34 -254 l 34 -254 q 34 -324 47 -382 q 60 -440 83 -487 q 105 -535 133 -576 l 133 -576 l 234 -514 q 212 -476 196 -436 q 180 -396 171 -352 q 162 -309 162 -260 l 162 -260 q 162 -198 174 -161 q 185 -124 204 -107 q 223 -90 244 -90 l 244 -90 q 260 -90 274 -97 q 287 -104 294 -118 l 294 -118 q 303 -134 306 -154 q 309 -174 309 -212 l 309 -212 l 309 -297 q 309 -383 329 -437 q 349 -491 388 -524 l 388 -524 q 418 -549 457 -561 q 495 -574 559 -574 z"},"ഷ":{"ha":999,"x_min":28,"x_max":945,"o":"m 212 -362 l 212 -362 q 276 -362 316 -335 q 355 -309 374 -268 q 392 -227 392 -181 l 392 -181 q 392 -145 380 -117 q 368 -89 360 -70 l 360 -70 l 349 -100 l 569 -100 l 625 0 l 285 0 l 242 -60 q 251 -78 260 -106 q 268 -134 268 -172 l 268 -172 q 268 -212 255 -237 q 242 -263 213 -263 l 213 -263 q 192 -263 180 -252 q 167 -241 161 -221 q 155 -201 155 -176 l 155 -176 q 155 -124 169 -94 q 183 -65 195 -37 l 195 -37 l 88 12 q 60 -32 44 -76 q 28 -121 28 -180 l 28 -180 q 28 -235 51 -275 q 73 -316 115 -339 q 156 -362 212 -362 z m 945 0 l 558 0 l 558 -412 q 558 -433 556 -445 q 554 -458 549 -467 l 549 -467 q 546 -471 541 -473 q 536 -476 530 -476 l 530 -476 q 511 -476 500 -459 q 488 -442 488 -410 l 488 -410 q 488 -385 494 -366 q 499 -347 518 -336 q 537 -326 576 -326 l 576 -326 l 606 -326 q 646 -326 679 -345 q 711 -365 737 -399 q 762 -433 783 -475 q 803 -517 821 -562 l 821 -562 l 945 -562 l 945 0 z m 533 -574 l 533 -574 q 567 -574 593 -565 q 619 -556 637 -538 l 637 -538 q 659 -516 670 -484 q 680 -452 680 -396 l 680 -396 l 680 -100 l 820 -100 l 820 -303 q 820 -324 821 -339 q 822 -354 823 -368 q 824 -382 825 -399 l 825 -399 l 829 -386 q 804 -335 770 -299 q 735 -264 695 -248 q 655 -232 611 -232 l 611 -232 l 564 -232 q 498 -232 455 -255 q 412 -279 392 -320 q 371 -361 371 -411 l 371 -411 q 371 -454 390 -491 q 408 -528 444 -551 q 479 -574 533 -574 z"},"സ":{"ha":1019,"x_min":34,"x_max":985,"o":"m 514 -574 l 514 -574 q 565 -574 599 -559 q 633 -545 657 -519 l 657 -519 q 675 -499 686 -474 q 697 -450 702 -419 q 707 -388 707 -347 l 707 -347 l 707 -223 q 707 -170 711 -149 q 714 -129 721 -116 l 721 -116 q 729 -103 743 -96 q 756 -90 773 -90 l 773 -90 q 797 -90 816 -107 q 834 -124 846 -161 q 857 -198 857 -259 l 857 -259 q 857 -309 849 -352 q 840 -396 824 -436 q 808 -476 785 -514 l 785 -514 l 886 -576 q 915 -535 937 -487 q 959 -440 972 -382 q 985 -324 985 -254 l 985 -254 q 985 -172 959 -112 q 933 -53 885 -20 q 836 12 769 12 l 769 12 q 721 12 686 -2 q 650 -16 626 -42 l 626 -42 q 609 -63 600 -89 q 590 -115 586 -146 q 581 -178 581 -212 l 581 -212 l 581 -346 q 581 -388 578 -408 q 575 -428 568 -443 l 568 -443 q 559 -459 545 -465 q 530 -472 511 -472 l 511 -472 q 497 -472 483 -466 q 469 -461 463 -452 l 463 -452 q 452 -436 447 -412 q 441 -389 441 -347 l 441 -347 l 441 0 l 314 0 l 314 -331 q 314 -391 310 -418 q 306 -446 290 -461 l 290 -461 q 282 -468 270 -470 q 258 -473 252 -473 l 252 -473 q 226 -473 206 -454 q 186 -435 174 -397 q 162 -359 162 -300 l 162 -300 q 162 -256 170 -214 q 178 -172 195 -131 q 211 -90 235 -50 l 235 -50 l 133 12 q 102 -32 80 -80 q 57 -129 46 -186 q 34 -244 34 -309 l 34 -309 q 34 -389 58 -448 q 82 -508 127 -541 q 172 -574 236 -574 l 236 -574 q 282 -574 319 -558 q 355 -543 389 -501 l 389 -501 l 368 -498 q 395 -530 426 -552 q 457 -574 514 -574 z"},"ഹ":{"ha":1008,"x_min":28,"x_max":975,"o":"m 212 -362 l 212 -362 q 276 -362 316 -335 q 355 -309 374 -268 q 392 -227 392 -181 l 392 -181 q 392 -145 380 -117 q 368 -89 360 -70 l 360 -70 l 349 -100 l 546 -100 l 627 0 l 285 0 l 242 -60 q 251 -78 260 -106 q 268 -134 268 -172 l 268 -172 q 268 -212 255 -237 q 242 -263 213 -263 l 213 -263 q 192 -263 180 -252 q 167 -241 161 -221 q 155 -201 155 -176 l 155 -176 q 155 -124 169 -94 q 183 -65 195 -37 l 195 -37 l 88 12 q 60 -32 44 -76 q 28 -121 28 -180 l 28 -180 q 28 -235 51 -275 q 73 -316 115 -339 q 156 -362 212 -362 z m 723 -574 l 723 -574 q 792 -574 840 -551 q 888 -528 918 -488 q 948 -448 962 -397 q 975 -347 975 -290 l 975 -290 q 975 -222 960 -167 q 944 -112 918 -68 q 891 -24 859 13 l 859 13 l 764 -50 q 786 -82 804 -116 q 822 -151 833 -193 q 843 -236 843 -291 l 843 -291 q 843 -346 829 -387 q 814 -428 788 -450 q 761 -472 725 -472 l 725 -472 q 686 -472 658 -451 q 629 -430 613 -389 q 597 -348 597 -293 l 597 -293 q 597 -244 606 -203 q 615 -163 632 -129 q 648 -95 670 -62 l 670 -62 l 611 0 l 597 0 l 574 -18 q 547 -55 523 -95 q 499 -136 484 -186 q 468 -236 468 -302 l 468 -302 q 468 -351 482 -400 q 495 -449 526 -488 q 556 -527 604 -550 q 652 -574 723 -574 z"},"ഺ":{"ha":589,"x_min":18,"x_max":571,"o":"m 155 -100 l 571 -100 l 571 0 l 378 0 l 378 202 l 253 202 l 253 0 l 83 0 l 18 -84 l 199 -568 l 318 -529 l 155 -100 z"},"഻":{"ha":0,"x_min":-324,"x_max":-234,"o":"m -324 -596 l -324 -864 l -234 -864 l -234 -596 l -324 -596 z"},"഼":{"ha":0,"x_min":-239,"x_max":12,"o":"m -239 -729 l -239 -729 q -239 -789 -205 -826 q -172 -864 -114 -864 l -114 -864 q -56 -864 -22 -827 q 12 -790 12 -729 l 12 -729 q 12 -667 -21 -629 q -55 -592 -114 -592 l -114 -592 q -172 -592 -205 -629 q -239 -666 -239 -729 z m -151 -730 l -151 -730 q -151 -702 -141 -687 q -132 -673 -114 -673 l -114 -673 q -94 -673 -85 -687 q -76 -702 -76 -729 l -76 -729 q -76 -755 -85 -769 q -94 -784 -114 -784 l -114 -784 q -132 -784 -141 -769 q -151 -755 -151 -730 z"},"ഽ":{"ha":424,"x_min":-61,"x_max":484,"o":"m 320 -800 l 320 -800 q 367 -800 400 -779 q 433 -758 454 -723 q 475 -689 484 -648 l 484 -648 l 362 -622 q 357 -648 352 -665 q 346 -682 338 -691 q 329 -700 317 -700 l 317 -700 q 307 -700 299 -695 q 291 -690 286 -680 l 286 -680 q 281 -670 279 -651 q 276 -632 276 -599 l 276 -599 l 276 7 q 276 88 265 134 q 253 180 216 209 l 216 209 q 196 223 169 234 q 141 244 104 244 l 104 244 q 57 244 24 224 q -10 203 -30 168 q -51 133 -61 91 l -61 91 l 62 65 q 66 91 72 109 q 78 127 87 136 q 96 144 106 144 l 106 144 q 120 144 127 138 q 134 132 137 123 l 137 123 q 144 109 146 88 q 148 67 148 38 l 148 38 l 148 -566 q 148 -639 160 -688 q 172 -737 209 -765 l 209 -765 q 230 -781 256 -790 q 282 -800 320 -800 z"},"ാ":{"ha":453,"x_min":17,"x_max":416,"o":"m 416 -283 l 416 -283 q 416 -213 406 -158 q 396 -103 373 -65 q 349 -28 311 -8 q 273 12 216 12 l 216 12 q 163 12 127 -5 q 91 -22 69 -49 q 47 -77 35 -112 q 23 -147 17 -183 l 17 -183 l 144 -206 q 149 -178 157 -150 q 165 -123 179 -105 q 193 -87 217 -87 l 217 -87 q 242 -87 257 -108 q 272 -130 279 -174 q 285 -218 285 -285 l 285 -285 q 285 -348 279 -390 q 272 -432 257 -453 q 242 -475 218 -475 l 218 -475 q 197 -475 183 -459 q 169 -444 160 -417 q 151 -391 146 -357 l 146 -357 l 20 -381 q 29 -417 43 -451 q 56 -486 79 -514 q 102 -542 137 -558 q 172 -574 224 -574 l 224 -574 q 279 -574 316 -553 q 353 -533 375 -495 q 397 -457 407 -403 q 416 -349 416 -283 z"},"ി":{"ha":236,"x_min":-195,"x_max":182,"o":"m -10 -851 l -10 -851 q 29 -851 63 -840 q 97 -829 121 -807 l 121 -807 q 145 -786 158 -757 q 171 -729 177 -689 q 182 -649 182 -589 l 182 -589 l 182 0 l 54 0 l 54 -555 q 54 -597 53 -632 q 51 -667 45 -692 q 39 -718 28 -731 l 28 -731 q 21 -741 12 -746 q 2 -751 -14 -751 l -14 -751 q -30 -751 -42 -743 q -55 -735 -61 -720 q -68 -706 -68 -685 l -68 -685 q -68 -672 -66 -659 q -65 -646 -63 -638 l -63 -638 l -188 -623 q -192 -635 -193 -651 q -195 -668 -195 -687 l -195 -687 q -195 -741 -170 -777 q -146 -814 -105 -832 q -64 -851 -10 -851 z"},"ീ":{"ha":236,"x_min":-229,"x_max":182,"o":"m -60 -851 l -60 -851 q -3 -851 37 -836 q 77 -821 113 -791 l 113 -791 q 155 -752 169 -694 q 182 -637 182 -543 l 182 -543 l 182 0 l 54 0 l 54 -520 q 54 -592 49 -638 q 44 -684 32 -712 q 19 -741 -3 -758 l -3 -758 q -21 -764 -39 -766 q -57 -769 -77 -769 l -77 -769 q -91 -769 -105 -764 q -120 -760 -128 -747 q -137 -735 -137 -713 l -137 -713 q -137 -688 -127 -677 q -118 -666 -103 -666 l -103 -666 q -82 -666 -74 -679 q -66 -693 -66 -715 l -66 -715 q -66 -740 -78 -760 q -90 -780 -105 -794 l -105 -794 l -6 -782 q 4 -771 12 -753 q 19 -735 19 -708 l 19 -708 q 19 -672 6 -643 q -7 -615 -33 -598 q -60 -582 -103 -582 l -103 -582 q -141 -582 -170 -597 q -199 -612 -214 -640 q -229 -668 -229 -710 l -229 -710 q -229 -750 -211 -781 q -193 -813 -156 -832 q -119 -851 -60 -851 z"},"ു":{"ha":307,"x_min":-21,"x_max":315,"o":"m 147 235 l 147 235 q 68 235 24 186 q -21 136 -21 53 l -21 53 q -21 -3 -1 -44 q 19 -85 56 -107 q 93 -129 146 -129 l 146 -129 q 198 -129 236 -107 q 274 -86 295 -45 q 315 -4 315 53 l 315 53 q 315 109 294 150 q 272 191 235 213 q 197 235 147 235 z m 147 144 l 147 144 q 172 144 187 122 q 202 100 202 54 l 202 54 q 202 8 188 -13 q 174 -35 147 -35 l 147 -35 q 121 -35 106 -13 q 91 8 91 55 l 91 55 q 91 101 107 123 q 122 144 147 144 z m 120 -574 l 120 -574 q 173 -574 205 -551 q 236 -528 250 -490 q 263 -453 263 -410 l 263 -410 q 263 -335 248 -262 q 233 -189 210 -99 l 210 -99 l 92 -113 q 111 -190 123 -259 q 134 -328 134 -390 l 134 -390 q 134 -428 123 -450 q 111 -472 81 -472 l 81 -472 q 70 -472 59 -470 q 47 -469 37 -466 l 37 -466 l 17 -561 q 35 -565 61 -569 q 86 -574 120 -574 z"},"ൂ":{"ha":307,"x_min":-21,"x_max":315,"o":"m 148 235 l 148 235 q 68 235 24 186 q -21 136 -21 53 l -21 53 q -21 -3 -1 -44 q 19 -85 57 -107 q 94 -129 146 -129 l 146 -129 q 198 -129 236 -107 q 274 -86 295 -45 q 315 -5 315 53 l 315 53 q 315 110 294 151 q 272 191 235 213 q 197 235 148 235 z m 148 -41 l 148 -41 q 117 -41 97 -19 q 76 2 76 54 l 76 54 q 76 104 96 126 q 115 147 147 147 l 147 147 q 178 147 198 126 q 218 105 218 54 l 218 54 q 218 4 199 -18 q 180 -41 148 -41 z m 147 98 l 147 98 q 100 98 78 68 q 55 38 55 -13 l 55 -13 q 55 -34 65 -55 q 74 -77 89 -100 l 89 -100 l 134 -73 q 119 -63 109 -51 q 98 -39 98 -24 l 98 -24 q 98 -10 105 0 q 111 10 122 15 q 133 20 147 20 l 147 20 q 164 20 176 14 q 187 8 192 -1 q 197 -11 197 -22 l 197 -22 q 197 -37 189 -49 q 181 -62 163 -71 l 163 -71 l 207 -100 q 225 -76 232 -55 q 239 -35 239 -14 l 239 -14 q 239 16 231 41 q 222 66 202 82 q 181 98 147 98 z m 121 -574 l 121 -574 q 174 -574 205 -551 q 236 -528 250 -490 q 263 -453 263 -410 l 263 -410 q 263 -335 248 -262 q 233 -189 210 -99 l 210 -99 l 92 -113 q 111 -190 123 -259 q 134 -328 134 -390 l 134 -390 q 134 -428 123 -450 q 111 -472 81 -472 l 81 -472 q 70 -472 59 -470 q 47 -469 37 -466 l 37 -466 l 17 -561 q 35 -565 61 -569 q 86 -574 121 -574 z"},"ൃ":{"ha":246,"x_min":-129,"x_max":244,"o":"m 45 333 l 45 333 q -10 333 -49 315 q -89 297 -109 262 q -129 226 -129 173 l -129 173 q -129 108 -88 67 q -48 25 36 25 l 36 25 q 65 25 100 36 q 135 47 175 79 l 175 79 l 144 165 q 119 142 94 132 q 69 121 42 121 l 42 121 q 19 121 5 135 q -9 148 -9 177 l -9 177 q -9 203 5 219 q 18 234 43 234 l 43 234 q 69 234 86 222 q 102 210 111 186 q 119 162 119 123 l 119 123 q 119 99 115 72 q 110 45 101 9 q 91 -27 76 -77 l 76 -77 q 60 -129 47 -187 q 34 -246 34 -307 l 34 -307 q 34 -379 51 -442 q 68 -505 93 -562 l 93 -562 l 225 -562 q 203 -512 189 -471 q 174 -430 168 -392 q 161 -354 161 -313 l 161 -313 q 161 -264 171 -218 q 180 -173 198 -114 l 198 -114 q 213 -63 223 -22 q 233 19 239 55 q 244 90 244 123 l 244 123 q 244 198 218 245 q 191 291 146 312 q 100 333 45 333 z"},"ൄ":{"ha":246,"x_min":-246,"x_max":244,"o":"m -23 333 l -23 333 q -95 333 -145 312 q -195 290 -220 249 q -246 207 -246 151 l -246 151 q -246 95 -215 61 q -184 26 -133 26 l -133 26 q -103 26 -85 41 q -68 55 -55 76 l -55 76 l -69 71 q -55 50 -36 38 q -17 26 6 26 l 6 26 q 33 26 50 37 q 67 47 77 64 q 86 80 89 100 q 92 119 92 138 l 92 138 l 92 175 l 18 175 l 18 155 q 18 135 14 124 q 10 112 -4 112 l -4 112 q -17 112 -22 123 q -27 133 -27 153 l -27 153 l -27 175 l -101 175 l -101 152 q -101 135 -106 124 q -111 112 -122 112 l -122 112 q -132 112 -139 122 q -146 132 -146 150 l -146 150 q -146 188 -115 211 q -85 234 -25 234 l -25 234 q 37 234 76 207 q 115 179 115 119 l 115 119 q 115 94 111 69 q 107 43 98 8 q 89 -28 74 -78 l 74 -78 q 62 -127 48 -183 q 34 -240 34 -307 l 34 -307 q 34 -379 51 -442 q 68 -505 93 -562 l 93 -562 l 225 -562 q 203 -512 189 -471 q 174 -430 168 -392 q 161 -354 161 -313 l 161 -313 q 161 -264 170 -219 q 179 -174 196 -118 l 196 -118 q 214 -62 225 -23 q 235 16 240 50 q 244 83 244 119 l 244 119 q 244 185 213 233 q 182 280 123 307 q 63 333 -23 333 z"},"െ":{"ha":616,"x_min":35,"x_max":582,"o":"m 213 12 l 213 12 q 166 12 126 -13 q 85 -38 60 -92 q 35 -146 35 -238 l 35 -238 q 35 -314 55 -375 q 75 -437 113 -481 q 150 -526 204 -550 q 257 -574 325 -574 l 325 -574 q 390 -574 439 -552 q 487 -530 519 -491 q 550 -452 566 -400 q 582 -349 582 -289 l 582 -289 q 582 -222 566 -167 q 550 -113 524 -69 q 498 -26 465 13 l 465 13 l 372 -50 q 395 -82 413 -116 q 431 -150 442 -191 q 452 -232 452 -287 l 452 -287 q 452 -343 437 -385 q 422 -427 392 -449 q 361 -472 314 -472 l 314 -472 q 265 -472 228 -441 q 190 -411 170 -357 q 150 -303 150 -234 l 150 -234 q 150 -172 158 -140 q 165 -108 178 -97 q 191 -86 206 -86 l 206 -86 q 219 -86 229 -94 q 238 -102 243 -119 q 247 -137 247 -166 l 247 -166 q 247 -212 237 -231 q 227 -250 200 -250 l 200 -250 q 176 -250 153 -233 q 130 -216 105 -180 l 105 -180 l 88 -272 q 107 -297 146 -320 q 185 -344 232 -344 l 232 -344 q 277 -344 308 -323 q 338 -303 354 -265 q 369 -228 369 -175 l 369 -175 q 369 -114 350 -73 q 331 -32 297 -10 q 263 12 213 12 z"},"േ":{"ha":524,"x_min":33,"x_max":494,"o":"m 306 12 l 306 12 q 248 12 199 -5 q 149 -22 112 -59 q 74 -96 54 -152 q 33 -208 33 -285 l 33 -285 q 33 -359 55 -413 q 77 -468 115 -503 q 153 -538 205 -556 q 257 -574 318 -574 l 318 -574 q 383 -574 422 -553 q 461 -533 478 -498 q 494 -464 494 -422 l 494 -422 q 494 -380 477 -350 q 460 -320 430 -304 q 399 -288 361 -288 l 361 -288 q 311 -288 282 -306 q 252 -324 239 -354 q 225 -384 225 -419 l 225 -419 q 225 -443 232 -464 q 238 -486 246 -499 l 246 -499 l 349 -508 q 334 -494 327 -472 q 319 -451 319 -425 l 319 -425 q 319 -400 327 -387 q 335 -374 353 -374 l 353 -374 q 372 -374 380 -386 q 388 -398 388 -419 l 388 -419 q 388 -446 374 -462 q 360 -478 332 -478 l 332 -478 q 318 -478 303 -477 q 288 -477 281 -477 l 281 -477 q 244 -477 216 -453 q 188 -430 172 -387 q 155 -344 155 -284 l 155 -284 q 155 -225 169 -181 q 182 -137 209 -112 q 235 -87 273 -84 l 273 -84 q 284 -84 299 -84 q 313 -84 323 -84 l 323 -84 q 345 -84 358 -91 q 371 -98 377 -110 q 383 -122 383 -142 l 383 -142 q 383 -165 376 -177 q 368 -190 352 -190 l 352 -190 q 332 -190 323 -175 q 313 -161 313 -136 l 313 -136 q 313 -108 322 -87 q 331 -66 346 -52 l 346 -52 l 237 -65 q 230 -79 225 -100 q 219 -121 219 -145 l 219 -145 q 219 -175 232 -205 q 244 -236 274 -256 q 304 -276 356 -276 l 356 -276 q 394 -276 424 -259 q 454 -243 472 -213 q 489 -183 489 -140 l 489 -140 q 489 -98 471 -63 q 452 -28 412 -8 q 372 12 306 12 z"},"ൈ":{"ha":1231,"x_min":35,"x_max":1197,"o":"m 213 12 l 213 12 q 166 12 126 -13 q 85 -38 60 -92 q 35 -146 35 -238 l 35 -238 q 35 -314 55 -375 q 75 -437 113 -481 q 150 -526 204 -550 q 257 -574 325 -574 l 325 -574 q 390 -574 439 -552 q 487 -530 519 -491 q 550 -452 566 -400 q 582 -349 582 -289 l 582 -289 q 582 -222 566 -167 q 550 -113 524 -69 q 498 -26 465 13 l 465 13 l 372 -50 q 395 -82 413 -116 q 431 -150 442 -191 q 452 -232 452 -287 l 452 -287 q 452 -343 437 -385 q 422 -427 392 -449 q 361 -472 314 -472 l 314 -472 q 265 -472 228 -441 q 190 -411 170 -357 q 150 -303 150 -234 l 150 -234 q 150 -172 158 -140 q 165 -108 178 -97 q 191 -86 206 -86 l 206 -86 q 219 -86 229 -94 q 238 -102 243 -119 q 247 -137 247 -166 l 247 -166 q 247 -212 237 -231 q 227 -250 200 -250 l 200 -250 q 176 -250 153 -233 q 130 -216 105 -180 l 105 -180 l 88 -272 q 107 -297 146 -320 q 185 -344 232 -344 l 232 -344 q 277 -344 308 -323 q 338 -303 354 -265 q 369 -228 369 -175 l 369 -175 q 369 -114 350 -73 q 331 -32 297 -10 q 263 12 213 12 z m 828 12 l 828 12 q 781 12 741 -13 q 700 -38 675 -92 q 650 -146 650 -238 l 650 -238 q 650 -314 670 -375 q 690 -437 728 -481 q 765 -526 819 -550 q 872 -574 940 -574 l 940 -574 q 1005 -574 1054 -552 q 1102 -530 1134 -491 q 1165 -452 1181 -400 q 1197 -349 1197 -289 l 1197 -289 q 1197 -222 1181 -167 q 1165 -113 1139 -69 q 1113 -26 1080 13 l 1080 13 l 987 -50 q 1010 -82 1028 -116 q 1046 -150 1057 -191 q 1067 -232 1067 -287 l 1067 -287 q 1067 -343 1052 -385 q 1037 -427 1007 -449 q 976 -472 929 -472 l 929 -472 q 880 -472 843 -441 q 805 -411 785 -357 q 765 -303 765 -234 l 765 -234 q 765 -172 773 -140 q 780 -108 793 -97 q 806 -86 821 -86 l 821 -86 q 834 -86 844 -94 q 853 -102 858 -119 q 862 -137 862 -166 l 862 -166 q 862 -212 852 -231 q 842 -250 815 -250 l 815 -250 q 791 -250 768 -233 q 745 -216 720 -180 l 720 -180 l 703 -272 q 722 -297 761 -320 q 800 -344 847 -344 l 847 -344 q 892 -344 923 -323 q 953 -303 969 -265 q 984 -228 984 -175 l 984 -175 q 984 -114 965 -73 q 946 -32 912 -10 q 878 12 828 12 z"},"ൊ":{"ha":1236,"x_min":35,"x_max":1198,"o":"m 213 12 l 213 12 q 166 12 126 -13 q 85 -38 60 -92 q 35 -146 35 -238 l 35 -238 q 35 -314 55 -375 q 75 -437 113 -481 q 150 -526 204 -550 q 257 -574 325 -574 l 325 -574 q 390 -574 439 -552 q 487 -530 519 -491 q 550 -452 566 -400 q 582 -349 582 -289 l 582 -289 q 582 -222 566 -167 q 550 -113 524 -69 q 498 -26 465 13 l 465 13 l 372 -50 q 395 -82 413 -116 q 431 -150 442 -191 q 452 -232 452 -287 l 452 -287 q 452 -343 437 -385 q 422 -427 392 -449 q 361 -472 314 -472 l 314 -472 q 265 -472 228 -441 q 190 -411 170 -357 q 150 -303 150 -234 l 150 -234 q 150 -172 158 -140 q 165 -108 178 -97 q 191 -86 206 -86 l 206 -86 q 219 -86 229 -94 q 238 -102 243 -119 q 247 -137 247 -166 l 247 -166 q 247 -212 237 -231 q 227 -250 200 -250 l 200 -250 q 176 -250 153 -233 q 130 -216 105 -180 l 105 -180 l 88 -272 q 107 -297 146 -320 q 185 -344 232 -344 l 232 -344 q 277 -344 308 -323 q 338 -303 354 -265 q 369 -228 369 -175 l 369 -175 q 369 -114 350 -73 q 331 -32 297 -10 q 263 12 213 12 z m 709 -215 l 709 -215 q 674 -215 654 -236 q 633 -257 633 -296 l 633 -296 q 633 -336 653 -357 q 672 -378 709 -378 l 709 -378 q 747 -378 767 -357 q 786 -337 786 -296 l 786 -296 q 786 -257 766 -236 q 746 -215 709 -215 z m 1198 -283 l 1198 -283 q 1198 -213 1188 -158 q 1178 -103 1155 -65 q 1131 -28 1093 -8 q 1055 12 998 12 l 998 12 q 945 12 909 -5 q 873 -22 851 -49 q 829 -77 817 -112 q 805 -147 799 -183 l 799 -183 l 926 -206 q 931 -178 939 -150 q 947 -123 961 -105 q 975 -87 999 -87 l 999 -87 q 1024 -87 1039 -108 q 1054 -130 1061 -174 q 1067 -218 1067 -285 l 1067 -285 q 1067 -348 1061 -390 q 1054 -432 1039 -453 q 1024 -475 1000 -475 l 1000 -475 q 979 -475 965 -459 q 951 -444 942 -417 q 933 -391 928 -357 l 928 -357 l 802 -381 q 811 -417 825 -451 q 838 -486 861 -514 q 884 -542 919 -558 q 954 -574 1006 -574 l 1006 -574 q 1061 -574 1098 -553 q 1135 -533 1157 -495 q 1179 -457 1189 -403 q 1198 -349 1198 -283 z"},"ോ":{"ha":1123,"x_min":33,"x_max":1085,"o":"m 306 12 l 306 12 q 248 12 199 -5 q 149 -22 112 -59 q 74 -96 54 -152 q 33 -208 33 -285 l 33 -285 q 33 -359 55 -413 q 77 -468 115 -503 q 153 -538 205 -556 q 257 -574 318 -574 l 318 -574 q 383 -574 422 -553 q 461 -533 478 -498 q 494 -464 494 -422 l 494 -422 q 494 -380 477 -350 q 460 -320 430 -304 q 399 -288 361 -288 l 361 -288 q 311 -288 282 -306 q 252 -324 239 -354 q 225 -384 225 -419 l 225 -419 q 225 -443 232 -464 q 238 -486 246 -499 l 246 -499 l 349 -508 q 334 -494 327 -472 q 319 -451 319 -425 l 319 -425 q 319 -400 327 -387 q 335 -374 353 -374 l 353 -374 q 372 -374 380 -386 q 388 -398 388 -419 l 388 -419 q 388 -446 374 -462 q 360 -478 332 -478 l 332 -478 q 318 -478 303 -477 q 288 -477 281 -477 l 281 -477 q 244 -477 216 -453 q 188 -430 172 -387 q 155 -344 155 -284 l 155 -284 q 155 -225 169 -181 q 182 -137 209 -112 q 235 -87 273 -84 l 273 -84 q 284 -84 299 -84 q 313 -84 323 -84 l 323 -84 q 345 -84 358 -91 q 371 -98 377 -110 q 383 -122 383 -142 l 383 -142 q 383 -165 376 -177 q 368 -190 352 -190 l 352 -190 q 332 -190 323 -175 q 313 -161 313 -136 l 313 -136 q 313 -108 322 -87 q 331 -66 346 -52 l 346 -52 l 237 -65 q 230 -79 225 -100 q 219 -121 219 -145 l 219 -145 q 219 -175 232 -205 q 244 -236 274 -256 q 304 -276 356 -276 l 356 -276 q 394 -276 424 -259 q 454 -243 472 -213 q 489 -183 489 -140 l 489 -140 q 489 -98 471 -63 q 452 -28 412 -8 q 372 12 306 12 z m 595 -215 l 595 -215 q 560 -215 540 -236 q 519 -257 519 -296 l 519 -296 q 519 -336 539 -357 q 558 -378 595 -378 l 595 -378 q 633 -378 653 -357 q 672 -337 672 -296 l 672 -296 q 672 -257 652 -236 q 632 -215 595 -215 z m 1085 -283 l 1085 -283 q 1085 -213 1075 -158 q 1065 -103 1042 -65 q 1018 -28 980 -8 q 942 12 885 12 l 885 12 q 832 12 796 -5 q 760 -22 738 -49 q 716 -77 704 -112 q 692 -147 686 -183 l 686 -183 l 813 -206 q 818 -178 826 -150 q 834 -123 848 -105 q 862 -87 886 -87 l 886 -87 q 911 -87 926 -108 q 941 -130 948 -174 q 954 -218 954 -285 l 954 -285 q 954 -348 948 -390 q 941 -432 926 -453 q 911 -475 887 -475 l 887 -475 q 866 -475 852 -459 q 838 -444 829 -417 q 820 -391 815 -357 l 815 -357 l 689 -381 q 698 -417 712 -451 q 725 -486 748 -514 q 771 -542 806 -558 q 841 -574 893 -574 l 893 -574 q 948 -574 985 -553 q 1022 -533 1044 -495 q 1066 -457 1076 -403 q 1085 -349 1085 -283 z"},"ൌ":{"ha":1445,"x_min":35,"x_max":1411,"o":"m 213 12 l 213 12 q 166 12 126 -13 q 85 -38 60 -92 q 35 -146 35 -238 l 35 -238 q 35 -314 55 -375 q 75 -437 113 -481 q 150 -526 204 -550 q 257 -574 325 -574 l 325 -574 q 390 -574 439 -552 q 487 -530 519 -491 q 550 -452 566 -400 q 582 -349 582 -289 l 582 -289 q 582 -222 566 -167 q 550 -113 524 -69 q 498 -26 465 13 l 465 13 l 372 -50 q 395 -82 413 -116 q 431 -150 442 -191 q 452 -232 452 -287 l 452 -287 q 452 -343 437 -385 q 422 -427 392 -449 q 361 -472 314 -472 l 314 -472 q 265 -472 228 -441 q 190 -411 170 -357 q 150 -303 150 -234 l 150 -234 q 150 -172 158 -140 q 165 -108 178 -97 q 191 -86 206 -86 l 206 -86 q 219 -86 229 -94 q 238 -102 243 -119 q 247 -137 247 -166 l 247 -166 q 247 -212 237 -231 q 227 -250 200 -250 l 200 -250 q 176 -250 153 -233 q 130 -216 105 -180 l 105 -180 l 88 -272 q 107 -297 146 -320 q 185 -344 232 -344 l 232 -344 q 277 -344 308 -323 q 338 -303 354 -265 q 369 -228 369 -175 l 369 -175 q 369 -114 350 -73 q 331 -32 297 -10 q 263 12 213 12 z m 709 -215 l 709 -215 q 674 -215 654 -236 q 633 -257 633 -296 l 633 -296 q 633 -336 653 -357 q 672 -378 709 -378 l 709 -378 q 747 -378 767 -357 q 786 -337 786 -296 l 786 -296 q 786 -257 766 -236 q 746 -215 709 -215 z m 1232 -574 l 1232 -574 q 1290 -574 1330 -542 q 1369 -510 1390 -452 q 1411 -394 1411 -313 l 1411 -313 q 1411 -204 1382 -131 q 1353 -59 1296 -23 q 1238 12 1150 12 l 1150 12 q 1100 12 1056 3 q 1011 -7 968 -29 l 968 -29 l 1017 -123 q 1043 -111 1075 -101 q 1106 -91 1140 -91 l 1140 -91 q 1193 -91 1225 -115 q 1256 -140 1270 -188 q 1283 -236 1283 -308 l 1283 -308 q 1283 -396 1266 -435 q 1248 -474 1220 -474 l 1220 -474 q 1209 -474 1203 -469 q 1196 -465 1191 -456 l 1191 -456 q 1185 -446 1183 -431 q 1180 -417 1180 -381 l 1180 -381 l 1180 -265 l 1055 -265 l 1055 -356 q 1055 -401 1053 -420 q 1051 -439 1047 -451 l 1047 -451 q 1042 -463 1032 -468 q 1021 -474 1011 -474 l 1011 -474 q 984 -474 971 -449 q 958 -424 958 -392 l 958 -392 q 958 -360 962 -333 q 966 -307 971 -287 l 971 -287 l 850 -261 q 842 -289 837 -324 q 831 -359 831 -393 l 831 -393 q 831 -440 848 -480 q 864 -521 900 -547 q 936 -574 994 -574 l 994 -574 q 1039 -574 1070 -559 q 1100 -545 1123 -514 l 1123 -514 l 1106 -516 q 1129 -546 1158 -560 q 1187 -574 1232 -574 z"},"്":{"ha":0,"x_min":-260,"x_max":67,"o":"m -97 -596 l -97 -596 q -156 -596 -192 -617 q -228 -638 -244 -674 q -260 -710 -260 -757 l -260 -757 q -260 -781 -256 -799 q -253 -818 -248 -831 l -248 -831 l -137 -814 q -141 -802 -143 -788 q -145 -775 -145 -763 l -145 -763 q -145 -736 -139 -720 q -133 -704 -122 -697 q -111 -690 -94 -690 l -94 -690 q -77 -690 -66 -697 q -55 -704 -49 -719 q -43 -735 -43 -763 l -43 -763 q -43 -776 -45 -789 q -47 -803 -49 -814 l -49 -814 l 56 -831 q 61 -819 64 -800 q 67 -781 67 -758 l 67 -758 q 67 -711 51 -674 q 35 -638 -1 -617 q -37 -596 -97 -596 z"},"ൎ":{"ha":0,"x_min":-337,"x_max":-198,"o":"m -337 -830 l -198 -830 l -207 -638 l -329 -638 l -337 -830 z"},"൏":{"ha":1063,"x_min":40,"x_max":1026,"o":"m 509 -574 l 509 -574 q 576 -574 621 -550 q 666 -526 704 -475 l 704 -475 l 665 -491 q 694 -536 734 -555 q 773 -574 817 -574 l 817 -574 q 880 -574 927 -538 q 974 -502 1000 -428 q 1026 -354 1026 -243 l 1026 -243 q 1026 -86 976 23 q 925 132 817 189 q 709 245 536 245 l 536 245 q 421 245 337 220 q 252 194 196 148 q 139 102 105 41 q 70 -20 55 -91 q 40 -162 40 -238 l 40 -238 q 40 -312 57 -391 q 74 -470 106 -553 l 106 -553 l 214 -516 q 188 -449 174 -376 q 159 -304 159 -236 l 159 -236 q 159 -175 170 -119 q 181 -64 206 -17 q 231 29 274 64 q 317 99 382 118 q 447 137 537 137 l 537 137 q 648 137 719 110 q 789 82 828 32 q 867 -18 882 -89 q 896 -160 896 -247 l 896 -247 q 896 -325 885 -375 q 873 -426 853 -449 q 833 -473 806 -473 l 806 -473 q 795 -473 786 -469 q 777 -466 771 -462 l 771 -462 q 756 -449 751 -423 q 746 -397 746 -353 l 746 -353 l 746 0 l 619 0 l 619 -293 q 619 -364 611 -396 q 602 -428 586 -444 l 586 -444 q 574 -457 557 -465 q 540 -473 509 -473 l 509 -473 q 464 -473 427 -449 q 390 -425 368 -373 q 345 -322 345 -242 l 345 -242 l 345 -231 q 345 -171 353 -139 q 360 -108 374 -97 q 387 -86 401 -86 l 401 -86 q 415 -86 424 -94 q 433 -102 438 -119 q 443 -137 443 -167 l 443 -167 q 443 -212 433 -231 q 422 -250 395 -250 l 395 -250 q 372 -250 349 -233 q 325 -217 300 -180 l 300 -180 l 283 -272 q 303 -297 343 -320 q 382 -344 429 -344 l 429 -344 q 474 -344 504 -323 q 534 -303 550 -265 q 565 -227 565 -174 l 565 -174 q 565 -112 546 -71 q 527 -30 492 -9 q 456 12 407 12 l 407 12 q 360 12 320 -12 q 280 -37 255 -93 q 230 -149 230 -243 l 230 -243 q 230 -355 267 -428 q 303 -502 367 -538 q 430 -574 509 -574 z"},"ൔ":{"ha":552,"x_min":48,"x_max":535,"o":"m 159 -800 l 159 -800 q 194 -800 222 -789 q 249 -778 262 -761 l 262 -761 q 280 -738 287 -709 q 293 -681 293 -635 l 293 -635 l 293 -523 q 293 -482 296 -445 q 299 -409 316 -371 q 333 -333 370 -286 l 370 -286 l 383 -267 q 409 -233 449 -187 q 489 -141 535 -90 l 535 -90 l 490 0 l 48 0 l 48 -268 q 48 -329 55 -372 q 62 -415 76 -446 q 89 -478 113 -501 l 113 -501 q 146 -534 192 -553 q 238 -572 293 -572 l 293 -572 q 348 -572 392 -549 q 435 -527 460 -482 q 484 -438 484 -374 l 484 -374 q 484 -313 456 -269 q 428 -226 394 -190 l 394 -190 l 373 -169 q 353 -148 336 -129 q 319 -110 303 -93 q 287 -77 270 -63 l 270 -63 l 282 -98 q 303 -99 320 -100 q 337 -102 339 -102 l 339 -102 l 336 -102 q 333 -102 346 -101 q 359 -100 376 -99 q 393 -99 404 -97 l 404 -97 l 419 -62 q 393 -94 368 -121 q 343 -149 322 -174 l 322 -174 l 291 -215 q 242 -271 219 -319 q 196 -367 189 -416 q 181 -466 181 -527 l 181 -527 l 181 -619 q 181 -648 177 -662 q 172 -676 163 -684 l 163 -684 q 159 -691 148 -694 q 137 -698 122 -698 l 122 -698 q 110 -698 99 -696 q 87 -694 78 -692 l 78 -692 l 56 -786 q 77 -793 103 -796 q 129 -800 159 -800 z m 173 -277 l 173 -65 l 143 -62 q 173 -93 203 -125 q 233 -157 261 -190 q 289 -224 310 -261 l 310 -261 l 332 -295 q 344 -315 355 -336 q 365 -358 365 -387 l 365 -387 q 365 -416 354 -436 q 342 -457 322 -467 q 301 -478 272 -478 l 272 -478 q 240 -478 219 -461 q 197 -444 188 -416 l 188 -416 q 184 -401 180 -384 q 176 -368 175 -343 q 173 -318 173 -277 l 173 -277 z"},"ൕ":{"ha":894,"x_min":36,"x_max":862,"o":"m 591 12 l 591 12 q 547 12 515 7 q 483 2 458 -9 q 433 -20 405 -38 l 405 -38 q 401 -42 397 -49 q 392 -56 388 -61 l 388 -61 q 339 -98 313 -147 q 286 -197 276 -248 q 266 -300 266 -345 l 266 -345 q 266 -379 270 -407 q 273 -435 280 -458 l 280 -458 l 301 -483 q 317 -518 343 -538 q 368 -559 399 -566 q 429 -574 458 -574 l 458 -574 q 548 -574 596 -517 q 644 -460 644 -348 l 644 -348 q 644 -284 629 -230 q 614 -176 584 -131 q 554 -87 509 -52 l 509 -52 q 501 -46 495 -40 q 488 -35 480 -30 l 480 -30 q 447 -9 410 2 q 372 12 318 12 l 318 12 q 246 12 193 -13 q 139 -39 105 -85 q 70 -131 53 -192 q 36 -253 36 -324 l 36 -324 q 36 -402 58 -458 q 80 -515 126 -544 q 171 -574 240 -574 l 240 -574 q 287 -574 328 -552 q 369 -531 400 -487 l 400 -487 l 306 -431 q 291 -455 274 -465 q 257 -475 243 -475 l 243 -475 q 216 -475 199 -457 q 181 -440 173 -407 q 164 -375 164 -328 l 164 -328 q 164 -246 186 -191 q 208 -137 244 -111 q 280 -85 324 -85 l 324 -85 q 350 -85 368 -89 q 385 -93 400 -100 l 400 -100 q 408 -103 413 -104 q 418 -105 424 -109 l 424 -109 q 453 -132 474 -170 q 495 -208 506 -254 q 516 -301 516 -346 l 516 -346 q 516 -397 507 -424 q 497 -452 484 -463 q 471 -474 456 -474 l 456 -474 q 437 -474 423 -462 q 408 -451 401 -423 q 394 -395 394 -347 l 394 -347 q 394 -305 403 -261 q 411 -217 428 -179 q 444 -141 470 -117 l 470 -117 q 475 -112 480 -110 q 485 -108 490 -104 l 490 -104 q 504 -95 527 -90 q 550 -86 583 -86 l 583 -86 q 633 -86 667 -105 q 700 -124 717 -157 q 733 -191 733 -237 l 733 -237 q 733 -270 727 -301 q 721 -333 706 -371 q 691 -409 665 -457 l 665 -457 q 648 -498 632 -531 q 616 -565 607 -595 q 597 -626 597 -660 l 597 -660 q 597 -695 611 -727 q 625 -759 659 -779 q 692 -800 750 -800 l 750 -800 q 785 -800 809 -795 q 832 -790 843 -786 l 843 -786 l 824 -690 q 813 -693 803 -695 q 792 -697 776 -697 l 776 -697 q 748 -697 736 -683 q 723 -670 723 -647 l 723 -647 q 723 -629 727 -612 q 731 -595 744 -568 q 756 -541 778 -496 l 778 -496 q 807 -440 826 -396 q 844 -352 853 -313 q 862 -274 862 -232 l 862 -232 q 862 -197 854 -161 q 845 -126 827 -95 q 808 -64 777 -40 q 746 -16 700 -2 q 654 12 591 12 z"},"ൖ":{"ha":654,"x_min":31,"x_max":624,"o":"m 230 -179 l 230 -179 q 230 -155 237 -134 q 244 -114 260 -102 q 276 -90 303 -90 l 303 -90 q 334 -90 349 -108 q 363 -126 363 -156 l 363 -156 q 363 -187 354 -214 q 345 -241 333 -270 q 321 -300 313 -335 q 304 -371 304 -416 l 304 -416 q 304 -462 322 -498 q 340 -534 375 -554 q 409 -574 458 -574 l 458 -574 q 516 -574 553 -549 q 589 -524 607 -484 q 624 -444 624 -404 l 624 -404 q 624 -333 598 -277 q 571 -222 516 -190 q 461 -158 375 -158 l 375 -158 l 337 -158 q 300 -158 269 -163 q 237 -168 205 -181 l 205 -181 l 166 -189 q 128 -208 98 -238 q 67 -268 49 -309 q 31 -350 31 -400 l 31 -400 q 31 -444 43 -488 q 55 -532 79 -575 l 79 -575 l 188 -531 q 176 -501 168 -468 q 159 -435 159 -402 l 159 -402 q 159 -374 167 -346 q 175 -319 179 -302 l 179 -302 l 223 -276 q 244 -265 274 -256 q 304 -247 329 -247 l 329 -247 l 382 -247 q 420 -247 446 -266 q 472 -285 485 -320 q 498 -356 498 -401 l 498 -401 q 498 -437 488 -458 q 477 -480 453 -480 l 453 -480 q 442 -480 432 -472 q 422 -464 417 -448 q 411 -433 411 -411 l 411 -411 q 411 -378 422 -344 q 433 -311 447 -277 q 461 -243 472 -208 q 483 -174 483 -138 l 483 -138 q 483 -111 475 -84 q 466 -58 447 -36 q 427 -15 393 -1 q 359 12 307 12 l 307 12 q 252 12 210 -7 q 167 -26 142 -67 q 117 -108 117 -175 l 117 -175 q 117 -214 130 -258 q 143 -303 163 -352 q 183 -402 204 -456 l 204 -456 q 226 -507 239 -541 q 252 -576 258 -601 q 264 -627 264 -650 l 264 -650 q 264 -672 251 -685 q 237 -698 208 -698 l 208 -698 q 200 -698 189 -696 q 177 -695 165 -691 l 165 -691 l 144 -786 q 165 -794 196 -797 q 227 -800 255 -800 l 255 -800 q 312 -800 340 -779 q 368 -758 378 -728 q 388 -699 388 -674 l 388 -674 q 388 -652 382 -626 q 376 -600 365 -568 q 354 -537 337 -496 q 319 -456 296 -403 l 296 -403 q 269 -344 255 -307 q 241 -270 236 -247 q 231 -224 231 -209 q 230 -194 230 -179 z"},"ൗ":{"ha":641,"x_min":27,"x_max":607,"o":"m 428 -574 l 428 -574 q 486 -574 526 -542 q 565 -510 586 -452 q 607 -394 607 -313 l 607 -313 q 607 -204 578 -131 q 549 -59 492 -23 q 434 12 346 12 l 346 12 q 296 12 252 3 q 207 -7 164 -29 l 164 -29 l 213 -123 q 239 -111 271 -101 q 302 -91 336 -91 l 336 -91 q 389 -91 421 -115 q 452 -140 466 -188 q 479 -236 479 -308 l 479 -308 q 479 -396 462 -435 q 444 -474 416 -474 l 416 -474 q 405 -474 399 -469 q 392 -465 387 -456 l 387 -456 q 381 -446 379 -431 q 376 -417 376 -381 l 376 -381 l 376 -265 l 251 -265 l 251 -356 q 251 -401 249 -420 q 247 -439 243 -451 l 243 -451 q 238 -463 228 -468 q 217 -474 207 -474 l 207 -474 q 180 -474 167 -449 q 154 -424 154 -392 l 154 -392 q 154 -360 158 -333 q 162 -307 167 -287 l 167 -287 l 46 -261 q 38 -289 33 -324 q 27 -359 27 -393 l 27 -393 q 27 -440 44 -480 q 60 -521 96 -547 q 132 -574 190 -574 l 190 -574 q 235 -574 266 -559 q 296 -545 319 -514 l 319 -514 l 302 -516 q 325 -546 354 -560 q 383 -574 428 -574 z"},"൘":{"ha":1019,"x_min":34,"x_max":980,"o":"m 503 12 l 503 12 q 462 12 427 -6 q 392 -25 360 -68 l 360 -68 l 378 -59 q 350 -23 319 -5 q 287 12 240 12 l 240 12 q 173 12 127 -23 q 80 -59 57 -120 q 34 -181 34 -257 l 34 -257 q 34 -321 46 -376 q 58 -431 81 -480 q 103 -529 132 -574 l 132 -574 l 233 -512 q 209 -476 193 -435 q 177 -394 170 -350 q 162 -307 162 -262 l 162 -262 q 162 -200 175 -161 q 188 -123 208 -106 q 228 -89 250 -89 l 250 -89 q 264 -89 273 -93 q 281 -97 287 -102 l 287 -102 q 299 -116 303 -135 q 307 -154 307 -201 l 307 -201 l 307 -562 l 434 -562 l 434 -224 q 434 -177 439 -153 q 444 -129 455 -112 l 455 -112 q 464 -101 477 -95 q 489 -89 504 -89 l 504 -89 q 523 -89 534 -95 q 545 -101 553 -111 l 553 -111 q 565 -127 569 -152 q 572 -177 572 -220 l 572 -220 l 572 -562 l 699 -562 l 699 -245 l 642 -59 q 615 -23 582 -5 q 549 12 503 12 z m 778 12 l 778 12 q 728 12 692 -6 q 656 -25 626 -63 l 626 -63 l 581 -242 l 581 -552 l 699 -552 l 699 -233 q 699 -178 704 -147 q 709 -117 726 -101 l 726 -101 q 734 -94 743 -91 q 752 -89 765 -89 l 765 -89 q 793 -89 812 -116 q 831 -143 841 -194 q 851 -245 851 -316 l 851 -316 q 851 -391 842 -455 q 833 -520 812 -573 q 791 -627 756 -665 q 720 -704 666 -724 q 611 -744 535 -744 l 535 -744 q 482 -744 432 -736 q 381 -729 339 -720 l 339 -720 l 321 -822 q 362 -832 395 -838 q 427 -844 461 -846 q 495 -849 541 -849 l 541 -849 q 639 -849 713 -824 q 786 -800 837 -754 q 887 -709 919 -643 q 950 -578 965 -497 q 980 -417 980 -323 l 980 -323 q 980 -211 958 -136 q 935 -62 890 -25 q 844 12 778 12 z"},"൙":{"ha":957,"x_min":34,"x_max":938,"o":"m 311 -574 l 311 -574 q 388 -574 443 -548 q 498 -522 534 -474 q 570 -427 588 -365 q 606 -303 606 -229 l 606 -229 q 606 -138 584 -85 q 562 -33 521 -10 q 480 12 422 12 l 422 12 q 361 12 325 -12 q 289 -37 273 -74 q 257 -111 257 -152 l 257 -152 q 257 -204 276 -241 q 294 -279 329 -304 l 329 -304 q 348 -318 375 -327 q 401 -336 435 -340 q 468 -344 509 -344 l 509 -344 l 757 -344 l 757 -245 l 522 -245 q 472 -245 448 -239 q 424 -233 408 -221 l 408 -221 q 394 -209 387 -192 q 380 -176 380 -153 l 380 -153 q 380 -128 391 -109 q 402 -91 427 -91 l 427 -91 q 443 -91 455 -105 q 466 -119 473 -148 q 479 -178 479 -228 l 479 -228 q 479 -241 479 -257 q 479 -274 478 -282 l 478 -282 l 471 -309 q 470 -353 452 -390 q 434 -427 402 -449 q 369 -472 322 -472 l 322 -472 q 266 -472 231 -449 q 195 -426 179 -384 q 163 -343 163 -289 l 163 -289 q 163 -238 172 -197 q 181 -156 199 -120 q 217 -85 241 -49 l 241 -49 l 148 13 q 115 -26 89 -71 q 63 -116 49 -171 q 34 -226 34 -294 l 34 -294 q 34 -352 51 -402 q 68 -453 102 -491 q 136 -530 189 -552 q 241 -574 311 -574 z m 786 -562 l 786 -562 q 841 -562 874 -540 q 906 -519 922 -485 q 938 -451 938 -411 l 938 -411 q 938 -372 924 -340 q 909 -308 883 -287 l 883 -287 q 865 -272 843 -262 q 821 -253 789 -249 q 757 -245 708 -245 l 708 -245 l 574 -245 l 576 -344 l 724 -344 q 756 -344 774 -348 q 791 -353 799 -359 l 799 -359 q 812 -368 818 -379 q 823 -391 823 -415 l 823 -415 q 823 -437 813 -450 q 802 -464 785 -464 l 785 -464 q 766 -464 756 -448 q 745 -432 745 -404 l 745 -404 q 745 -370 755 -346 q 765 -322 780 -302 l 780 -302 l 670 -296 q 655 -316 645 -348 q 634 -381 634 -413 l 634 -413 q 634 -462 655 -495 q 675 -528 710 -545 q 744 -562 786 -562 z"},"൚":{"ha":915,"x_min":34,"x_max":868,"o":"m 587 -574 l 587 -574 q 667 -574 718 -553 q 769 -533 802 -500 l 802 -500 q 825 -475 840 -443 q 855 -411 862 -367 q 868 -323 868 -265 l 868 -265 l 868 0 l 440 0 l 440 -91 q 471 -134 498 -184 q 525 -235 542 -289 q 558 -343 558 -395 l 558 -395 q 558 -420 555 -436 q 551 -453 542 -462 q 532 -471 515 -471 l 515 -471 q 499 -471 484 -457 q 469 -444 459 -421 l 459 -421 q 450 -398 447 -366 q 443 -334 443 -285 l 443 -285 l 443 -230 l 318 -230 l 318 -354 q 318 -407 312 -428 q 306 -450 294 -464 l 294 -464 q 289 -468 280 -470 q 270 -473 257 -473 l 257 -473 q 234 -473 213 -456 q 191 -440 177 -402 q 162 -364 162 -300 l 162 -300 q 162 -255 170 -211 q 178 -167 194 -126 q 210 -86 234 -49 l 234 -49 l 133 13 q 104 -31 82 -80 q 59 -130 47 -186 q 34 -242 34 -305 l 34 -305 q 34 -382 58 -443 q 82 -504 130 -539 q 178 -574 251 -574 l 251 -574 q 283 -574 309 -567 q 334 -560 356 -541 q 378 -523 400 -490 l 400 -490 l 370 -483 q 394 -512 425 -532 q 456 -552 496 -563 q 536 -574 587 -574 z m 682 -365 l 682 -365 q 682 -317 670 -272 q 657 -227 635 -182 q 612 -138 580 -89 l 580 -89 l 558 -96 q 575 -98 601 -99 q 626 -100 632 -100 l 632 -100 l 742 -100 l 742 -290 q 742 -348 731 -384 q 720 -421 699 -445 q 678 -469 643 -484 l 643 -484 l 644 -484 q 658 -467 670 -435 q 682 -403 682 -365 z"},"൛":{"ha":822,"x_min":54,"x_max":788,"o":"m 531 12 l 531 12 q 461 12 414 -10 q 367 -33 338 -71 q 308 -109 295 -157 q 282 -206 282 -257 l 282 -257 q 282 -318 295 -367 q 307 -417 329 -458 q 351 -500 380 -540 l 380 -540 l 344 -462 l 180 -462 l 180 0 l 54 0 l 54 -562 l 424 -562 l 483 -500 q 465 -473 449 -440 q 432 -407 421 -365 q 410 -324 410 -271 l 410 -271 q 410 -216 426 -175 q 441 -134 468 -112 q 494 -90 528 -90 l 528 -90 q 568 -90 596 -111 q 624 -133 640 -173 q 656 -213 656 -269 l 656 -269 q 656 -321 647 -362 q 638 -404 621 -441 q 603 -478 578 -512 l 578 -512 l 674 -575 q 707 -538 733 -493 q 759 -448 774 -393 q 788 -338 788 -268 l 788 -268 q 788 -216 774 -166 q 760 -117 730 -76 q 699 -36 650 -12 q 601 12 531 12 z"},"൜":{"ha":1274,"x_min":34,"x_max":1240,"o":"m 766 -574 l 766 -574 q 816 -574 851 -559 q 885 -545 906 -524 l 906 -524 q 926 -503 939 -474 q 952 -446 957 -414 q 962 -382 962 -348 l 962 -348 l 962 -223 q 962 -170 966 -149 q 969 -129 977 -116 l 977 -116 q 984 -103 998 -96 q 1011 -90 1028 -90 l 1028 -90 q 1052 -90 1071 -107 q 1089 -124 1101 -161 q 1112 -198 1112 -259 l 1112 -259 q 1112 -309 1104 -352 q 1095 -396 1080 -436 q 1064 -476 1040 -514 l 1040 -514 l 1142 -576 q 1170 -535 1192 -487 q 1214 -439 1227 -381 q 1240 -324 1240 -254 l 1240 -254 q 1240 -172 1215 -112 q 1189 -53 1140 -20 q 1091 12 1023 12 l 1023 12 q 977 12 941 -2 q 905 -16 881 -42 l 881 -42 q 865 -62 855 -88 q 845 -115 841 -147 q 836 -180 836 -213 l 836 -213 l 836 -347 q 836 -378 833 -401 q 830 -425 823 -441 l 823 -441 q 817 -457 804 -464 q 790 -472 768 -472 l 768 -472 q 749 -472 736 -465 q 723 -458 717 -445 l 717 -445 q 708 -430 705 -409 q 702 -388 702 -356 l 702 -356 l 702 -215 q 702 -181 696 -148 q 690 -116 678 -88 q 665 -60 645 -38 l 645 -38 q 624 -17 591 -2 q 557 12 508 12 l 508 12 q 459 12 425 -3 q 390 -18 369 -39 l 369 -39 q 348 -61 336 -89 q 323 -118 318 -150 q 312 -182 312 -215 l 312 -215 l 312 -339 q 312 -396 309 -414 q 305 -432 298 -446 l 298 -446 q 290 -460 277 -466 q 264 -472 246 -472 l 246 -472 q 223 -472 204 -455 q 185 -439 174 -401 q 162 -364 162 -302 l 162 -302 q 162 -253 171 -209 q 180 -166 196 -126 q 212 -87 235 -48 l 235 -48 l 133 14 q 105 -27 83 -75 q 60 -123 47 -180 q 34 -238 34 -307 l 34 -307 q 34 -389 60 -448 q 85 -508 134 -541 q 183 -574 254 -574 l 254 -574 q 298 -574 334 -560 q 369 -547 393 -521 l 393 -521 q 412 -500 421 -472 q 430 -445 435 -413 q 439 -381 439 -344 l 439 -344 l 439 -216 q 439 -184 442 -160 q 445 -137 452 -121 l 452 -121 q 458 -106 472 -98 q 485 -90 507 -90 l 507 -90 q 527 -90 540 -97 q 552 -105 558 -117 l 558 -117 q 567 -133 571 -154 q 574 -176 574 -213 l 574 -213 l 574 -346 q 574 -381 580 -413 q 585 -445 597 -474 q 609 -503 630 -524 l 630 -524 q 650 -544 683 -559 q 716 -574 766 -574 z"},"൝":{"ha":1684,"x_min":8,"x_max":1650,"o":"m 652 -574 l 652 -574 q 702 -574 737 -559 q 771 -545 792 -524 l 792 -524 q 812 -503 825 -474 q 838 -446 844 -414 q 849 -382 849 -348 l 849 -348 l 849 -216 q 849 -184 852 -160 q 854 -137 862 -121 l 862 -121 q 867 -106 881 -98 q 895 -90 916 -90 l 916 -90 q 936 -90 949 -97 q 962 -105 968 -117 l 968 -117 q 976 -133 980 -154 q 983 -176 983 -213 l 983 -213 l 983 -346 q 983 -381 989 -413 q 994 -445 1007 -474 q 1019 -503 1040 -524 l 1040 -524 q 1060 -544 1093 -559 q 1125 -574 1176 -574 l 1176 -574 q 1226 -574 1261 -559 q 1295 -545 1315 -524 l 1315 -524 q 1336 -503 1349 -474 q 1361 -446 1367 -414 q 1372 -382 1372 -348 l 1372 -348 l 1372 -223 q 1372 -170 1376 -149 q 1379 -129 1386 -116 l 1386 -116 q 1394 -103 1408 -96 q 1421 -90 1438 -90 l 1438 -90 q 1462 -90 1481 -107 q 1499 -124 1511 -161 q 1522 -198 1522 -259 l 1522 -259 q 1522 -309 1514 -352 q 1505 -396 1489 -436 q 1473 -476 1449 -514 l 1449 -514 l 1551 -576 q 1579 -535 1602 -487 q 1624 -439 1637 -381 q 1650 -324 1650 -254 l 1650 -254 q 1650 -172 1624 -112 q 1598 -53 1549 -20 q 1500 12 1433 12 l 1433 12 q 1387 12 1351 -2 q 1315 -16 1291 -42 l 1291 -42 q 1274 -62 1264 -88 q 1254 -115 1250 -147 q 1245 -180 1245 -213 l 1245 -213 l 1245 -347 q 1245 -378 1242 -401 q 1239 -425 1233 -441 l 1233 -441 q 1227 -457 1213 -464 q 1199 -472 1178 -472 l 1178 -472 q 1159 -472 1146 -465 q 1133 -458 1127 -445 l 1127 -445 q 1118 -430 1115 -409 q 1111 -388 1111 -356 l 1111 -356 l 1111 -215 q 1111 -181 1106 -148 q 1100 -116 1088 -88 q 1075 -60 1054 -38 l 1054 -38 q 1034 -17 1001 -2 q 967 12 918 12 l 918 12 q 868 12 834 -3 q 799 -18 778 -39 l 778 -39 q 758 -61 745 -89 q 732 -118 727 -150 q 722 -182 722 -215 l 722 -215 l 722 -351 q 722 -382 719 -403 q 716 -425 709 -441 l 709 -441 q 703 -457 690 -464 q 676 -472 654 -472 l 654 -472 q 635 -472 622 -465 q 609 -458 603 -445 l 603 -445 q 594 -430 591 -409 q 588 -388 588 -356 l 588 -356 l 588 -219 q 588 -151 575 -110 q 561 -69 536 -41 l 536 -41 q 513 -16 481 -2 q 448 12 403 12 l 403 12 q 349 12 316 -7 q 283 -26 259 -55 l 259 -55 l 273 -61 q 251 -34 226 -18 q 200 -2 174 5 q 148 12 122 12 l 122 12 q 85 12 59 6 q 33 -1 8 -15 l 8 -15 l 47 -109 q 66 -101 86 -95 q 105 -89 128 -89 l 128 -89 q 136 -89 150 -91 q 164 -93 175 -101 l 175 -101 q 191 -117 196 -144 q 200 -172 200 -231 l 200 -231 l 200 -556 l 326 -562 l 326 -219 q 326 -174 332 -150 q 337 -127 348 -112 l 348 -112 q 354 -103 368 -96 q 381 -90 395 -90 l 395 -90 q 411 -90 424 -95 q 437 -100 446 -114 l 446 -114 q 454 -128 457 -147 q 460 -166 460 -205 l 460 -205 l 460 -346 q 460 -381 466 -413 q 472 -445 484 -474 q 495 -503 516 -524 l 516 -524 q 536 -544 569 -559 q 602 -574 652 -574 z"},"൞":{"ha":1185,"x_min":34,"x_max":1158,"o":"m 311 -574 l 311 -574 q 388 -574 443 -548 q 498 -522 534 -474 q 570 -427 588 -365 q 606 -303 606 -229 l 606 -229 q 606 -138 584 -85 q 562 -33 521 -10 q 480 12 422 12 l 422 12 q 361 12 325 -12 q 289 -37 273 -74 q 257 -111 257 -152 l 257 -152 q 257 -204 276 -241 q 294 -279 329 -304 l 329 -304 q 348 -318 375 -327 q 401 -336 435 -340 q 468 -344 509 -344 l 509 -344 l 541 -344 l 541 -245 l 522 -245 q 472 -245 448 -239 q 424 -233 408 -221 l 408 -221 q 394 -209 387 -192 q 380 -176 380 -153 l 380 -153 q 380 -128 391 -109 q 402 -91 427 -91 l 427 -91 q 443 -91 455 -105 q 466 -119 473 -148 q 479 -178 479 -228 l 479 -228 q 479 -242 479 -258 q 479 -274 478 -282 l 478 -282 l 471 -309 q 470 -353 452 -390 q 434 -427 402 -449 q 370 -472 322 -472 l 322 -472 q 266 -472 231 -449 q 195 -426 179 -384 q 163 -343 163 -289 l 163 -289 q 163 -238 172 -197 q 181 -156 199 -120 q 217 -85 241 -49 l 241 -49 l 148 13 q 115 -26 89 -71 q 63 -116 49 -171 q 34 -226 34 -294 l 34 -294 q 34 -352 51 -402 q 68 -453 102 -491 q 136 -530 189 -552 q 241 -574 311 -574 z m 975 -200 l 975 -200 q 911 -200 871 -226 q 831 -253 813 -294 q 794 -336 794 -381 l 794 -381 q 794 -417 806 -445 q 817 -473 827 -492 l 827 -492 l 838 -462 l 669 -462 l 715 -496 q 727 -480 738 -454 q 748 -428 748 -398 l 748 -398 q 748 -345 727 -311 q 705 -277 665 -261 q 625 -245 570 -245 l 570 -245 l 549 -245 l 549 -344 l 573 -344 q 601 -344 616 -351 q 630 -358 636 -371 q 641 -385 641 -404 l 641 -404 q 641 -421 634 -440 q 627 -459 621 -469 l 621 -469 l 653 -562 l 901 -562 l 944 -502 q 935 -485 927 -457 q 918 -429 918 -390 l 918 -390 q 918 -351 932 -325 q 945 -299 973 -299 l 973 -299 q 994 -299 1007 -310 q 1019 -321 1026 -341 q 1032 -361 1032 -386 l 1032 -386 q 1032 -438 1019 -467 q 1005 -496 992 -525 l 992 -525 l 1099 -574 q 1127 -531 1143 -486 q 1158 -441 1158 -382 l 1158 -382 q 1158 -327 1136 -286 q 1114 -246 1073 -223 q 1031 -200 975 -200 z"},"ൟ":{"ha":1183,"x_min":23,"x_max":1159,"o":"m 23 -270 l 23 -270 q 23 -331 57 -368 q 91 -406 148 -406 l 148 -406 q 205 -406 240 -369 q 274 -332 274 -270 l 274 -270 q 274 -208 241 -171 q 207 -134 148 -134 l 148 -134 q 90 -134 57 -170 q 23 -207 23 -270 z m 112 -271 l 112 -271 q 112 -244 121 -229 q 130 -214 148 -214 l 148 -214 q 168 -214 177 -228 q 186 -243 186 -270 l 186 -270 q 186 -297 177 -311 q 168 -326 148 -326 l 148 -326 q 131 -326 122 -312 q 112 -298 112 -271 z m 908 -270 l 908 -270 q 908 -331 942 -368 q 975 -406 1033 -406 l 1033 -406 q 1090 -406 1125 -369 q 1159 -332 1159 -270 l 1159 -270 q 1159 -208 1126 -171 q 1092 -134 1033 -134 l 1033 -134 q 975 -134 942 -170 q 908 -207 908 -270 z m 996 -271 l 996 -271 q 996 -244 1006 -229 q 1015 -214 1033 -214 l 1033 -214 q 1053 -214 1062 -228 q 1071 -243 1071 -270 l 1071 -270 q 1071 -297 1062 -311 q 1053 -326 1033 -326 l 1033 -326 q 1015 -326 1006 -312 q 996 -298 996 -271 z m 584 -574 l 584 -574 q 658 -574 713 -548 q 768 -523 805 -477 q 841 -432 860 -370 q 878 -308 878 -236 l 878 -236 q 878 -145 857 -90 q 835 -35 794 -11 q 752 12 692 12 l 692 12 q 631 12 594 -16 q 557 -45 540 -94 q 523 -144 523 -206 l 523 -206 q 523 -302 562 -354 q 600 -407 674 -407 l 674 -407 q 715 -407 745 -384 q 775 -362 796 -323 q 817 -285 829 -238 l 829 -238 l 780 -231 q 775 -251 766 -269 q 756 -288 741 -300 q 726 -313 706 -313 l 706 -313 q 675 -313 662 -285 q 648 -258 648 -200 l 648 -200 q 648 -164 654 -138 q 659 -112 671 -99 q 682 -86 700 -86 l 700 -86 q 718 -86 730 -99 q 741 -113 747 -145 q 753 -177 753 -232 l 753 -232 q 753 -251 752 -270 q 751 -290 749 -307 l 749 -307 q 748 -312 747 -319 q 746 -327 744 -331 l 744 -331 q 739 -367 720 -399 q 700 -432 668 -452 q 636 -472 594 -472 l 594 -472 q 537 -472 502 -449 q 467 -426 451 -384 q 434 -343 434 -289 l 434 -289 q 434 -238 443 -197 q 452 -156 470 -120 q 488 -85 512 -49 l 512 -49 l 419 13 q 386 -26 360 -71 q 334 -116 320 -171 q 305 -226 305 -294 l 305 -294 q 305 -352 322 -402 q 339 -453 373 -491 q 407 -530 460 -552 q 513 -574 584 -574 z"},"ൠ":{"ha":797,"x_min":31,"x_max":766,"o":"m 587 -574 l 587 -574 q 669 -574 718 -518 q 766 -463 766 -352 l 766 -352 q 766 -283 745 -234 q 723 -185 686 -152 l 686 -152 q 648 -113 600 -91 q 552 -70 489 -66 l 489 -66 l 448 -83 l 335 -80 l 297 -68 q 233 -74 192 -94 q 151 -115 117 -151 l 117 -151 q 77 -186 54 -235 q 31 -284 31 -354 l 31 -354 q 31 -421 54 -470 q 77 -519 120 -546 q 162 -574 217 -574 l 217 -574 q 269 -574 306 -552 q 342 -531 361 -492 q 379 -454 379 -404 l 379 -404 q 379 -343 360 -304 q 341 -265 308 -247 q 274 -229 230 -229 l 230 -229 q 200 -229 169 -242 q 137 -256 111 -275 q 85 -294 70 -311 l 70 -311 l 103 -409 q 119 -382 133 -362 q 146 -342 162 -331 q 177 -321 197 -321 l 197 -321 q 225 -321 241 -340 q 257 -360 257 -408 l 257 -408 q 257 -443 244 -461 q 230 -479 213 -479 l 213 -479 q 193 -479 179 -467 q 165 -455 158 -431 q 150 -407 150 -369 l 150 -369 q 150 -346 154 -324 q 157 -303 162 -286 l 162 -286 l 158 -259 q 169 -233 194 -215 q 219 -197 250 -186 q 281 -175 311 -169 q 340 -164 360 -164 l 360 -164 l 442 -164 q 456 -164 484 -168 q 512 -172 544 -183 q 576 -194 603 -212 q 629 -231 641 -260 l 641 -260 l 637 -287 q 642 -303 645 -324 q 648 -345 648 -371 l 648 -371 q 648 -408 641 -431 q 634 -455 622 -467 q 609 -479 589 -479 l 589 -479 q 571 -479 557 -460 q 542 -441 542 -401 l 542 -401 q 542 -358 557 -339 q 572 -321 599 -321 l 599 -321 q 621 -321 637 -331 q 652 -342 666 -361 q 679 -381 694 -410 l 694 -410 l 728 -311 q 714 -295 689 -275 q 663 -256 632 -242 q 600 -229 567 -229 l 567 -229 q 524 -229 491 -246 q 458 -264 439 -301 q 420 -339 420 -398 l 420 -398 q 420 -452 441 -492 q 462 -532 500 -553 q 537 -574 587 -574 z m 396 249 l 396 249 q 305 249 237 228 q 169 207 132 163 q 95 118 95 46 l 95 46 q 95 0 114 -33 q 133 -67 169 -88 q 204 -109 252 -119 q 300 -129 356 -129 l 356 -129 l 439 -129 q 499 -129 547 -119 q 595 -109 631 -88 q 666 -67 685 -33 q 703 0 703 47 l 703 47 q 703 111 670 157 q 636 202 568 226 q 499 249 396 249 z m 400 148 l 400 148 q 470 148 510 136 q 549 123 566 100 q 582 76 582 43 l 582 43 q 582 11 567 -10 q 552 -31 527 -43 q 501 -56 471 -61 q 440 -66 409 -66 l 409 -66 l 394 -66 q 346 -66 306 -55 q 265 -45 241 -21 q 216 2 216 43 l 216 43 q 216 78 233 101 q 250 124 291 136 q 331 148 400 148 z m 462 -37 l 462 -37 q 488 -37 505 -26 q 521 -16 529 1 q 537 17 540 37 q 543 56 543 73 l 543 73 l 543 110 l 470 110 l 470 87 q 470 71 468 60 q 466 49 453 49 l 453 49 q 441 49 439 60 q 436 70 436 86 l 436 86 l 436 110 l 361 110 l 361 86 q 361 69 359 59 q 356 49 345 49 l 345 49 q 333 49 331 61 q 328 72 328 87 l 328 87 l 328 110 l 254 110 l 254 74 q 254 57 257 37 q 260 17 268 1 q 276 -16 293 -26 q 309 -37 336 -37 l 336 -37 q 359 -37 373 -28 q 386 -20 398 -6 l 398 -6 q 413 -23 429 -30 q 444 -37 462 -37 z"},"ൡ":{"ha":1129,"x_min":35,"x_max":1109,"o":"m 314 -574 l 314 -574 q 381 -574 426 -550 q 470 -527 506 -479 l 506 -479 l 517 -388 l 550 -233 l 550 0 l 423 0 l 423 -293 q 423 -365 415 -396 q 406 -428 391 -444 l 391 -444 q 379 -457 362 -465 q 344 -473 314 -473 l 314 -473 q 268 -473 232 -449 q 195 -425 173 -373 q 150 -322 150 -242 l 150 -242 l 150 -231 q 150 -171 158 -140 q 165 -109 178 -98 q 191 -87 206 -87 l 206 -87 q 219 -87 229 -95 q 238 -103 243 -120 q 247 -138 247 -168 l 247 -168 q 247 -212 237 -231 q 227 -250 200 -250 l 200 -250 q 176 -250 153 -233 q 130 -217 105 -180 l 105 -180 l 87 -272 q 107 -297 147 -320 q 186 -344 234 -344 l 234 -344 q 278 -344 309 -323 q 339 -303 354 -265 q 369 -227 369 -174 l 369 -174 q 369 -112 350 -71 q 331 -30 296 -9 q 261 12 211 12 l 211 12 q 165 12 125 -12 q 85 -37 60 -93 q 35 -149 35 -243 l 35 -243 q 35 -355 71 -428 q 107 -502 171 -538 q 234 -574 314 -574 z m 672 -574 l 672 -574 q 760 -574 816 -540 q 872 -506 901 -454 q 930 -402 937 -347 l 937 -347 q 942 -320 944 -291 q 945 -262 945 -233 l 945 -233 q 945 -148 925 -93 q 905 -39 866 -13 q 826 12 767 12 l 767 12 q 708 12 671 -13 q 634 -38 617 -80 q 600 -123 600 -181 l 600 -181 q 600 -288 663 -343 q 726 -399 830 -399 l 830 -399 q 852 -399 865 -399 q 877 -399 883 -397 l 883 -397 l 906 -395 q 967 -383 1013 -343 q 1058 -304 1084 -242 q 1109 -180 1109 -97 l 1109 -97 q 1109 -38 1096 16 q 1082 70 1051 112 q 1019 153 967 177 q 914 201 838 201 l 838 201 q 804 201 777 197 q 749 192 720 183 l 720 183 l 753 86 q 776 93 795 96 q 813 98 837 98 l 837 98 q 885 98 915 80 q 944 62 961 33 q 977 4 983 -31 q 989 -67 989 -101 l 989 -101 q 989 -149 982 -184 q 974 -219 959 -245 q 943 -271 918 -288 l 918 -288 l 878 -295 q 869 -300 856 -301 q 843 -303 832 -303 l 832 -303 q 794 -303 770 -287 q 746 -272 735 -245 q 723 -219 723 -181 l 723 -181 q 723 -151 729 -130 q 735 -110 745 -99 q 755 -89 772 -89 l 772 -89 q 800 -89 813 -118 q 825 -148 825 -233 l 825 -233 q 825 -272 819 -306 q 813 -341 803 -369 l 803 -369 l 800 -382 q 788 -413 767 -433 q 746 -454 722 -463 q 697 -472 670 -472 l 670 -472 q 651 -472 633 -469 q 615 -466 595 -451 l 595 -451 q 582 -442 572 -426 q 562 -410 556 -378 q 550 -346 550 -285 l 550 -285 l 550 -212 l 466 -467 q 490 -503 519 -527 q 548 -551 585 -562 q 622 -574 672 -574 z"},"ൢ":{"ha":0,"x_min":-723,"x_max":-24,"o":"m -524 -26 l -524 -26 q -482 -26 -434 -11 q -387 3 -361 53 l -361 53 l -322 157 l -322 333 l -425 333 l -425 184 q -425 149 -430 123 q -435 96 -451 79 l -451 79 q -463 67 -481 61 q -500 54 -527 54 l -527 54 q -545 54 -564 60 q -583 66 -599 81 q -616 96 -627 124 l -627 124 q -631 138 -631 151 q -632 164 -632 189 l -632 189 q -632 231 -620 246 q -609 261 -595 261 l -595 261 q -581 261 -571 250 q -562 239 -562 211 l -562 211 q -562 185 -570 173 q -579 161 -600 161 l -600 161 q -620 161 -636 175 q -652 188 -671 211 l -671 211 l -697 150 q -666 122 -636 105 q -606 87 -578 87 l -578 87 q -524 87 -498 120 q -472 152 -472 209 l -472 209 q -472 268 -500 303 q -529 337 -590 337 l -590 337 q -651 337 -687 295 q -723 252 -723 175 l -723 175 q -723 110 -695 65 q -668 20 -623 -3 q -578 -26 -524 -26 z m -219 -27 l -219 -27 q -168 -27 -123 -4 q -79 19 -52 64 q -25 108 -25 172 l -25 172 q -25 258 -58 298 q -92 337 -152 337 l -152 337 q -195 337 -222 319 q -249 301 -261 270 q -273 239 -273 202 l -273 202 q -273 159 -260 130 q -247 100 -222 85 q -197 70 -163 70 l -163 70 q -138 70 -116 83 q -95 95 -77 121 q -59 146 -46 187 l -46 187 l -91 190 q -103 162 -114 150 q -126 138 -142 138 l -142 138 q -162 138 -172 154 q -183 169 -183 201 l -183 201 q -183 232 -174 247 q -165 261 -147 261 l -147 261 q -132 261 -124 239 q -116 217 -116 176 l -116 176 q -116 166 -115 157 q -115 147 -116 139 l -116 139 l -124 109 q -137 84 -157 73 q -177 61 -194 58 q -212 54 -223 54 l -223 54 q -245 54 -261 59 q -277 64 -287 71 l -287 71 q -306 85 -315 112 q -324 138 -322 190 l -322 190 l -411 124 q -408 62 -376 30 q -345 -2 -301 -14 q -257 -27 -219 -27 z"},"ൣ":{"ha":0,"x_min":-723,"x_max":86,"o":"m -524 -26 l -524 -26 q -482 -26 -434 -11 q -387 3 -361 53 l -361 53 l -322 157 l -322 333 l -425 333 l -425 184 q -425 149 -430 123 q -435 96 -451 79 l -451 79 q -463 67 -481 61 q -500 54 -527 54 l -527 54 q -545 54 -564 60 q -583 66 -599 81 q -616 96 -627 124 l -627 124 q -631 138 -631 151 q -632 164 -632 189 l -632 189 q -632 231 -620 246 q -609 261 -595 261 l -595 261 q -581 261 -571 250 q -562 239 -562 211 l -562 211 q -562 185 -570 173 q -579 161 -600 161 l -600 161 q -620 161 -636 175 q -652 188 -671 211 l -671 211 l -697 150 q -666 122 -636 105 q -606 87 -578 87 l -578 87 q -524 87 -498 120 q -472 152 -472 209 l -472 209 q -472 268 -500 303 q -529 337 -590 337 l -590 337 q -651 337 -687 295 q -723 252 -723 175 l -723 175 q -723 110 -695 65 q -668 20 -623 -3 q -578 -26 -524 -26 z m -219 -27 l -219 -27 q -167 -27 -124 -4 q -81 18 -55 62 q -29 106 -29 171 l -29 171 q -29 226 -43 263 q -57 300 -83 319 q -110 337 -149 337 l -149 337 q -198 337 -225 318 q -252 299 -262 270 q -273 240 -273 210 l -273 210 q -273 145 -232 105 q -192 64 -110 64 l -110 64 q -99 64 -88 65 q -77 66 -65 68 l -65 68 q -27 72 8 92 q 42 112 64 150 q 85 187 85 246 l 85 246 q 85 282 79 308 q 73 333 64 355 l 64 355 l -19 325 q -13 310 -10 292 q -7 274 -7 248 l -7 248 q -7 213 -17 186 q -27 158 -63 143 l -63 143 l -84 139 q -92 138 -100 137 q -109 135 -117 135 l -117 135 q -145 135 -164 154 q -183 173 -183 210 l -183 210 q -183 234 -174 248 q -165 261 -148 261 l -148 261 q -131 261 -123 239 q -116 216 -116 169 l -116 169 q -116 160 -116 151 q -116 142 -118 132 l -118 132 l -121 114 q -131 91 -148 79 q -165 66 -184 60 q -204 54 -223 54 l -223 54 q -246 54 -261 59 q -277 64 -287 71 l -287 71 q -306 85 -315 112 q -324 138 -322 190 l -322 190 l -408 124 q -406 77 -385 47 q -364 17 -334 2 q -305 -14 -274 -20 q -243 -27 -219 -27 z"},"൦":{"ha":487,"x_min":36,"x_max":450,"o":"m 245 -37 l 245 -37 q 181 -37 135 -64 q 88 -91 62 -145 q 36 -200 36 -282 l 36 -282 q 36 -363 62 -417 q 88 -472 135 -500 q 181 -528 244 -528 l 244 -528 q 312 -528 358 -499 q 403 -471 427 -416 q 450 -361 450 -282 l 450 -282 q 450 -203 425 -148 q 399 -93 353 -65 q 307 -37 245 -37 z m 244 -136 l 244 -136 q 267 -136 285 -150 q 303 -165 314 -198 q 324 -231 324 -283 l 324 -283 q 324 -359 301 -394 q 278 -429 244 -429 l 244 -429 q 211 -429 187 -394 q 162 -360 162 -282 l 162 -282 q 162 -204 186 -170 q 209 -136 244 -136 z"},"൧":{"ha":771,"x_min":11,"x_max":721,"o":"m 330 99 l 330 201 l 252 201 q 179 201 138 192 q 97 183 73 168 l 73 168 q 43 148 27 120 q 11 91 11 53 l 11 53 q 11 16 27 -15 q 43 -46 76 -67 l 76 -67 q 92 -78 113 -85 q 134 -92 167 -96 q 199 -100 248 -100 l 248 -100 l 356 -100 l 413 0 l 242 0 q 204 0 189 2 q 173 3 162 9 l 162 9 q 149 15 144 25 q 138 35 138 49 l 138 49 q 138 73 159 87 l 159 87 q 170 94 190 97 q 210 99 248 99 l 248 99 l 330 99 z m 505 -574 l 505 -574 q 560 -574 597 -560 q 634 -546 658 -523 l 658 -523 q 695 -488 708 -438 q 721 -389 721 -311 l 721 -311 l 721 0 l 286 0 l 286 -302 q 286 -359 292 -399 q 297 -439 310 -468 q 323 -497 347 -521 l 347 -521 q 370 -544 409 -559 q 447 -574 505 -574 z m 504 -474 l 504 -474 q 481 -474 466 -467 q 451 -460 441 -450 l 441 -450 q 426 -431 420 -401 q 413 -372 413 -310 l 413 -310 l 413 -100 l 594 -100 l 594 -304 q 594 -371 588 -401 q 581 -431 566 -449 l 566 -449 q 557 -460 540 -467 q 522 -474 504 -474 z"},"൨":{"ha":716,"x_min":33,"x_max":698,"o":"m 290 -574 l 290 -574 q 359 -574 407 -551 q 454 -529 484 -490 q 514 -452 527 -404 q 539 -356 539 -305 l 539 -305 q 539 -244 527 -194 q 514 -145 492 -103 q 470 -62 441 -22 l 441 -22 l 477 -100 l 698 -100 l 698 0 l 398 0 l 338 -62 q 357 -89 374 -122 q 391 -155 401 -196 q 411 -238 411 -291 l 411 -291 q 411 -346 396 -387 q 380 -428 354 -450 q 327 -472 293 -472 l 293 -472 q 254 -472 225 -451 q 196 -430 181 -389 q 165 -349 165 -293 l 165 -293 q 165 -241 174 -199 q 183 -158 201 -121 q 218 -85 243 -50 l 243 -50 l 147 13 q 114 -25 88 -70 q 62 -115 48 -170 q 33 -226 33 -294 l 33 -294 q 33 -346 47 -396 q 61 -446 92 -486 q 122 -527 171 -550 q 220 -574 290 -574 z"},"൩":{"ha":901,"x_min":34,"x_max":882,"o":"m 247 -574 l 247 -574 q 281 -574 304 -566 q 327 -558 347 -543 q 366 -529 387 -505 l 387 -505 l 373 -505 q 404 -542 440 -558 q 475 -574 522 -574 l 522 -574 q 588 -574 634 -540 q 679 -507 704 -448 q 728 -389 728 -309 l 728 -309 q 728 -248 718 -200 q 707 -153 683 -110 q 659 -67 619 -17 l 619 -17 l 641 0 l 593 0 l 532 -63 q 561 -106 576 -145 q 590 -184 595 -221 q 600 -259 600 -300 l 600 -300 q 600 -360 587 -398 q 574 -437 553 -455 q 532 -473 507 -473 l 507 -473 q 495 -473 486 -469 q 477 -466 470 -462 l 470 -462 q 456 -449 451 -423 q 445 -397 445 -351 l 445 -351 l 445 0 l 318 0 l 318 -355 q 318 -408 312 -429 q 306 -450 294 -464 l 294 -464 q 289 -468 280 -470 q 270 -473 257 -473 l 257 -473 q 234 -473 213 -456 q 191 -440 177 -402 q 162 -364 162 -300 l 162 -300 q 162 -255 170 -211 q 178 -168 194 -127 q 210 -86 234 -49 l 234 -49 l 133 13 q 104 -31 82 -80 q 59 -130 47 -186 q 34 -242 34 -305 l 34 -305 q 34 -382 58 -443 q 82 -504 130 -539 q 177 -574 247 -574 z m 613 0 l 656 -100 l 882 -100 l 882 0 l 613 0 z"},"൪":{"ha":672,"x_min":34,"x_max":667,"o":"m 312 -574 l 312 -574 q 383 -574 433 -550 q 482 -527 520 -485 l 520 -485 q 572 -433 594 -365 q 616 -298 616 -224 l 616 -224 q 616 -146 595 -93 q 574 -41 532 -14 q 489 12 426 12 l 426 12 q 367 12 327 -14 q 286 -41 265 -85 q 244 -129 244 -183 l 244 -183 q 244 -248 269 -295 q 294 -343 340 -387 q 385 -432 450 -484 l 450 -484 q 491 -515 510 -534 q 528 -554 534 -573 q 540 -593 540 -619 l 540 -619 q 540 -637 534 -657 q 528 -677 518 -691 l 518 -691 l 632 -744 q 647 -718 657 -689 q 667 -661 667 -626 l 667 -626 q 667 -580 650 -543 q 632 -507 596 -474 q 560 -441 505 -401 l 505 -401 q 469 -370 439 -336 q 408 -302 389 -263 q 370 -224 370 -176 l 370 -176 q 370 -136 383 -111 q 395 -86 425 -86 l 425 -86 q 445 -86 459 -97 q 473 -108 480 -134 q 487 -160 487 -206 l 487 -206 q 487 -275 466 -338 q 444 -401 398 -440 l 398 -440 q 384 -455 363 -465 q 342 -475 319 -475 l 319 -475 q 268 -475 234 -453 q 199 -432 181 -391 q 163 -350 163 -293 l 163 -293 q 163 -240 172 -198 q 180 -157 198 -121 q 216 -85 241 -50 l 241 -50 l 148 13 q 115 -25 89 -70 q 63 -116 49 -171 q 34 -226 34 -294 l 34 -294 q 34 -351 51 -401 q 67 -452 101 -490 q 134 -529 187 -551 q 239 -574 312 -574 z"},"൫":{"ha":878,"x_min":40,"x_max":838,"o":"m 445 -730 l 445 -730 q 543 -730 617 -698 q 690 -666 740 -606 q 789 -547 814 -466 q 838 -386 838 -291 l 838 -291 q 838 -217 826 -140 q 814 -63 788 11 l 788 11 l 677 -25 q 691 -65 699 -108 q 706 -152 711 -195 q 715 -239 715 -281 l 715 -281 q 715 -360 698 -424 q 680 -488 647 -533 q 614 -579 564 -603 q 513 -627 446 -627 l 446 -627 q 363 -627 300 -586 q 236 -545 200 -463 q 163 -382 163 -260 l 163 -260 q 163 -186 176 -125 q 189 -64 215 -19 q 241 26 281 50 q 320 74 374 74 l 374 74 q 455 74 490 37 q 524 -1 524 -67 l 524 -67 q 524 -105 516 -134 q 507 -164 487 -181 q 467 -199 432 -199 l 432 -199 l 424 -199 l 424 -295 l 428 -295 q 455 -295 468 -298 q 481 -302 491 -307 l 491 -307 q 505 -317 512 -332 q 519 -347 519 -372 l 519 -372 q 519 -406 505 -423 q 490 -441 460 -441 l 460 -441 q 429 -441 408 -419 q 386 -398 376 -359 q 365 -320 365 -264 l 365 -264 q 365 -206 379 -148 q 392 -90 416 -36 l 416 -36 l 302 6 q 273 -59 255 -126 q 237 -194 237 -274 l 237 -274 q 237 -354 265 -414 q 293 -475 345 -509 q 396 -543 465 -543 l 465 -543 q 526 -543 566 -521 q 605 -499 626 -461 q 646 -423 646 -375 l 646 -375 q 646 -348 638 -323 q 629 -299 612 -279 q 595 -260 568 -245 l 568 -245 l 547 -259 q 588 -241 620 -189 q 651 -137 651 -63 l 651 -63 q 651 15 620 69 q 588 122 527 150 q 466 177 382 177 l 382 177 q 274 177 198 127 q 121 77 81 -18 q 40 -114 40 -251 l 40 -251 q 40 -373 72 -463 q 104 -553 161 -612 q 217 -671 290 -700 q 363 -730 445 -730 z"},"൬":{"ha":1019,"x_min":34,"x_max":980,"o":"m 503 -574 l 503 -574 q 549 -574 582 -556 q 615 -538 642 -503 l 642 -503 l 699 -317 l 699 0 l 572 0 l 572 -342 q 572 -385 569 -410 q 565 -435 553 -451 l 553 -451 q 545 -461 534 -467 q 523 -473 504 -473 l 504 -473 q 489 -473 477 -467 q 464 -461 455 -450 l 455 -450 q 444 -434 439 -410 q 434 -386 434 -338 l 434 -338 l 434 0 l 307 0 l 307 -361 q 307 -407 303 -426 q 299 -446 287 -460 l 287 -460 q 281 -465 273 -469 q 264 -473 250 -473 l 250 -473 q 228 -473 208 -456 q 188 -439 175 -400 q 162 -362 162 -300 l 162 -300 q 162 -255 170 -212 q 177 -169 193 -128 q 209 -87 233 -50 l 233 -50 l 132 12 q 103 -33 81 -82 q 58 -131 46 -186 q 34 -242 34 -305 l 34 -305 q 34 -380 57 -441 q 80 -503 127 -538 q 173 -574 240 -574 l 240 -574 q 287 -574 319 -556 q 350 -539 378 -503 l 378 -503 l 360 -494 q 392 -538 427 -556 q 462 -574 503 -574 z m 778 -574 l 778 -574 q 876 -574 928 -490 q 980 -407 980 -231 l 980 -231 q 980 -83 951 13 q 922 108 856 155 q 789 201 675 201 l 675 201 q 657 201 634 199 q 610 197 588 193 l 588 193 l 595 92 q 610 97 628 98 q 646 99 664 99 l 664 99 q 723 99 761 76 q 798 52 818 9 q 837 -35 844 -94 q 851 -154 851 -227 l 851 -227 q 851 -308 841 -362 q 831 -417 812 -445 q 793 -473 765 -473 l 765 -473 q 752 -473 743 -470 q 734 -468 726 -461 l 726 -461 q 709 -445 704 -414 q 699 -384 699 -329 l 699 -329 l 699 -10 l 581 -10 l 581 -320 l 626 -499 q 656 -538 692 -556 q 728 -574 778 -574 z"},"൭":{"ha":634,"x_min":36,"x_max":597,"o":"m 323 -574 l 323 -574 q 394 -574 446 -548 q 497 -522 531 -474 q 565 -426 581 -358 q 597 -291 597 -207 l 597 -207 q 597 -105 578 -28 q 559 49 521 100 q 482 151 425 176 q 367 201 289 201 l 289 201 q 262 201 237 200 q 212 198 188 193 l 188 193 l 197 92 q 213 96 233 98 q 253 99 271 99 l 271 99 q 326 99 364 78 q 402 57 425 17 q 448 -23 458 -80 q 467 -138 467 -209 l 467 -209 q 467 -344 425 -408 q 383 -472 312 -472 l 312 -472 q 256 -472 220 -440 q 183 -409 167 -356 q 151 -304 151 -240 l 151 -240 l 151 -231 q 151 -170 158 -138 q 165 -107 179 -96 q 192 -86 207 -86 l 207 -86 q 220 -86 229 -94 q 238 -102 243 -119 q 248 -136 248 -166 l 248 -166 q 248 -212 238 -231 q 227 -250 199 -250 l 199 -250 q 174 -250 150 -231 q 125 -213 99 -174 l 99 -174 l 88 -272 q 108 -297 146 -320 q 184 -344 233 -344 l 233 -344 q 278 -344 308 -323 q 338 -303 354 -265 q 369 -227 369 -174 l 369 -174 q 369 -114 351 -73 q 332 -32 298 -10 q 264 12 214 12 l 214 12 q 167 12 126 -13 q 85 -38 61 -93 q 36 -148 36 -242 l 36 -242 q 36 -343 71 -417 q 105 -492 169 -533 q 233 -574 323 -574 z"},"൮":{"ha":811,"x_min":33,"x_max":757,"o":"m 290 -574 l 290 -574 q 359 -574 407 -551 q 454 -529 484 -490 q 514 -452 527 -404 q 539 -356 539 -305 l 539 -305 q 539 -244 527 -194 q 514 -145 492 -103 q 470 -62 441 -22 l 441 -22 l 477 -100 l 630 -100 l 630 -562 l 757 -562 l 757 -161 l 692 0 l 398 0 l 338 -62 q 357 -89 374 -122 q 391 -155 401 -196 q 411 -238 411 -291 l 411 -291 q 411 -346 396 -387 q 380 -428 354 -450 q 327 -472 293 -472 l 293 -472 q 254 -472 225 -451 q 196 -430 181 -389 q 165 -349 165 -293 l 165 -293 q 165 -241 174 -199 q 183 -158 201 -121 q 218 -85 243 -50 l 243 -50 l 147 13 q 114 -25 88 -70 q 62 -115 48 -170 q 33 -226 33 -294 l 33 -294 q 33 -346 47 -396 q 61 -446 92 -486 q 122 -527 171 -550 q 220 -574 290 -574 z m 487 201 l 487 201 q 459 201 433 199 q 406 196 384 190 l 384 190 l 397 89 q 412 93 433 96 q 454 98 470 98 l 470 98 q 518 98 549 87 q 580 76 597 55 q 614 34 621 7 q 628 -21 629 -54 l 629 -54 l 757 -259 l 757 -118 q 757 -45 751 5 q 744 54 727 88 q 710 121 679 147 l 679 147 q 650 170 604 186 q 557 201 487 201 z"},"൯":{"ha":945,"x_min":34,"x_max":938,"o":"m 249 -574 l 249 -574 q 284 -574 310 -566 q 335 -558 358 -541 q 381 -524 408 -499 l 408 -499 l 444 -250 l 444 0 l 318 0 l 318 -358 q 318 -407 312 -428 q 306 -450 294 -464 l 294 -464 q 289 -468 280 -470 q 270 -473 257 -473 l 257 -473 q 234 -473 213 -456 q 191 -440 177 -401 q 162 -363 162 -300 l 162 -300 q 162 -255 170 -211 q 178 -168 194 -127 q 210 -86 234 -49 l 234 -49 l 133 13 q 104 -31 82 -80 q 59 -130 47 -186 q 34 -242 34 -305 l 34 -305 q 34 -382 58 -443 q 82 -504 130 -539 q 178 -574 249 -574 z m 568 -574 l 568 -574 q 644 -574 698 -550 q 751 -526 791 -482 l 791 -482 q 841 -430 864 -363 q 887 -296 887 -224 l 887 -224 q 887 -146 866 -93 q 845 -41 803 -14 q 761 12 698 12 l 698 12 q 638 12 598 -14 q 557 -41 536 -85 q 515 -129 515 -183 l 515 -183 q 515 -248 540 -295 q 565 -343 611 -387 q 656 -432 721 -484 l 721 -484 q 761 -515 780 -534 q 799 -554 805 -573 q 811 -593 811 -619 l 811 -619 q 811 -637 805 -657 q 799 -677 789 -691 l 789 -691 l 903 -744 q 918 -718 928 -689 q 938 -661 938 -626 l 938 -626 q 938 -580 921 -543 q 903 -507 868 -474 q 832 -441 776 -401 l 776 -401 q 740 -370 710 -336 q 679 -302 660 -263 q 641 -224 641 -176 l 641 -176 q 641 -136 654 -111 q 666 -86 695 -86 l 695 -86 q 717 -86 731 -97 q 744 -108 751 -134 q 758 -160 758 -206 l 758 -206 q 758 -278 735 -339 q 712 -400 666 -439 l 666 -439 q 651 -455 627 -465 q 603 -475 568 -475 l 568 -475 q 552 -475 532 -470 q 511 -465 491 -450 l 491 -450 q 475 -437 464 -417 q 453 -398 449 -367 q 444 -337 444 -290 l 444 -290 l 444 -7 l 325 -7 l 325 -306 l 360 -466 q 384 -496 411 -520 q 438 -545 476 -559 q 514 -574 568 -574 z"},"൰":{"ha":859,"x_min":-23,"x_max":825,"o":"m 150 -562 l 276 -562 l 276 -158 l 276 -112 q 276 -29 266 25 q 256 78 232 117 l 232 117 q 208 156 163 179 q 118 201 57 201 l 57 201 q 35 201 15 199 q -5 196 -23 192 l -23 192 l -13 93 q -2 95 12 97 q 25 99 38 99 l 38 99 q 70 99 89 90 q 108 80 121 66 l 121 66 q 141 43 146 5 q 150 -33 150 -94 l 150 -94 l 150 -562 z m 620 12 l 620 12 q 576 12 540 -3 q 504 -19 472 -58 l 472 -58 l 494 -68 q 459 -24 429 -6 q 398 12 358 12 l 358 12 q 324 12 298 3 q 272 -7 253 -26 q 233 -45 216 -73 l 216 -73 l 172 -258 l 173 -568 l 276 -543 l 276 -221 q 276 -173 281 -150 q 285 -127 296 -111 l 296 -111 q 304 -100 317 -94 q 329 -89 348 -89 l 348 -89 q 365 -89 377 -95 q 389 -101 398 -111 l 398 -111 q 410 -127 415 -150 q 419 -174 419 -226 l 419 -226 l 419 -562 l 546 -562 l 546 -231 q 546 -170 549 -143 q 552 -116 567 -101 l 567 -101 q 576 -94 588 -91 q 599 -89 604 -89 l 604 -89 q 630 -89 651 -108 q 672 -127 684 -166 q 696 -205 696 -263 l 696 -263 q 696 -307 689 -349 q 681 -392 665 -433 q 649 -475 624 -512 l 624 -512 l 725 -574 q 757 -530 779 -480 q 801 -431 813 -374 q 825 -318 825 -253 l 825 -253 q 825 -177 802 -117 q 778 -57 733 -22 q 688 12 620 12 z"},"൱":{"ha":772,"x_min":34,"x_max":733,"o":"m 249 -574 l 249 -574 q 283 -574 307 -566 q 330 -558 352 -542 q 373 -526 399 -498 l 399 -498 l 445 -250 l 445 0 l 318 0 l 318 -358 q 318 -407 312 -428 q 306 -450 294 -464 l 294 -464 q 289 -468 280 -470 q 270 -473 257 -473 l 257 -473 q 234 -473 213 -456 q 191 -440 177 -402 q 162 -364 162 -300 l 162 -300 q 162 -255 170 -211 q 178 -168 194 -127 q 210 -86 234 -49 l 234 -49 l 133 13 q 104 -31 82 -80 q 59 -130 47 -186 q 34 -242 34 -305 l 34 -305 q 34 -382 58 -443 q 82 -504 130 -539 q 178 -574 249 -574 z m 526 -574 l 526 -574 q 592 -574 639 -537 q 686 -501 710 -425 q 733 -349 733 -231 l 733 -231 q 733 -83 704 13 q 674 108 608 155 q 541 201 427 201 l 427 201 q 407 201 384 199 q 361 197 336 193 l 336 193 l 343 92 q 358 96 378 98 q 397 99 417 99 l 417 99 q 476 99 514 76 q 551 52 571 9 q 590 -35 597 -94 q 604 -154 604 -227 l 604 -227 q 604 -309 594 -363 q 583 -418 563 -445 q 543 -473 514 -473 l 514 -473 q 501 -473 491 -470 q 481 -468 472 -461 l 472 -461 q 455 -446 450 -417 q 445 -388 445 -331 l 445 -331 l 445 -10 l 326 -10 l 326 -311 l 372 -499 q 403 -537 439 -555 q 475 -574 526 -574 z"},"൲":{"ha":1194,"x_min":36,"x_max":1175,"o":"m 1024 -562 l 1024 -562 q 1078 -562 1111 -540 q 1144 -519 1160 -485 q 1175 -451 1175 -411 l 1175 -411 q 1175 -372 1161 -340 q 1146 -308 1121 -287 l 1121 -287 q 1103 -272 1081 -262 q 1059 -253 1027 -249 q 994 -245 946 -245 l 946 -245 l 796 -245 l 798 -344 l 962 -344 q 993 -344 1011 -348 q 1028 -353 1037 -359 l 1037 -359 q 1050 -368 1055 -379 q 1060 -391 1060 -415 l 1060 -415 q 1060 -437 1050 -450 q 1040 -464 1022 -464 l 1022 -464 q 1003 -464 993 -448 q 982 -432 982 -404 l 982 -404 q 982 -370 993 -346 q 1003 -322 1018 -302 l 1018 -302 l 908 -296 q 893 -316 883 -348 q 872 -381 872 -413 l 872 -413 q 872 -462 892 -495 q 912 -528 947 -545 q 981 -562 1024 -562 z m 251 -574 l 251 -574 q 284 -574 308 -566 q 331 -559 352 -543 q 373 -528 398 -503 l 398 -503 l 446 -235 l 446 0 l 320 0 l 320 -358 q 320 -407 314 -428 q 308 -450 296 -464 l 296 -464 q 291 -468 282 -470 q 272 -473 259 -473 l 259 -473 q 236 -473 215 -456 q 193 -440 179 -402 q 164 -364 164 -300 l 164 -300 q 164 -255 172 -211 q 180 -168 196 -127 q 212 -86 236 -49 l 236 -49 l 135 13 q 106 -31 84 -80 q 61 -130 49 -186 q 36 -242 36 -305 l 36 -305 q 36 -382 60 -443 q 84 -504 132 -539 q 180 -574 251 -574 z m 559 -574 l 559 -574 q 621 -574 673 -550 q 724 -527 762 -483 q 800 -439 822 -374 q 843 -309 843 -226 l 843 -226 q 843 -139 821 -86 q 798 -34 757 -11 q 716 12 658 12 l 658 12 q 598 12 562 -12 q 525 -36 510 -73 q 494 -111 494 -152 l 494 -152 q 494 -204 512 -241 q 530 -279 565 -304 l 565 -304 q 585 -318 610 -327 q 635 -336 669 -340 q 702 -344 746 -344 l 746 -344 l 937 -344 l 937 -245 l 753 -245 q 707 -245 684 -239 q 660 -233 644 -221 l 644 -221 q 630 -209 623 -192 q 616 -176 616 -153 l 616 -153 q 616 -128 627 -109 q 638 -91 663 -91 l 663 -91 q 679 -91 691 -105 q 703 -119 709 -147 q 715 -175 715 -223 l 715 -223 q 715 -238 715 -254 q 715 -270 714 -283 l 714 -283 l 705 -322 q 701 -356 687 -390 q 673 -425 644 -449 q 614 -473 564 -473 l 564 -473 q 546 -473 526 -467 q 506 -462 486 -446 l 486 -446 q 470 -432 462 -415 q 454 -398 450 -368 q 446 -339 446 -291 l 446 -291 l 446 -212 l 374 -231 l 362 -473 q 383 -502 409 -525 q 435 -548 471 -561 q 507 -574 559 -574 z"},"൳":{"ha":613,"x_min":35,"x_max":591,"o":"m 210 12 l 210 12 q 157 12 118 -14 q 79 -41 57 -93 q 35 -145 35 -222 l 35 -222 q 35 -300 59 -359 q 83 -419 130 -457 l 130 -457 q 163 -483 205 -498 q 246 -513 300 -520 q 354 -528 426 -528 l 426 -528 l 591 -528 l 591 -424 l 425 -424 q 367 -424 326 -419 q 284 -415 254 -404 q 224 -394 201 -377 l 201 -377 q 180 -360 169 -336 q 158 -313 152 -290 l 152 -290 l 154 -256 q 152 -249 151 -239 q 150 -229 150 -214 l 150 -214 q 150 -163 158 -135 q 165 -107 178 -96 q 190 -86 203 -86 l 203 -86 q 218 -86 228 -93 q 237 -101 242 -118 q 247 -136 247 -166 l 247 -166 q 247 -212 237 -231 q 226 -250 199 -250 l 199 -250 q 174 -250 149 -231 q 124 -213 98 -174 l 98 -174 l 73 -258 q 93 -289 136 -316 q 178 -344 232 -344 l 232 -344 q 277 -344 307 -323 q 337 -303 353 -265 q 368 -227 368 -174 l 368 -174 q 368 -113 350 -71 q 332 -30 298 -9 q 263 12 210 12 z"},"൴":{"ha":801,"x_min":35,"x_max":767,"o":"m 401 -789 l 528 -789 l 528 -192 q 528 -166 530 -146 q 532 -127 537 -113 q 542 -100 551 -92 l 551 -92 q 556 -90 563 -88 q 570 -87 580 -87 l 580 -87 q 597 -87 610 -99 q 623 -112 631 -140 q 638 -169 638 -218 l 638 -218 q 638 -266 629 -309 q 619 -352 599 -386 q 578 -421 545 -444 q 511 -468 465 -478 l 465 -478 l 442 -472 q 434 -472 424 -473 q 414 -474 403 -474 l 403 -474 q 344 -474 297 -459 q 250 -444 217 -414 q 184 -384 167 -340 q 150 -297 150 -239 l 150 -239 l 150 -223 q 150 -166 158 -136 q 165 -106 179 -96 q 192 -86 206 -86 l 206 -86 q 219 -86 229 -93 q 238 -101 243 -118 q 247 -136 247 -167 l 247 -167 q 247 -213 237 -231 q 227 -250 200 -250 l 200 -250 q 174 -250 149 -231 q 124 -213 98 -174 l 98 -174 l 74 -258 q 94 -289 136 -316 q 178 -344 232 -344 l 232 -344 q 277 -344 308 -323 q 338 -303 354 -265 q 369 -228 369 -174 l 369 -174 q 369 -114 350 -73 q 331 -32 297 -10 q 262 12 213 12 l 213 12 q 165 12 125 -12 q 85 -37 60 -89 q 35 -142 35 -228 l 35 -228 q 35 -312 61 -376 q 87 -441 136 -484 q 184 -528 251 -551 q 318 -574 401 -574 l 401 -574 q 419 -574 434 -574 q 449 -575 463 -573 l 463 -573 l 494 -569 q 550 -562 600 -535 q 650 -509 687 -464 q 724 -419 746 -358 q 767 -297 767 -222 l 767 -222 q 767 -151 746 -98 q 724 -46 683 -17 q 641 12 580 12 l 580 12 q 537 12 507 0 q 476 -12 454 -34 l 454 -34 q 435 -56 423 -83 q 411 -110 406 -147 q 401 -184 401 -233 l 401 -233 l 401 -789 z"},"൵":{"ha":1048,"x_min":35,"x_max":1043,"o":"m 314 -574 l 314 -574 q 381 -574 426 -550 q 471 -527 506 -477 l 506 -477 l 527 -393 l 550 -232 l 550 0 l 423 0 l 423 -293 q 423 -365 415 -396 q 406 -428 391 -444 l 391 -444 q 379 -457 362 -465 q 344 -473 314 -473 l 314 -473 q 268 -473 232 -449 q 195 -425 173 -373 q 150 -322 150 -242 l 150 -242 l 150 -231 q 150 -171 158 -139 q 165 -108 178 -97 q 191 -86 206 -86 l 206 -86 q 219 -86 229 -94 q 238 -102 243 -119 q 247 -137 247 -167 l 247 -167 q 247 -212 237 -231 q 227 -250 200 -250 l 200 -250 q 176 -250 153 -233 q 130 -217 105 -180 l 105 -180 l 87 -272 q 107 -297 147 -320 q 186 -344 234 -344 l 234 -344 q 278 -344 309 -323 q 339 -303 354 -265 q 369 -227 369 -174 l 369 -174 q 369 -112 350 -71 q 331 -30 296 -9 q 261 12 211 12 l 211 12 q 165 12 125 -12 q 85 -37 60 -93 q 35 -149 35 -243 l 35 -243 q 35 -355 71 -428 q 107 -502 171 -538 q 234 -574 314 -574 z m 674 -574 l 674 -574 q 750 -574 804 -550 q 857 -526 897 -482 l 897 -482 q 947 -430 970 -363 q 993 -296 993 -224 l 993 -224 q 993 -146 972 -93 q 951 -41 909 -14 q 867 12 804 12 l 804 12 q 744 12 704 -14 q 663 -41 642 -85 q 620 -129 620 -183 l 620 -183 q 620 -248 645 -295 q 670 -343 716 -387 q 762 -432 826 -484 l 826 -484 q 867 -515 886 -534 q 905 -554 911 -573 q 916 -593 916 -619 l 916 -619 q 916 -637 911 -657 q 905 -677 895 -691 l 895 -691 l 1009 -744 q 1024 -718 1034 -689 q 1043 -661 1043 -626 l 1043 -626 q 1043 -580 1026 -543 q 1009 -507 974 -474 q 938 -441 882 -401 l 882 -401 q 846 -370 815 -336 q 784 -302 765 -263 q 746 -224 746 -176 l 746 -176 q 746 -136 759 -111 q 772 -86 801 -86 l 801 -86 q 822 -86 836 -97 q 849 -108 856 -134 q 863 -160 863 -206 l 863 -206 q 863 -278 841 -339 q 818 -400 771 -439 l 771 -439 q 756 -455 733 -465 q 709 -475 674 -475 l 674 -475 q 658 -475 637 -470 q 616 -465 597 -450 l 597 -450 q 581 -437 570 -417 q 559 -398 555 -367 q 550 -337 550 -290 l 550 -290 l 550 -7 l 430 -7 l 430 -306 l 465 -466 q 490 -496 517 -520 q 544 -545 582 -559 q 620 -574 674 -574 z"},"൶":{"ha":1142,"x_min":28,"x_max":1094,"o":"m 212 -362 l 212 -362 q 276 -362 316 -335 q 356 -309 374 -268 q 392 -227 392 -181 l 392 -181 q 392 -145 380 -117 q 368 -89 360 -70 l 360 -70 l 349 -100 l 602 -100 l 623 0 l 285 0 l 242 -60 q 250 -78 259 -106 q 268 -134 268 -173 l 268 -173 q 268 -212 255 -237 q 242 -263 213 -263 l 213 -263 q 192 -263 180 -252 q 167 -241 161 -221 q 155 -201 155 -176 l 155 -176 q 155 -124 169 -94 q 183 -65 195 -37 l 195 -37 l 88 12 q 60 -32 44 -76 q 28 -121 28 -179 l 28 -179 q 28 -235 51 -275 q 73 -316 115 -339 q 156 -362 212 -362 z m 813 -574 l 813 -574 q 894 -574 945 -553 q 996 -533 1028 -500 l 1028 -500 q 1052 -475 1067 -443 q 1082 -411 1088 -367 q 1094 -324 1094 -265 l 1094 -265 l 1094 0 l 544 0 l 544 -268 q 544 -328 551 -371 q 558 -414 573 -446 q 587 -478 610 -501 l 610 -501 q 643 -535 690 -554 q 737 -574 813 -574 z m 742 -471 l 742 -471 q 725 -471 711 -457 q 696 -444 685 -420 l 685 -420 q 677 -401 673 -373 q 669 -345 669 -302 l 669 -302 l 669 -65 l 648 -68 q 687 -117 718 -172 q 749 -228 767 -285 q 784 -342 784 -395 l 784 -395 q 784 -420 781 -436 q 778 -453 769 -462 q 759 -471 742 -471 z m 909 -365 l 909 -365 q 909 -317 897 -272 q 884 -227 862 -182 q 839 -138 807 -89 l 807 -89 l 785 -96 q 802 -98 828 -99 q 853 -100 859 -100 l 859 -100 l 969 -100 l 969 -290 q 969 -348 958 -384 q 947 -421 926 -445 q 904 -469 869 -484 l 869 -484 l 871 -484 q 885 -467 897 -435 q 909 -403 909 -365 z"},"൷":{"ha":1488,"x_min":28,"x_max":1468,"o":"m 212 -362 l 212 -362 q 276 -362 316 -335 q 355 -309 374 -268 q 392 -227 392 -181 l 392 -181 q 392 -145 380 -117 q 368 -89 360 -70 l 360 -70 l 349 -100 l 546 -100 l 619 0 l 285 0 l 242 -60 q 251 -78 260 -106 q 268 -134 268 -172 l 268 -172 q 268 -212 255 -237 q 242 -263 213 -263 l 213 -263 q 192 -263 180 -252 q 167 -241 161 -221 q 155 -201 155 -176 l 155 -176 q 155 -124 169 -94 q 183 -65 195 -37 l 195 -37 l 88 12 q 60 -32 44 -76 q 28 -121 28 -180 l 28 -180 q 28 -235 51 -275 q 73 -316 115 -339 q 156 -362 212 -362 z m 682 -574 l 682 -574 q 717 -574 741 -566 q 764 -559 785 -543 q 805 -528 831 -503 l 831 -503 l 879 -289 l 879 -231 l 752 -231 l 752 -358 q 752 -408 746 -429 q 740 -450 728 -464 l 728 -464 q 723 -468 714 -470 q 704 -473 691 -473 l 691 -473 q 668 -473 647 -457 q 625 -441 611 -403 q 596 -366 596 -303 l 596 -303 q 596 -239 612 -179 q 628 -119 660 -63 l 660 -63 l 601 0 l 535 0 l 524 -80 q 507 -112 495 -146 q 482 -181 475 -221 q 468 -262 468 -309 l 468 -309 q 468 -385 492 -445 q 516 -505 564 -539 q 611 -574 682 -574 z m 1010 -574 l 1010 -574 q 1072 -574 1125 -550 q 1178 -526 1218 -482 q 1257 -438 1280 -373 q 1302 -308 1302 -226 l 1302 -226 q 1302 -138 1280 -86 q 1257 -34 1216 -11 q 1175 12 1117 12 l 1117 12 q 1057 12 1021 -12 q 984 -37 969 -74 q 953 -111 953 -152 l 953 -152 q 953 -204 972 -241 q 990 -279 1024 -304 l 1024 -304 q 1044 -318 1070 -327 q 1095 -336 1128 -340 q 1161 -344 1203 -344 l 1203 -344 l 1296 -344 l 1296 -245 l 1213 -245 q 1167 -245 1144 -239 q 1120 -233 1103 -221 l 1103 -221 q 1090 -209 1083 -192 q 1075 -176 1075 -153 l 1075 -153 q 1075 -128 1086 -109 q 1097 -91 1120 -91 l 1120 -91 q 1137 -91 1149 -105 q 1160 -120 1166 -148 q 1172 -177 1172 -223 l 1172 -223 q 1172 -238 1172 -254 q 1172 -270 1170 -283 l 1170 -283 l 1161 -322 q 1159 -355 1144 -390 q 1129 -425 1097 -449 q 1065 -473 1009 -473 l 1009 -473 q 979 -473 960 -468 q 940 -464 918 -446 l 918 -446 q 904 -433 896 -415 q 887 -398 883 -368 q 879 -339 879 -291 l 879 -291 l 879 -242 l 806 -229 l 798 -477 q 819 -506 847 -528 q 874 -550 914 -562 q 954 -574 1010 -574 z m 1334 -447 l 1458 -473 q 1463 -459 1466 -438 q 1468 -418 1468 -398 l 1468 -398 q 1468 -362 1456 -334 q 1444 -307 1422 -289 l 1422 -289 q 1395 -266 1357 -255 q 1319 -245 1249 -245 l 1249 -245 l 1265 -245 l 1265 -344 l 1243 -344 q 1268 -344 1287 -347 q 1305 -351 1316 -359 l 1316 -359 q 1329 -366 1335 -380 q 1340 -394 1340 -412 l 1340 -412 q 1340 -420 1338 -429 q 1336 -439 1334 -447 l 1334 -447 z"},"൸":{"ha":1843,"x_min":8,"x_max":1795,"o":"m 1176 -574 l 1176 -574 q 1195 -574 1214 -571 q 1233 -568 1253 -560 q 1272 -552 1291 -536 q 1310 -520 1329 -493 l 1329 -493 l 1298 -482 q 1321 -512 1352 -532 q 1383 -552 1423 -563 q 1463 -574 1514 -574 l 1514 -574 q 1594 -574 1645 -553 q 1696 -533 1729 -500 l 1729 -500 q 1753 -475 1768 -443 q 1782 -411 1789 -367 q 1795 -323 1795 -265 l 1795 -265 l 1795 0 l 1368 0 l 1368 -91 q 1398 -134 1425 -184 q 1452 -235 1469 -289 q 1485 -343 1485 -395 l 1485 -395 q 1485 -420 1482 -436 q 1478 -453 1469 -462 q 1459 -471 1441 -471 l 1441 -471 q 1427 -471 1412 -458 q 1396 -446 1385 -420 l 1385 -420 q 1377 -399 1374 -369 q 1370 -339 1370 -285 l 1370 -285 l 1370 -230 l 1245 -230 l 1245 -347 q 1245 -378 1242 -401 q 1239 -425 1233 -441 l 1233 -441 q 1227 -457 1213 -464 q 1199 -472 1177 -472 l 1177 -472 q 1158 -472 1146 -465 q 1133 -458 1127 -445 l 1127 -445 q 1118 -430 1115 -409 q 1111 -388 1111 -356 l 1111 -356 l 1111 -215 q 1111 -181 1106 -148 q 1100 -116 1088 -88 q 1075 -60 1054 -38 l 1054 -38 q 1034 -17 1001 -2 q 967 12 918 12 l 918 12 q 868 12 834 -3 q 799 -18 778 -39 l 778 -39 q 758 -61 745 -89 q 732 -118 727 -150 q 722 -182 722 -215 l 722 -215 l 722 -351 q 722 -382 719 -403 q 716 -425 709 -441 l 709 -441 q 703 -457 690 -464 q 676 -472 654 -472 l 654 -472 q 635 -472 622 -465 q 609 -458 603 -445 l 603 -445 q 594 -430 591 -409 q 588 -388 588 -356 l 588 -356 l 588 -219 q 588 -151 575 -110 q 561 -69 536 -41 l 536 -41 q 513 -16 481 -2 q 448 12 403 12 l 403 12 q 349 12 316 -7 q 283 -26 259 -55 l 259 -55 l 273 -61 q 251 -34 226 -18 q 200 -2 174 5 q 148 12 122 12 l 122 12 q 85 12 59 6 q 33 -1 8 -15 l 8 -15 l 47 -109 q 66 -101 86 -95 q 105 -89 128 -89 l 128 -89 q 136 -89 150 -91 q 164 -93 175 -101 l 175 -101 q 191 -117 196 -144 q 200 -172 200 -231 l 200 -231 l 200 -556 l 326 -562 l 326 -219 q 326 -174 332 -150 q 337 -127 348 -112 l 348 -112 q 354 -103 368 -96 q 381 -90 395 -90 l 395 -90 q 411 -90 424 -95 q 437 -100 446 -114 l 446 -114 q 454 -128 457 -146 q 460 -165 460 -203 l 460 -203 l 460 -346 q 460 -381 466 -413 q 472 -445 484 -474 q 495 -503 516 -524 l 516 -524 q 536 -544 569 -559 q 602 -574 652 -574 l 652 -574 q 702 -574 737 -559 q 771 -545 792 -524 l 792 -524 q 812 -503 825 -474 q 838 -446 844 -414 q 849 -382 849 -348 l 849 -348 l 849 -216 q 849 -184 852 -160 q 854 -137 862 -121 l 862 -121 q 867 -106 881 -98 q 895 -90 916 -90 l 916 -90 q 936 -90 949 -97 q 962 -105 968 -117 l 968 -117 q 976 -133 980 -154 q 983 -176 983 -213 l 983 -213 l 983 -346 q 983 -381 989 -413 q 994 -445 1007 -474 q 1019 -503 1040 -524 l 1040 -524 q 1060 -544 1093 -559 q 1126 -574 1176 -574 z m 1609 -365 l 1609 -365 q 1609 -317 1597 -272 q 1585 -227 1562 -182 q 1539 -138 1508 -89 l 1508 -89 l 1485 -96 q 1502 -98 1528 -99 q 1554 -100 1559 -100 l 1559 -100 l 1670 -100 l 1670 -290 q 1670 -348 1659 -384 q 1648 -421 1627 -445 q 1605 -469 1570 -484 l 1570 -484 l 1571 -484 q 1585 -467 1597 -435 q 1609 -403 1609 -365 z"},"൹":{"ha":957,"x_min":34,"x_max":935,"o":"m 249 -574 l 249 -574 q 283 -574 307 -566 q 330 -559 351 -543 q 371 -528 397 -503 l 397 -503 l 445 -235 l 445 0 l 318 0 l 318 -358 q 318 -407 312 -428 q 306 -450 294 -464 l 294 -464 q 289 -468 280 -470 q 270 -473 257 -473 l 257 -473 q 234 -473 213 -456 q 191 -440 177 -402 q 162 -364 162 -300 l 162 -300 q 162 -255 170 -211 q 178 -168 194 -127 q 210 -86 234 -49 l 234 -49 l 133 13 q 104 -31 82 -80 q 59 -130 47 -186 q 34 -242 34 -305 l 34 -305 q 34 -382 58 -443 q 82 -504 130 -539 q 178 -574 249 -574 z m 557 -574 l 557 -574 q 619 -574 671 -550 q 722 -527 760 -483 q 798 -439 820 -374 q 841 -309 841 -226 l 841 -226 q 841 -139 819 -86 q 796 -34 755 -11 q 714 12 656 12 l 656 12 q 596 12 560 -12 q 523 -36 508 -73 q 492 -111 492 -152 l 492 -152 q 492 -204 511 -241 q 529 -279 563 -304 l 563 -304 q 583 -318 608 -327 q 633 -336 667 -340 q 700 -344 744 -344 l 744 -344 l 935 -344 l 935 -245 l 752 -245 q 705 -245 682 -239 q 659 -233 642 -221 l 642 -221 q 629 -209 622 -192 q 614 -176 614 -153 l 614 -153 q 614 -128 625 -109 q 636 -91 662 -91 l 662 -91 q 677 -91 689 -105 q 701 -119 707 -147 q 713 -175 713 -223 l 713 -223 q 713 -238 713 -254 q 713 -270 712 -283 l 712 -283 l 703 -322 q 699 -356 685 -390 q 671 -425 642 -449 q 613 -473 562 -473 l 562 -473 q 544 -473 524 -467 q 504 -462 484 -446 l 484 -446 q 468 -432 460 -415 q 452 -398 449 -368 q 445 -339 445 -291 l 445 -291 l 445 -212 l 372 -231 l 360 -473 q 381 -502 407 -525 q 433 -548 469 -561 q 505 -574 557 -574 z"},"ൺ":{"ha":1283,"x_min":35,"x_max":1250,"o":"m 314 -574 l 314 -574 q 381 -574 426 -550 q 471 -526 508 -475 l 508 -475 l 470 -490 q 499 -534 539 -554 q 578 -574 623 -574 l 623 -574 q 679 -574 715 -550 q 751 -527 777 -484 l 777 -484 l 783 -454 l 818 -334 l 818 0 l 691 0 l 691 -339 q 691 -389 688 -412 q 684 -436 671 -451 l 671 -451 q 664 -462 652 -467 q 640 -473 620 -473 l 620 -473 q 604 -473 592 -467 q 580 -461 570 -451 l 570 -451 q 557 -434 554 -411 q 550 -389 550 -335 l 550 -335 l 550 0 l 423 0 l 423 -295 q 423 -364 415 -396 q 406 -428 391 -444 l 391 -444 q 379 -457 363 -465 q 346 -473 314 -473 l 314 -473 q 268 -473 232 -449 q 195 -425 173 -373 q 150 -322 150 -242 l 150 -242 l 150 -231 q 150 -171 158 -139 q 165 -108 178 -97 q 191 -86 206 -86 l 206 -86 q 219 -86 229 -94 q 238 -102 243 -119 q 247 -137 247 -167 l 247 -167 q 247 -212 237 -231 q 227 -250 200 -250 l 200 -250 q 176 -250 153 -233 q 130 -217 105 -180 l 105 -180 l 87 -272 q 107 -297 147 -320 q 186 -344 234 -344 l 234 -344 q 278 -344 309 -323 q 339 -303 354 -265 q 369 -228 369 -175 l 369 -175 q 369 -113 350 -71 q 331 -30 296 -9 q 261 12 211 12 l 211 12 q 165 12 125 -12 q 85 -37 60 -93 q 35 -149 35 -243 l 35 -243 q 35 -354 71 -428 q 107 -502 171 -538 q 234 -574 314 -574 z m 1066 12 l 1066 12 q 1007 12 967 -14 q 927 -40 907 -91 q 887 -142 887 -215 l 887 -215 q 887 -259 896 -305 q 905 -352 931 -399 q 957 -447 1004 -495 l 1004 -495 l 1010 -524 q 1044 -562 1063 -590 q 1081 -619 1081 -645 l 1081 -645 q 1081 -669 1068 -683 q 1055 -698 1026 -698 l 1026 -698 q 1017 -698 1005 -696 q 993 -694 982 -691 l 982 -691 l 961 -786 q 982 -793 1012 -796 q 1041 -800 1069 -800 l 1069 -800 q 1125 -800 1155 -780 q 1184 -760 1196 -729 q 1207 -699 1207 -667 l 1207 -667 q 1207 -620 1183 -570 q 1158 -521 1114 -470 l 1114 -470 l 1099 -456 q 1069 -421 1050 -380 q 1030 -340 1022 -296 q 1013 -253 1013 -211 l 1013 -211 q 1013 -168 1019 -140 q 1025 -113 1037 -99 q 1048 -86 1067 -86 l 1067 -86 q 1094 -86 1107 -112 q 1120 -138 1120 -212 l 1120 -212 q 1120 -256 1113 -300 q 1106 -344 1091 -381 q 1075 -418 1050 -442 l 1050 -442 q 1031 -456 1011 -466 q 991 -477 953 -477 l 953 -477 q 934 -477 912 -471 q 889 -466 867 -450 l 867 -450 q 852 -438 842 -420 q 831 -402 825 -373 q 818 -344 818 -299 l 818 -299 l 818 -73 l 697 -73 l 697 -264 l 737 -466 q 760 -496 787 -520 q 813 -545 854 -559 q 895 -574 954 -574 l 954 -574 q 993 -574 1027 -566 q 1061 -558 1089 -543 l 1089 -543 q 1091 -542 1094 -540 q 1096 -539 1099 -535 l 1099 -535 q 1150 -507 1184 -459 q 1217 -411 1234 -350 q 1250 -290 1250 -223 l 1250 -223 q 1250 -105 1203 -46 q 1155 12 1066 12 z"},"ൻ":{"ha":912,"x_min":34,"x_max":877,"o":"m 247 -574 l 247 -574 q 282 -574 307 -566 q 331 -558 353 -542 q 374 -527 399 -503 l 399 -503 l 445 -283 l 445 0 l 318 0 l 318 -358 q 318 -407 312 -428 q 306 -450 294 -464 l 294 -464 q 289 -468 280 -470 q 270 -473 257 -473 l 257 -473 q 234 -473 213 -456 q 191 -440 177 -402 q 162 -364 162 -300 l 162 -300 q 162 -255 170 -211 q 178 -168 194 -127 q 210 -86 234 -49 l 234 -49 l 133 13 q 104 -31 82 -80 q 59 -130 47 -186 q 34 -242 34 -305 l 34 -305 q 34 -382 58 -443 q 82 -504 130 -539 q 177 -574 247 -574 z m 693 12 l 693 12 q 634 12 594 -14 q 554 -40 534 -91 q 514 -142 514 -215 l 514 -215 q 514 -259 523 -305 q 532 -352 558 -399 q 584 -447 631 -495 l 631 -495 l 637 -524 q 671 -562 690 -590 q 708 -619 708 -645 l 708 -645 q 708 -669 695 -683 q 682 -698 653 -698 l 653 -698 q 644 -698 633 -696 q 621 -694 609 -691 l 609 -691 l 588 -786 q 609 -793 639 -796 q 668 -800 696 -800 l 696 -800 q 752 -800 782 -780 q 811 -760 823 -729 q 834 -699 834 -667 l 834 -667 q 834 -620 810 -570 q 785 -521 741 -470 l 741 -470 l 726 -456 q 696 -421 677 -380 q 657 -340 649 -296 q 640 -253 640 -211 l 640 -211 q 640 -168 646 -140 q 652 -113 664 -99 q 675 -86 694 -86 l 694 -86 q 721 -86 735 -112 q 748 -138 748 -212 l 748 -212 q 748 -256 741 -300 q 733 -344 718 -381 q 702 -418 677 -442 l 677 -442 q 658 -456 638 -466 q 618 -477 580 -477 l 580 -477 q 561 -477 539 -471 q 516 -466 494 -450 l 494 -450 q 479 -438 469 -420 q 458 -402 452 -373 q 445 -344 445 -299 l 445 -299 l 445 -73 l 324 -73 l 324 -264 l 364 -466 q 387 -496 414 -520 q 441 -545 482 -559 q 522 -574 581 -574 l 581 -574 q 620 -574 654 -566 q 688 -558 716 -543 l 716 -543 q 718 -542 721 -540 q 723 -539 726 -535 l 726 -535 q 777 -507 811 -459 q 844 -411 861 -350 q 877 -290 877 -223 l 877 -223 q 877 -105 830 -46 q 782 12 693 12 z"},"ർ":{"ha":644,"x_min":34,"x_max":609,"o":"m 427 12 l 427 12 q 367 12 327 -14 q 287 -40 267 -91 q 246 -142 246 -215 l 246 -215 q 246 -259 256 -305 q 265 -352 291 -399 q 316 -447 364 -495 l 364 -495 l 370 -524 q 405 -562 423 -590 q 441 -619 441 -645 l 441 -645 q 441 -669 428 -683 q 415 -698 385 -698 l 385 -698 q 378 -698 365 -696 q 352 -694 341 -691 l 341 -691 l 320 -786 q 341 -793 371 -796 q 400 -800 428 -800 l 428 -800 q 484 -800 514 -780 q 543 -760 555 -729 q 566 -699 566 -667 l 566 -667 q 566 -620 542 -570 q 518 -521 473 -470 l 473 -470 l 458 -456 q 428 -421 409 -380 q 389 -340 381 -296 q 373 -253 373 -211 l 373 -211 q 373 -168 379 -140 q 384 -113 397 -99 q 409 -86 427 -86 l 427 -86 q 453 -86 467 -112 q 480 -138 480 -212 l 480 -212 q 480 -246 476 -278 q 472 -311 464 -342 q 456 -374 443 -400 q 429 -426 409 -442 l 409 -442 q 391 -457 374 -466 q 356 -476 313 -476 l 313 -476 q 264 -476 231 -454 q 197 -432 180 -391 q 163 -350 163 -293 l 163 -293 q 163 -240 172 -198 q 180 -157 198 -121 q 215 -85 241 -50 l 241 -50 l 148 13 q 114 -25 89 -69 q 63 -114 49 -169 q 34 -224 34 -294 l 34 -294 q 34 -348 50 -398 q 65 -448 98 -487 q 131 -527 184 -550 q 236 -574 312 -574 l 312 -574 q 354 -574 388 -566 q 421 -559 448 -544 l 448 -544 q 451 -543 454 -541 q 456 -539 459 -536 l 459 -536 q 509 -508 543 -459 q 576 -410 593 -349 q 609 -289 609 -222 l 609 -222 q 609 -104 562 -46 q 515 12 427 12 z"},"ൽ":{"ha":1050,"x_min":34,"x_max":1015,"o":"m 637 -574 l 637 -574 q 700 -574 740 -567 q 779 -560 806 -549 q 832 -538 855 -526 l 855 -526 l 884 -514 q 953 -461 984 -384 q 1015 -308 1015 -216 l 1015 -216 q 1015 -105 968 -46 q 920 12 831 12 l 831 12 q 772 12 732 -14 q 692 -40 672 -91 q 652 -142 652 -215 l 652 -215 q 652 -259 661 -305 q 670 -352 696 -399 q 722 -447 769 -495 l 769 -495 l 774 -521 q 810 -561 828 -590 q 846 -619 846 -645 l 846 -645 q 846 -669 833 -683 q 819 -698 791 -698 l 791 -698 q 783 -698 771 -696 q 758 -694 747 -691 l 747 -691 l 726 -786 q 747 -793 776 -796 q 805 -800 833 -800 l 833 -800 q 889 -800 919 -780 q 949 -760 961 -729 q 972 -699 972 -667 l 972 -667 q 972 -620 948 -570 q 923 -521 879 -470 l 879 -470 l 864 -456 q 833 -421 814 -380 q 795 -340 787 -296 q 778 -253 778 -211 l 778 -211 q 778 -168 784 -140 q 789 -113 802 -99 q 814 -86 833 -86 l 833 -86 q 859 -86 872 -112 q 885 -138 885 -211 l 885 -211 q 885 -253 876 -297 q 866 -341 849 -377 q 831 -414 808 -433 l 808 -433 l 768 -447 q 737 -463 707 -468 q 676 -474 641 -474 l 641 -474 q 602 -474 568 -467 q 533 -461 505 -449 l 505 -449 l 485 -448 q 438 -416 410 -350 q 382 -285 382 -199 l 382 -199 q 382 -157 390 -132 q 397 -108 410 -98 q 423 -88 439 -88 l 439 -88 q 455 -88 469 -99 q 482 -110 490 -138 q 497 -166 497 -217 l 497 -217 q 497 -273 485 -321 q 472 -369 449 -404 q 426 -439 394 -459 l 394 -459 l 378 -466 q 366 -471 350 -474 q 334 -477 321 -477 l 321 -477 q 267 -477 232 -453 q 197 -429 181 -387 q 164 -345 164 -290 l 164 -290 q 164 -240 173 -199 q 182 -158 199 -122 q 216 -87 241 -52 l 241 -52 l 146 12 q 113 -27 88 -71 q 63 -115 49 -169 q 34 -224 34 -294 l 34 -294 q 34 -343 47 -392 q 60 -442 91 -483 q 121 -524 174 -549 q 227 -574 308 -574 l 308 -574 q 354 -574 390 -563 q 426 -552 456 -532 l 456 -532 l 468 -522 q 544 -474 584 -399 q 624 -325 624 -222 l 624 -222 q 624 -143 602 -91 q 580 -39 538 -13 q 496 12 435 12 l 435 12 q 378 12 338 -14 q 298 -41 277 -91 q 255 -142 255 -211 l 255 -211 q 255 -267 268 -317 q 280 -367 311 -410 q 342 -454 401 -488 l 401 -488 l 423 -518 q 455 -544 510 -559 q 565 -574 637 -574 z"},"ൾ":{"ha":900,"x_min":34,"x_max":866,"o":"m 687 -800 l 687 -800 q 743 -800 772 -780 q 801 -760 812 -729 q 823 -699 823 -667 l 823 -667 q 823 -620 798 -570 q 772 -521 730 -470 l 730 -470 l 714 -456 q 684 -421 665 -380 q 645 -340 637 -296 q 629 -253 629 -211 l 629 -211 q 629 -168 635 -140 q 640 -113 653 -99 q 665 -86 683 -86 l 683 -86 q 709 -86 723 -112 q 736 -138 736 -212 l 736 -212 q 736 -246 733 -278 q 730 -310 722 -341 q 714 -373 701 -399 q 687 -425 667 -443 l 667 -443 q 646 -459 627 -467 q 608 -475 572 -475 l 572 -475 q 549 -475 526 -468 q 503 -462 486 -450 l 486 -450 q 456 -428 447 -385 q 438 -342 438 -276 l 438 -276 l 438 -208 q 438 -175 434 -145 q 430 -115 421 -89 q 411 -63 394 -43 l 394 -43 q 369 -16 334 -2 q 298 12 250 12 l 250 12 q 182 12 134 -20 q 85 -53 60 -112 q 34 -172 34 -254 l 34 -254 q 34 -324 47 -382 q 60 -440 82 -487 q 104 -535 133 -576 l 133 -576 l 234 -514 q 211 -476 195 -436 q 179 -396 171 -352 q 162 -309 162 -260 l 162 -260 q 162 -198 174 -161 q 185 -124 204 -107 q 223 -90 245 -90 l 245 -90 q 263 -90 276 -96 q 289 -103 297 -117 l 297 -117 q 303 -131 307 -149 q 311 -167 311 -217 l 311 -217 l 311 -307 q 311 -390 334 -445 q 357 -500 395 -527 l 395 -527 q 429 -552 468 -563 q 507 -574 571 -574 l 571 -574 q 615 -574 646 -566 q 677 -559 704 -546 l 704 -546 l 716 -537 q 767 -508 800 -460 q 833 -412 850 -351 q 866 -290 866 -223 l 866 -223 q 866 -105 819 -46 q 771 12 682 12 l 682 12 q 623 12 583 -14 q 543 -40 523 -91 q 502 -142 502 -215 l 502 -215 q 502 -259 512 -305 q 521 -352 547 -399 q 572 -447 620 -495 l 620 -495 l 626 -524 q 660 -562 679 -590 q 697 -619 697 -645 l 697 -645 q 697 -669 684 -683 q 670 -698 641 -698 l 641 -698 q 633 -698 621 -696 q 608 -694 598 -691 l 598 -691 l 576 -786 q 597 -793 628 -796 q 659 -800 687 -800 z"},"ൿ":{"ha":1048,"x_min":28,"x_max":1018,"o":"m 448 -574 l 448 -574 q 522 -574 568 -539 q 614 -504 636 -438 q 658 -373 658 -283 l 658 -283 q 658 -182 633 -116 q 608 -51 561 -19 q 514 12 448 12 l 448 12 q 394 12 356 -9 q 317 -30 294 -60 l 294 -60 q 262 -103 249 -162 q 236 -221 236 -287 l 236 -287 q 236 -428 292 -501 q 348 -574 448 -574 z m 448 -474 l 448 -474 q 403 -474 382 -430 q 361 -387 361 -282 l 361 -282 q 361 -212 371 -169 q 380 -126 399 -107 q 418 -88 448 -88 l 448 -88 q 476 -88 495 -106 q 513 -125 523 -168 q 533 -211 533 -282 l 533 -282 q 533 -353 524 -395 q 514 -437 495 -455 q 476 -474 448 -474 z m 190 12 l 190 12 q 111 12 70 -33 q 28 -79 28 -159 l 28 -159 q 28 -215 52 -251 q 76 -288 117 -310 l 117 -310 q 139 -321 163 -329 q 187 -337 222 -340 q 257 -344 311 -344 l 311 -344 l 773 -344 q 832 -344 877 -334 q 921 -324 957 -295 l 957 -295 q 985 -273 1002 -240 q 1018 -207 1018 -156 l 1018 -156 q 1018 -80 980 -34 q 941 12 857 12 l 857 12 q 774 12 734 -36 q 694 -84 694 -158 l 694 -158 q 694 -190 700 -219 q 705 -248 716 -279 l 716 -279 q 718 -284 720 -291 q 721 -299 723 -305 l 723 -305 q 734 -335 750 -370 q 765 -406 787 -454 l 787 -454 q 806 -498 820 -532 q 834 -567 843 -595 q 851 -624 851 -649 l 851 -649 q 851 -671 838 -684 q 824 -698 795 -698 l 795 -698 q 788 -698 776 -696 q 763 -694 752 -691 l 752 -691 l 731 -786 q 753 -793 784 -796 q 814 -800 842 -800 l 842 -800 q 897 -800 926 -780 q 955 -760 966 -731 q 977 -702 977 -674 l 977 -674 q 977 -653 973 -629 q 969 -605 960 -576 q 950 -548 937 -513 q 923 -478 903 -433 l 903 -433 q 883 -391 870 -359 q 857 -327 846 -302 l 846 -302 q 843 -293 839 -284 q 834 -276 831 -268 l 831 -268 q 820 -240 815 -215 q 810 -190 810 -155 l 810 -155 q 810 -133 816 -118 q 822 -103 832 -95 q 842 -88 854 -88 l 854 -88 q 876 -88 887 -104 q 898 -120 898 -149 l 898 -149 q 898 -175 891 -193 q 883 -211 868 -222 l 868 -222 q 851 -236 825 -240 q 798 -245 767 -245 l 767 -245 l 274 -245 q 242 -245 220 -241 q 198 -237 181 -227 l 181 -227 q 167 -216 157 -200 q 147 -185 147 -162 l 147 -162 q 147 -140 154 -123 q 160 -106 175 -97 q 190 -88 214 -88 l 214 -88 q 236 -88 255 -97 q 274 -106 296 -126 l 296 -126 l 351 -36 q 324 -15 298 -5 q 272 5 246 9 q 220 12 190 12 z"},"!":{"ha":269,"x_min":58,"x_max":210,"o":"m 188 -239 l 81 -239 l 58 -714 l 210 -714 l 188 -239 z m 134 13 l 134 13 q 99 13 79 -8 q 58 -29 58 -68 l 58 -68 q 58 -110 78 -130 q 97 -150 134 -150 l 134 -150 q 170 -150 190 -130 q 210 -111 210 -68 l 210 -68 q 210 -27 189 -7 q 168 13 134 13 z"},"\"":{"ha":442,"x_min":59,"x_max":383,"o":"m 170 -542 l 76 -542 l 59 -800 l 186 -800 l 170 -542 z m 366 -542 l 272 -542 l 256 -800 l 383 -800 l 366 -542 z"},"#":{"ha":532,"x_min":30,"x_max":501,"o":"m 159 0 l 66 0 l 102 -199 l 30 -199 l 30 -295 l 120 -295 l 146 -421 l 54 -421 l 54 -516 l 163 -516 l 202 -713 l 296 -713 l 258 -516 l 335 -516 l 375 -713 l 467 -713 l 429 -516 l 501 -516 l 501 -421 l 411 -421 l 385 -295 l 478 -295 l 478 -199 l 367 -199 l 328 0 l 234 0 l 272 -199 l 197 -199 l 159 0 z m 241 -421 l 215 -295 l 291 -295 l 317 -421 l 241 -421 z"},"%":{"ha":757,"x_min":29,"x_max":728,"o":"m 288 0 l 191 0 l 467 -714 l 565 -714 l 288 0 z m 168 -276 l 168 -276 q 95 -276 62 -337 q 29 -399 29 -499 l 29 -499 q 29 -602 62 -663 q 94 -724 171 -724 l 171 -724 q 243 -724 277 -663 q 310 -603 310 -502 l 310 -502 q 310 -397 278 -336 q 245 -276 168 -276 z m 170 -372 l 170 -372 q 187 -372 195 -401 q 203 -430 203 -500 l 203 -500 q 203 -569 195 -598 q 187 -627 170 -627 l 170 -627 q 153 -627 145 -598 q 136 -569 136 -500 l 136 -500 q 136 -430 145 -401 q 154 -372 170 -372 z m 586 7 l 586 7 q 512 7 480 -54 q 447 -116 447 -216 l 447 -216 q 447 -319 480 -380 q 512 -441 589 -441 l 589 -441 q 661 -441 695 -380 q 728 -320 728 -219 l 728 -219 q 728 -115 696 -54 q 663 7 586 7 z m 591 -89 l 591 -89 q 608 -89 617 -118 q 625 -148 625 -217 l 625 -217 q 625 -286 617 -315 q 608 -344 592 -344 l 592 -344 q 575 -344 567 -315 q 558 -286 558 -217 l 558 -217 q 558 -149 567 -119 q 575 -89 591 -89 z"},"'":{"ha":245,"x_min":59,"x_max":186,"o":"m 170 -542 l 76 -542 l 59 -800 l 186 -800 l 170 -542 z"},"(":{"ha":340,"x_min":44,"x_max":312,"o":"m 44 -278 l 44 -278 q 44 -368 62 -465 q 80 -562 114 -650 q 147 -738 194 -800 l 194 -800 l 311 -800 q 268 -732 236 -645 q 203 -559 185 -465 q 167 -371 167 -278 l 167 -278 q 167 -186 185 -94 q 202 -2 234 84 q 266 170 312 244 l 312 244 l 194 244 q 143 175 110 87 q 77 -2 61 -96 q 44 -191 44 -278 z"},")":{"ha":340,"x_min":28,"x_max":295,"o":"m 295 -278 l 295 -278 q 295 -189 278 -91 q 260 6 226 94 q 192 182 146 244 l 146 244 l 29 244 q 73 175 105 89 q 137 3 155 -91 q 173 -186 173 -278 l 173 -278 q 173 -372 156 -463 q 139 -555 107 -640 q 74 -726 28 -801 l 28 -801 l 146 -801 q 196 -731 229 -643 q 262 -556 279 -461 q 295 -366 295 -278 z"},"*":{"ha":517,"x_min":30,"x_max":487,"o":"m 198 -800 l 317 -800 l 300 -631 l 471 -678 l 487 -563 l 329 -552 l 432 -414 l 328 -358 l 255 -502 l 192 -358 l 85 -414 l 186 -552 l 30 -564 l 48 -678 l 215 -632 l 198 -800 z"},"+":{"ha":470,"x_min":32,"x_max":437,"o":"m 288 -116 l 181 -116 l 181 -300 l 32 -300 l 32 -405 l 181 -405 l 181 -593 l 288 -593 l 288 -405 l 437 -405 l 437 -300 l 288 -300 l 288 -116 z"},",":{"ha":274,"x_min":38,"x_max":211,"o":"m 78 -115 l 206 -115 l 211 -104 q 203 -55 193 -15 q 182 24 170 59 q 158 94 142 130 l 142 130 l 38 130 q 46 94 54 50 q 62 6 69 -38 q 75 -82 78 -115 l 78 -115 z"},"-":{"ha":310,"x_min":29,"x_max":281,"o":"m 281 -211 l 29 -211 l 29 -327 l 281 -327 l 281 -211 z"},".":{"ha":265,"x_min":56,"x_max":209,"o":"m 132 13 l 132 13 q 97 13 77 -8 q 56 -29 56 -68 l 56 -68 q 56 -108 76 -129 q 95 -150 132 -150 l 132 -150 q 170 -150 190 -129 q 209 -109 209 -68 l 209 -68 q 209 -29 189 -8 q 169 13 132 13 z"},"/":{"ha":417,"x_min":17,"x_max":401,"o":"m 138 244 l 17 244 l 280 -800 l 401 -800 l 138 244 z"},":":{"ha":265,"x_min":57,"x_max":209,"o":"m 133 13 l 133 13 q 97 13 77 -8 q 57 -29 57 -68 l 57 -68 q 57 -108 76 -129 q 95 -150 133 -150 l 133 -150 q 170 -150 190 -129 q 209 -109 209 -68 l 209 -68 q 209 -29 189 -8 q 169 13 133 13 z m 133 -386 l 133 -386 q 97 -386 77 -407 q 57 -429 57 -467 l 57 -467 q 57 -508 76 -529 q 95 -550 133 -550 l 133 -550 q 171 -550 190 -529 q 209 -508 209 -468 l 209 -468 q 209 -429 189 -407 q 169 -386 133 -386 z"},";":{"ha":267,"x_min":38,"x_max":212,"o":"m 79 -115 l 206 -115 l 212 -104 q 204 -55 194 -15 q 183 24 171 59 q 158 94 143 130 l 143 130 l 38 130 q 47 93 55 50 q 63 6 69 -38 q 75 -82 79 -115 l 79 -115 z m 130 -386 l 130 -386 q 94 -386 74 -407 q 54 -429 54 -467 l 54 -467 q 54 -508 73 -529 q 92 -550 130 -550 l 130 -550 q 167 -550 187 -529 q 206 -508 206 -468 l 206 -468 q 206 -429 186 -407 q 166 -386 130 -386 z"},"<":{"ha":470,"x_min":32,"x_max":438,"o":"m 438 -240 l 438 -122 l 32 -322 l 32 -395 l 438 -594 l 438 -478 l 180 -358 l 438 -240 z"},"=":{"ha":470,"x_min":30,"x_max":439,"o":"m 439 -194 l 30 -194 l 30 -299 l 439 -299 l 439 -194 z m 439 -406 l 30 -406 l 30 -510 l 439 -510 l 439 -406 z"},">":{"ha":470,"x_min":31,"x_max":437,"o":"m 437 -323 l 31 -122 l 31 -239 l 289 -359 l 31 -477 l 31 -594 l 437 -395 l 437 -323 z"},"?":{"ha":368,"x_min":33,"x_max":344,"o":"m 178 -724 l 178 -724 q 262 -724 303 -677 q 344 -631 344 -560 l 344 -560 q 344 -519 338 -489 q 331 -460 315 -431 q 298 -402 269 -362 l 269 -362 q 253 -338 243 -320 q 232 -303 228 -289 q 223 -276 223 -264 l 223 -264 l 223 -238 l 103 -238 l 103 -270 q 103 -299 112 -325 q 120 -352 137 -376 q 153 -400 174 -425 l 174 -425 q 193 -449 202 -467 q 211 -486 214 -504 q 217 -522 217 -543 l 217 -543 q 217 -577 195 -592 q 172 -607 145 -607 l 145 -607 q 130 -607 112 -603 q 93 -600 78 -591 l 78 -591 l 33 -691 q 74 -710 104 -717 q 134 -724 178 -724 z m 164 13 l 164 13 q 128 13 108 -8 q 87 -29 87 -68 l 87 -68 q 87 -108 107 -129 q 126 -150 164 -150 l 164 -150 q 200 -150 220 -129 q 240 -109 240 -68 l 240 -68 q 240 -29 220 -8 q 200 13 164 13 z"},"[":{"ha":331,"x_min":61,"x_max":296,"o":"m 296 244 l 61 244 l 61 -800 l 296 -800 l 296 -697 l 182 -697 l 182 141 l 296 141 l 296 244 z"},"\\":{"ha":417,"x_min":17,"x_max":401,"o":"m 401 244 l 280 244 l 17 -800 l 138 -800 l 401 244 z"},"]":{"ha":329,"x_min":35,"x_max":269,"o":"m 269 244 l 35 244 l 35 141 l 149 141 l 149 -697 l 35 -697 l 35 -800 l 269 -800 l 269 244 z"},"^":{"ha":524,"x_min":20,"x_max":504,"o":"m 139 -322 l 20 -322 l 222 -716 l 292 -716 l 504 -322 l 386 -322 l 257 -551 l 139 -322 z"},"_":{"ha":365,"x_min":-2,"x_max":367,"o":"m 367 158 l -2 158 l -2 90 l 367 90 l 367 158 z"},"{":{"ha":379,"x_min":24,"x_max":343,"o":"m 343 138 l 343 244 q 259 244 216 223 q 173 201 158 166 q 143 130 143 85 l 143 85 l 143 -145 q 143 -187 113 -205 q 82 -224 24 -224 l 24 -224 l 24 -336 q 82 -336 113 -354 q 143 -373 143 -415 l 143 -415 l 143 -642 q 143 -686 158 -722 q 173 -758 216 -779 q 259 -800 343 -800 l 343 -800 l 343 -694 q 300 -693 283 -671 q 266 -649 266 -611 l 266 -611 l 266 -381 q 266 -340 239 -315 q 212 -291 158 -284 l 158 -284 l 158 -278 q 212 -270 239 -246 q 266 -222 266 -181 l 266 -181 l 266 55 q 266 80 274 99 q 281 117 298 127 q 315 137 343 138 l 343 138 z"},"|":{"ha":551,"x_min":222,"x_max":329,"o":"m 329 244 l 222 244 l 222 -800 l 329 -800 l 329 244 z"},"}":{"ha":379,"x_min":35,"x_max":354,"o":"m 35 -694 l 35 -800 q 120 -800 163 -779 q 205 -758 220 -722 q 235 -686 235 -641 l 235 -641 l 235 -415 q 235 -372 266 -353 q 297 -335 354 -335 l 354 -335 l 354 -224 q 297 -224 266 -205 q 235 -187 235 -144 l 235 -144 l 235 86 q 235 131 220 167 q 204 202 162 223 q 119 244 35 244 l 35 244 l 35 138 q 78 137 95 116 q 111 94 111 55 l 111 55 l 111 -180 q 111 -221 139 -245 q 166 -270 221 -277 l 221 -277 l 221 -283 q 166 -290 139 -314 q 111 -339 111 -380 l 111 -380 l 111 -612 q 111 -637 104 -655 q 96 -674 80 -684 q 63 -694 35 -694 l 35 -694 z"},"~":{"ha":470,"x_min":32,"x_max":438,"o":"m 221 -303 l 221 -303 q 192 -317 173 -323 q 154 -329 136 -329 l 136 -329 q 108 -329 82 -313 q 55 -297 32 -270 l 32 -270 l 32 -381 q 54 -408 80 -421 q 106 -434 138 -434 l 138 -434 q 167 -434 195 -425 q 222 -417 250 -402 l 250 -402 q 275 -389 296 -382 q 317 -376 336 -376 l 336 -376 q 362 -376 389 -392 q 416 -409 438 -435 l 438 -435 l 438 -324 q 416 -298 390 -285 q 364 -272 333 -272 l 333 -272 q 303 -272 277 -280 q 251 -288 221 -303 z"}," ":{"ha":221,"x_min":0,"x_max":0,"o":""},"­":{"ha":310,"x_min":29,"x_max":281,"o":"m 281 -211 l 29 -211 l 29 -327 l 281 -327 l 281 -211 z"},"–":{"ha":500,"x_min":39,"x_max":461,"o":"m 461 -210 l 39 -210 l 39 -325 l 461 -325 l 461 -210 z"},"—":{"ha":1000,"x_min":39,"x_max":961,"o":"m 961 -210 l 39 -210 l 39 -325 l 961 -325 l 961 -210 z"},"‘":{"ha":253,"x_min":41,"x_max":216,"o":"m 175 -555 l 47 -555 l 41 -566 q 50 -616 61 -655 q 71 -694 84 -729 q 97 -765 111 -800 l 111 -800 l 216 -800 q 207 -763 199 -718 q 191 -673 185 -630 q 178 -588 175 -555 l 175 -555 z"},"’":{"ha":253,"x_min":41,"x_max":215,"o":"m 81 -800 l 209 -800 l 215 -789 q 207 -740 197 -700 q 186 -661 174 -626 q 161 -592 145 -555 l 145 -555 l 41 -555 q 47 -580 54 -612 q 60 -645 66 -680 q 71 -715 75 -746 q 79 -777 81 -800 l 81 -800 z"},"“":{"ha":460,"x_min":41,"x_max":422,"o":"m 382 -556 l 254 -556 l 249 -566 q 257 -616 268 -655 q 278 -695 291 -730 q 304 -765 318 -800 l 318 -800 l 422 -800 q 413 -761 405 -718 q 397 -676 391 -635 q 385 -594 382 -556 l 382 -556 z m 174 -556 l 47 -556 l 41 -566 q 50 -616 60 -655 q 70 -695 83 -730 q 96 -765 111 -800 l 111 -800 l 216 -800 q 206 -763 198 -718 q 190 -674 184 -631 q 178 -589 174 -556 l 174 -556 z"},"”":{"ha":460,"x_min":41,"x_max":422,"o":"m 290 -800 l 415 -800 l 422 -790 q 414 -740 404 -700 q 393 -661 381 -626 q 368 -592 352 -556 l 352 -556 l 248 -556 q 259 -598 267 -639 q 274 -681 280 -721 q 286 -761 290 -800 l 290 -800 z m 81 -800 l 209 -800 l 215 -790 q 207 -740 197 -700 q 186 -661 174 -626 q 161 -592 145 -556 l 145 -556 l 41 -556 q 47 -580 53 -612 q 59 -645 65 -680 q 71 -715 75 -746 q 79 -777 81 -800 l 81 -800 z"},"…":{"ha":788,"x_min":57,"x_max":731,"o":"m 133 13 l 133 13 q 98 13 78 -8 q 57 -29 57 -68 l 57 -68 q 57 -108 77 -129 q 96 -150 133 -150 l 133 -150 q 170 -150 190 -129 q 210 -109 210 -68 l 210 -68 q 210 -29 190 -8 q 169 13 133 13 z m 393 13 l 393 13 q 358 13 338 -8 q 317 -29 317 -68 l 317 -68 q 317 -108 337 -129 q 356 -150 393 -150 l 393 -150 q 430 -150 450 -129 q 470 -109 470 -68 l 470 -68 q 470 -29 450 -8 q 429 13 393 13 z m 654 13 l 654 13 q 619 13 599 -8 q 578 -29 578 -68 l 578 -68 q 578 -108 598 -129 q 617 -150 654 -150 l 654 -150 q 691 -150 711 -129 q 731 -109 731 -68 l 731 -68 q 731 -29 711 -8 q 690 13 654 13 z"},"×":{"ha":470,"x_min":36,"x_max":433,"o":"m 232 -428 l 359 -551 l 433 -480 l 306 -353 l 430 -227 l 359 -155 l 232 -280 l 107 -156 l 36 -228 l 159 -353 l 36 -478 l 107 -551 l 232 -428 z"},"÷":{"ha":470,"x_min":32,"x_max":437,"o":"m 437 -300 l 32 -300 l 32 -405 l 437 -405 l 437 -300 z m 235 -98 l 235 -98 q 204 -98 186 -117 q 167 -136 167 -175 l 167 -175 q 167 -212 185 -231 q 203 -251 235 -251 l 235 -251 q 267 -251 285 -231 q 302 -212 302 -175 l 302 -175 q 302 -137 284 -117 q 266 -98 235 -98 z m 235 -454 l 235 -454 q 204 -454 186 -473 q 167 -492 167 -530 l 167 -530 q 167 -568 185 -587 q 203 -607 235 -607 l 235 -607 q 267 -607 285 -588 q 302 -569 302 -530 l 302 -530 q 302 -493 284 -473 q 266 -454 235 -454 z"},"−":{"ha":470,"x_min":33,"x_max":437,"o":"m 437 -300 l 33 -300 l 33 -405 l 437 -405 l 437 -300 z"},"₹":{"ha":470,"x_min":49,"x_max":424,"o":"m 331 0 l 185 0 l 50 -258 l 66 -356 l 89 -356 q 130 -356 147 -364 q 164 -373 174 -388 l 174 -388 q 186 -408 189 -431 q 192 -455 192 -484 l 192 -484 q 192 -526 186 -548 q 179 -571 166 -588 l 166 -588 q 155 -601 138 -606 q 120 -612 88 -612 l 88 -612 l 49 -612 l 49 -714 l 424 -714 l 424 -612 l 270 -612 q 288 -596 301 -564 q 313 -532 313 -482 l 313 -482 q 313 -419 298 -375 q 283 -332 250 -304 q 217 -276 168 -263 l 168 -263 l 168 -283 l 331 0 z m 424 -434 l 49 -434 l 49 -540 l 424 -540 l 424 -434 z"},"꠰":{"ha":247,"x_min":60,"x_max":187,"o":"m 60 0 l 60 -562 l 187 -562 l 187 0 l 60 0 z"},"꠱":{"ha":428,"x_min":60,"x_max":368,"o":"m 60 0 l 60 -562 l 187 -562 l 187 0 l 60 0 z m 242 0 l 242 -562 l 368 -562 l 368 0 l 242 0 z"},"꠲":{"ha":609,"x_min":60,"x_max":549,"o":"m 60 0 l 60 -562 l 187 -562 l 187 0 l 60 0 z m 242 0 l 242 -562 l 368 -562 l 368 0 l 242 0 z m 422 0 l 422 -562 l 549 -562 l 549 0 l 422 0 z"},"॑":{"ha":0,"x_min":-324,"x_max":-234,"o":"m -324 -653 l -324 -864 l -234 -864 l -234 -653 l -324 -653 z"},"॒":{"ha":0,"x_min":-488,"x_max":-70,"o":"m -70 103 l -70 189 l -488 189 l -488 103 l -70 103 z"},"।":{"ha":315,"x_min":122,"x_max":252,"o":"m 252 49 l 122 49 l 122 -603 l 252 -603 l 252 49 z"},"॥":{"ha":553,"x_min":124,"x_max":490,"o":"m 490 49 l 361 49 l 361 -603 l 490 -603 l 490 49 z m 253 49 l 124 49 l 124 -603 l 253 -603 l 253 49 z"},"᳚":{"ha":0,"x_min":-382,"x_max":-176,"o":"m -382 -653 l -382 -864 l -303 -864 l -303 -653 l -382 -653 z m -255 -653 l -255 -864 l -176 -864 l -176 -653 l -255 -653 z"},"̇":{"ha":0,"x_min":-303,"x_max":-174,"o":"m -303 -701 l -303 -701 q -303 -740 -284 -755 q -265 -771 -238 -771 l -238 -771 q -210 -771 -192 -755 q -174 -740 -174 -701 l -174 -701 q -174 -661 -192 -646 q -210 -631 -238 -631 l -238 -631 q -265 -631 -284 -646 q -303 -661 -303 -701 z"},"̣":{"ha":0,"x_min":-302,"x_max":-174,"o":"m -302 136 l -302 136 q -302 96 -283 81 q -264 65 -238 65 l -238 65 q -210 65 -192 81 q -174 96 -174 136 l -174 136 q -174 175 -192 191 q -210 206 -238 206 l -238 206 q -264 206 -283 191 q -302 175 -302 136 z"},"‐":{"ha":310,"x_min":29,"x_max":281,"o":"m 281 -211 l 29 -211 l 29 -327 l 281 -327 l 281 -211 z"},"​":{"ha":0,"x_min":0,"x_max":0,"o":""},"‌":{"ha":0,"x_min":0,"x_max":0,"o":""},"‍":{"ha":0,"x_min":-161,"x_max":161,"o":"m 29 244 l -29 244 l -29 -565 l -121 -474 l -161 -514 l -40 -631 l -161 -748 l -121 -788 l 0 -669 l 121 -788 l 161 -748 l 40 -631 l 161 -514 l 121 -474 l 29 -565 l 29 244 z"},"◌":{"ha":562,"x_min":56,"x_max":503,"o":"m 88 -231 l 88 -231 q 56 -231 56 -264 l 56 -264 q 56 -295 88 -295 l 88 -295 q 120 -295 120 -264 l 120 -264 q 120 -231 88 -231 z m 137 -95 l 137 -95 q 105 -95 105 -127 l 105 -127 q 105 -158 137 -158 l 137 -158 q 168 -158 168 -127 l 168 -127 q 168 -95 137 -95 z m 280 -40 l 280 -40 q 248 -40 248 -72 l 248 -72 q 248 -104 280 -104 l 280 -104 q 311 -104 311 -72 l 311 -72 q 311 -40 280 -40 z m 137 -369 l 137 -369 q 105 -369 105 -401 l 105 -401 q 105 -432 137 -432 l 137 -432 q 168 -432 168 -401 l 168 -401 q 168 -369 137 -369 z m 422 -95 l 422 -95 q 390 -95 390 -127 l 390 -127 q 390 -158 422 -158 l 422 -158 q 454 -158 454 -127 l 454 -127 q 454 -95 422 -95 z m 280 -424 l 280 -424 q 248 -424 248 -456 l 248 -456 q 248 -487 280 -487 l 280 -487 q 311 -487 311 -456 l 311 -456 q 311 -424 280 -424 z m 471 -231 l 471 -231 q 440 -231 440 -264 l 440 -264 q 440 -295 471 -295 l 471 -295 q 503 -295 503 -264 l 503 -264 q 503 -231 471 -231 z m 422 -369 l 422 -369 q 390 -369 390 -401 l 390 -401 q 390 -432 422 -432 l 422 -432 q 454 -432 454 -401 l 454 -401 q 454 -369 422 -369 z"},"«":{"ha":522,"x_min":30,"x_max":490,"o":"m 30 -266 l 30 -280 l 180 -497 l 272 -449 l 169 -273 l 272 -100 l 180 -51 l 30 -266 z m 247 -266 l 247 -280 l 398 -497 l 490 -449 l 388 -273 l 490 -100 l 398 -51 l 247 -266 z"},"»":{"ha":522,"x_min":33,"x_max":493,"o":"m 493 -280 l 493 -266 l 342 -51 l 251 -100 l 353 -273 l 251 -449 l 342 -497 l 493 -280 z m 275 -280 l 275 -266 l 124 -51 l 33 -100 l 135 -273 l 33 -449 l 124 -497 l 275 -280 z"},"̈":{"ha":0,"x_min":-140,"x_max":143,"o":"m -140 -681 l -140 -681 q -140 -715 -123 -731 q -107 -747 -81 -747 l -81 -747 q -53 -747 -37 -730 q -21 -713 -21 -681 l -21 -681 q -21 -651 -37 -633 q -53 -615 -81 -615 l -81 -615 q -107 -615 -123 -632 q -140 -650 -140 -681 z m 22 -681 l 22 -681 q 22 -715 40 -731 q 57 -747 83 -747 l 83 -747 q 111 -747 128 -730 q 144 -713 144 -681 l 144 -681 q 144 -651 128 -633 q 111 -615 82 -615 l 82 -615 q 56 -615 39 -632 q 22 -650 22 -681 z"},"̀":{"ha":0,"x_min":-401,"x_max":-172,"o":"m -401 -766 l -254 -766 q -244 -745 -229 -716 q -214 -687 -199 -661 q -184 -635 -172 -619 l -172 -619 l -172 -606 l -264 -606 q -277 -617 -296 -637 q -316 -657 -336 -679 q -357 -702 -374 -722 q -391 -743 -401 -756 l -401 -756 l -401 -766 z"},"́":{"ha":0,"x_min":-299,"x_max":-71,"o":"m -70 -766 l -70 -756 q -80 -742 -96 -723 q -112 -705 -131 -683 q -150 -662 -170 -642 q -190 -622 -207 -606 l -207 -606 l -299 -606 l -299 -619 q -282 -646 -267 -671 q -252 -696 -239 -720 q -227 -744 -217 -766 l -217 -766 l -70 -766 z"},"̋":{"ha":0,"x_min":-114,"x_max":231,"o":"m 231 -766 l 231 -756 q 224 -742 210 -721 q 195 -701 176 -680 q 157 -659 138 -640 q 118 -621 103 -606 l 103 -606 l 38 -606 l 38 -619 q 54 -649 69 -678 q 84 -707 95 -730 q 105 -753 111 -766 l 111 -766 l 231 -766 z m 79 -766 l 79 -756 q 72 -741 58 -721 q 44 -702 26 -681 q 8 -661 -13 -642 q -34 -623 -53 -606 l -53 -606 l -114 -606 l -114 -619 q -97 -651 -83 -679 q -69 -707 -58 -729 q -47 -752 -41 -766 l -41 -766 l 79 -766 z"},"̄":{"ha":0,"x_min":-137,"x_max":138,"o":"m -137 -718 l 138 -718 l 138 -618 l -137 -618 l -137 -718 z"},"˙":{"ha":220,"x_min":40,"x_max":180,"o":"m 110 -761 l 110 -761 q 147 -761 164 -742 q 180 -723 180 -687 l 180 -687 q 180 -651 163 -632 q 146 -614 110 -614 l 110 -614 q 76 -614 58 -632 q 40 -651 40 -687 l 40 -687 q 40 -724 57 -742 q 74 -761 110 -761 z"},"°":{"ha":365,"x_min":28,"x_max":336,"o":"m 182 -432 l 182 -432 q 138 -432 104 -450 q 69 -469 49 -502 q 28 -535 28 -578 l 28 -578 q 28 -622 49 -654 q 70 -687 105 -705 q 139 -724 182 -724 l 182 -724 q 227 -724 262 -706 q 296 -688 316 -655 q 336 -623 336 -578 l 336 -578 q 336 -535 316 -502 q 296 -469 262 -450 q 227 -432 182 -432 z m 182 -509 l 182 -509 q 209 -509 230 -527 q 250 -546 250 -578 l 250 -578 q 250 -611 230 -629 q 210 -647 182 -647 l 182 -647 q 156 -647 136 -628 q 115 -610 115 -578 l 115 -578 q 115 -546 136 -527 q 157 -509 182 -509 z"},"A":{"ha":524,"x_min":0,"x_max":524,"o":"m 524 0 l 380 0 l 346 -174 l 179 -174 l 146 0 l 0 0 l 175 -714 l 347 -714 l 524 0 z m 323 -293 l 283 -492 q 278 -518 275 -536 q 271 -555 268 -571 q 265 -587 262 -605 l 262 -605 q 260 -590 256 -570 q 252 -550 248 -529 q 243 -509 240 -494 l 240 -494 l 201 -293 l 323 -293 z"},"Á":{"ha":524,"x_min":0,"x_max":524,"o":"m 524 0 l 380 0 l 346 -174 l 179 -174 l 146 0 l 0 0 l 175 -714 l 347 -714 l 524 0 z m 323 -293 l 283 -492 q 278 -518 275 -536 q 271 -555 268 -571 q 265 -587 262 -605 l 262 -605 q 260 -590 256 -570 q 252 -550 248 -529 q 243 -509 240 -494 l 240 -494 l 201 -293 l 323 -293 z m 419 -934 l 419 -924 q 409 -910 393 -891 q 377 -873 358 -851 q 339 -830 319 -810 q 299 -790 282 -774 l 282 -774 l 190 -774 l 190 -787 q 207 -814 222 -839 q 237 -864 250 -888 q 262 -912 272 -934 l 272 -934 l 419 -934 z"},"Ă":{"ha":524,"x_min":0,"x_max":524,"o":"m 524 0 l 380 0 l 346 -174 l 179 -174 l 146 0 l 0 0 l 175 -714 l 347 -714 l 524 0 z m 323 -293 l 283 -492 q 278 -518 275 -536 q 271 -555 268 -571 q 265 -587 262 -605 l 262 -605 q 260 -590 256 -570 q 252 -550 248 -529 q 243 -509 240 -494 l 240 -494 l 201 -293 l 323 -293 z m 342 -939 l 419 -939 q 419 -890 397 -852 q 374 -815 339 -794 q 304 -774 262 -774 l 262 -774 q 199 -774 154 -816 q 109 -859 108 -939 l 108 -939 l 186 -939 q 185 -915 196 -900 q 206 -885 225 -878 q 243 -872 263 -872 l 263 -872 q 283 -872 302 -878 q 320 -885 332 -900 q 343 -915 342 -939 l 342 -939 z"},"Â":{"ha":524,"x_min":0,"x_max":524,"o":"m 524 0 l 380 0 l 346 -174 l 179 -174 l 146 0 l 0 0 l 175 -714 l 347 -714 l 524 0 z m 323 -293 l 283 -492 q 278 -518 275 -536 q 271 -555 268 -571 q 265 -587 262 -605 l 262 -605 q 260 -590 256 -570 q 252 -550 248 -529 q 243 -509 240 -494 l 240 -494 l 201 -293 l 323 -293 z m 192 -934 l 333 -934 q 344 -913 359 -888 q 373 -863 391 -837 q 409 -812 427 -787 l 427 -787 l 427 -774 l 350 -774 q 333 -790 308 -811 q 283 -833 262 -862 l 262 -862 q 241 -833 216 -810 q 190 -787 175 -774 l 175 -774 l 97 -774 l 97 -787 q 113 -807 131 -834 q 149 -861 166 -888 q 183 -916 192 -934 l 192 -934 z"},"Ä":{"ha":524,"x_min":0,"x_max":524,"o":"m 524 0 l 380 0 l 346 -174 l 179 -174 l 146 0 l 0 0 l 175 -714 l 347 -714 l 524 0 z m 323 -293 l 283 -492 q 278 -518 275 -536 q 271 -555 268 -571 q 265 -587 262 -605 l 262 -605 q 260 -590 256 -570 q 252 -550 248 -529 q 243 -509 240 -494 l 240 -494 l 201 -293 l 323 -293 z m 120 -849 l 120 -849 q 120 -883 137 -899 q 153 -915 179 -915 l 179 -915 q 207 -915 223 -898 q 239 -881 239 -849 l 239 -849 q 239 -819 223 -801 q 207 -783 179 -783 l 179 -783 q 153 -783 137 -800 q 120 -818 120 -849 z m 282 -849 l 282 -849 q 282 -883 300 -899 q 317 -915 343 -915 l 343 -915 q 371 -915 388 -898 q 404 -881 404 -849 l 404 -849 q 404 -819 388 -801 q 371 -783 342 -783 l 342 -783 q 316 -783 299 -800 q 282 -818 282 -849 z"},"À":{"ha":524,"x_min":0,"x_max":524,"o":"m 524 0 l 380 0 l 346 -174 l 179 -174 l 146 0 l 0 0 l 175 -714 l 347 -714 l 524 0 z m 323 -293 l 283 -492 q 278 -518 275 -536 q 271 -555 268 -571 q 265 -587 262 -605 l 262 -605 q 260 -590 256 -570 q 252 -550 248 -529 q 243 -509 240 -494 l 240 -494 l 201 -293 l 323 -293 z m 100 -934 l 247 -934 q 257 -913 272 -884 q 287 -855 302 -829 q 317 -803 329 -787 l 329 -787 l 329 -774 l 237 -774 q 224 -785 205 -805 q 185 -825 165 -847 q 144 -870 127 -890 q 110 -911 100 -924 l 100 -924 l 100 -934 z"},"Ā":{"ha":524,"x_min":0,"x_max":524,"o":"m 524 0 l 380 0 l 346 -174 l 179 -174 l 146 0 l 0 0 l 175 -714 l 347 -714 l 524 0 z m 323 -293 l 283 -492 q 278 -518 275 -536 q 271 -555 268 -571 q 265 -587 262 -605 l 262 -605 q 260 -590 256 -570 q 252 -550 248 -529 q 243 -509 240 -494 l 240 -494 l 201 -293 l 323 -293 z m 125 -886 l 400 -886 l 400 -786 l 125 -786 l 125 -886 z"}}}
